<svg xmlns="http://www.w3.org/2000/svg" version="1.1" xmlns:xlink="http://www.w3.org/1999/xlink" xmlns:svgjs="http://svgjs.dev/svgjs" viewBox="0 0 800 800"><defs><linearGradient x1="50%" y1="0%" x2="50%" y2="100%" id="ssspill-grad"><stop stop-color="hsl(37, 99%, 67%)" stop-opacity="1" offset="45%"></stop><stop stop-color="hsl(316, 73%, 52%)" stop-opacity="1" offset="100%"></stop></linearGradient><filter id="ssspot-filter" x="-20%" y="-20%" width="140%" height="140%" filterUnits="objectBoundingBox" primitiveUnits="userSpaceOnUse" color-interpolation-filters="sRGB">
	<feTurbulence type="turbulence" baseFrequency="0.022 0.218" numOctaves="2" seed="2" stitchTiles="stitch" x="0%" y="0%" width="100%" height="100%" result="turbulence"></feTurbulence>
	<feGaussianBlur stdDeviation="0 3" x="0%" y="0%" width="100%" height="100%" in="turbulence" edgeMode="duplicate" result="blur"></feGaussianBlur>
	<feDisplacementMap in="SourceGraphic" in2="blur" scale="32" xChannelSelector="R" yChannelSelector="B" x="0%" y="0%" width="100%" height="100%" result="displacementMap"></feDisplacementMap>
</filter></defs><rect width="100%" height="100%" fill="hsl(32, 100%, 89%)"></rect><g fill="url(#ssspill-grad)" filter="url(#ssspot-filter)"><circle r="8.59556666263354" cx="183.53157668761884" cy="69.5140330034298" opacity="0.7662673791442076"></circle><circle r="9.197366611767142" cx="163.67061048525957" cy="181.16239390215068" opacity="0.8734560663523337"></circle><circle r="8.123380969264236" cx="651.0678925660834" cy="68.23089230189935" opacity="0.7500023897588569"></circle><circle r="9.349497394852353" cx="690.8963378201224" cy="321.8179929597624" opacity="0.3181590371188286"></circle><circle r="5.84058894158282" cx="170.28598150454343" cy="373.6922521715723" opacity="0.6644162036749914"></circle><circle r="8.510105338638942" cx="678.8499952022627" cy="565.2471749668345" opacity="0.4620960159373446"></circle><circle r="10.154701310301302" cx="199.94220713853878" cy="703.179452622046" opacity="0.3151393768366664"></circle><circle r="6.775350233979723" cx="527.331235651379" cy="167.44442590559328" opacity="0.16832376192516896"></circle><circle r="8.207325355961693" cx="666.4889425727791" cy="125.52210866310257" opacity="0.10761786231378093"></circle><circle r="6.4235552858155875" cx="393.32269642295944" cy="313.97789810902805" opacity="0.37083935237280774"></circle><circle r="8.514977655090869" cx="216.79623785742746" cy="162.2755928329231" opacity="0.9111824487422802"></circle><circle r="8.782019916506721" cx="430.4681651773691" cy="331.53132828545876" opacity="0.5145831638155253"></circle><circle r="5.773809586574227" cx="721.9717527690085" cy="620.2231087872648" opacity="0.11969473004682545"></circle><circle r="8.817961873657325" cx="108.71503119316898" cy="775.4730974607888" opacity="0.5748647689316497"></circle><circle r="9.316946589923504" cx="720.7205141404146" cy="710.54813836852" opacity="0.7065466988472959"></circle><circle r="8.5086030163706" cx="739.8958400382131" cy="442.6715702056839" opacity="0.3870884576598481"></circle><circle r="3.8278360869181602" cx="467.4302151703189" cy="768.8242589664895" opacity="0.4678053410804405"></circle><circle r="5.114098743412784" cx="50.39416147409542" cy="506.87772924704035" opacity="0.6482160598514475"></circle><circle r="4.414193946237174" cx="526.2728632309593" cy="582.1542734353916" opacity="0.5716021404080183"></circle><circle r="7.470979521233959" cx="776.5237013676053" cy="467.4700725927706" opacity="0.7455829161494332"></circle><circle r="7.705884190881189" cx="439.7399930729354" cy="65.02960296201435" opacity="0.8286075022536785"></circle><circle r="10.200353866189012" cx="534.0393767495351" cy="661.6023112442185" opacity="0.7410858658368593"></circle><circle r="4.910417003475023" cx="608.7919961981295" cy="674.8771486765856" opacity="0.20628890828335159"></circle><circle r="9.401169225765432" cx="31.407782507263896" cy="208.1219335114232" opacity="0.3429555551988974"></circle><circle r="5.139868433348426" cx="136.62021084032096" cy="677.7230530988566" opacity="0.573162193912661"></circle><circle r="4.119296376289528" cx="425.4894772941225" cy="614.0392733387189" opacity="0.15208138017997425"></circle><circle r="5.118140464063473" cx="682.4151910194194" cy="633.8572241607172" opacity="0.7164715403494792"></circle><circle r="6.921698888495886" cx="315.4244678269608" cy="349.2567764267118" opacity="0.7634926544731211"></circle><circle r="7.909675217176893" cx="238.28048556039172" cy="546.1238947626465" opacity="0.25082503314858184"></circle><circle r="4.463020899413488" cx="192.22310058298203" cy="398.302000815171" opacity="0.4483612909922088"></circle><circle r="8.059461264569224" cx="762.809744309712" cy="178.02575279296826" opacity="0.9017291474087525"></circle><circle r="6.7009501750547695" cx="18.60637194003037" cy="531.1079429532642" opacity="0.3666454191400951"></circle><circle r="6.23097955071685" cx="235.07459221255056" cy="268.5303927477723" opacity="0.9522149264602793"></circle><circle r="6.654443975314809" cx="18.643313507863915" cy="26.6346187842421" opacity="0.2637467204918519"></circle><circle r="8.499129140487506" cx="54.51095992169521" cy="561.7674360153977" opacity="0.5306696689268996"></circle><circle r="5.943640665681968" cx="595.6510897567038" cy="482.5090660170536" opacity="0.74302596803671"></circle><circle r="6.9524589349801085" cx="259.75454607127534" cy="140.47849867601357" opacity="0.3672789947155892"></circle><circle r="7.577251151284242" cx="91.50667832642118" cy="242.1494047938612" opacity="0.2903973591254204"></circle><circle r="4.582388865528528" cx="761.0900373381345" cy="70.62781468525213" opacity="0.7235138629775446"></circle><circle r="10.095178514380418" cx="536.0844346952583" cy="344.92255676488924" opacity="0.24534595848325555"></circle><circle r="6.962534352294307" cx="460.7788354278121" cy="284.84978011177" opacity="0.3205324886961077"></circle><circle r="4.060815009433142" cx="11.539476827026379" cy="622.634377754769" opacity="0.1338124789652051"></circle><circle r="6.877309551558339" cx="344.9548193993805" cy="29.41329645037714" opacity="0.3147239202944942"></circle><circle r="7.604267265454254" cx="714.472477585761" cy="278.2101972197618" opacity="0.2832879451306902"></circle><circle r="9.561993390174926" cx="54.86994514933053" cy="296.28933038025764" opacity="0.5923801325242247"></circle><circle r="4.406364330612272" cx="58.54170438984085" cy="647.2861342292612" opacity="0.8635807380962757"></circle><circle r="7.827658223259839" cx="738.5412159222889" cy="228.67935854674823" opacity="0.31769195155549246"></circle><circle r="6.0478358767926705" cx="579.0245849167342" cy="131.9628325188956" opacity="0.2709650490868507"></circle><circle r="6.87443020462349" cx="72.70959035989131" cy="40.5467961898643" opacity="0.8757656932216241"></circle><circle r="4.774978221711594" cx="413.7038485435891" cy="510.597929908939" opacity="0.7990725804948822"></circle><circle r="9.129238475526716" cx="391.6623173600488" cy="225.5933189883871" opacity="0.5777496086224648"></circle><circle r="6.3694803724429185" cx="15.739779430052678" cy="297.489362687144" opacity="0.5504461997337945"></circle><circle r="5.810297629859481" cx="203.43018774831654" cy="273.3839132076092" opacity="0.45548477840716306"></circle><circle r="8.836044105343888" cx="616.0824545706038" cy="318.7647949376378" opacity="0.39851758134124693"></circle><circle r="5.333979889793018" cx="227.8203928013624" cy="309.8892222862789" opacity="0.772950148546529"></circle><circle r="6.489850675017764" cx="460.9298617587577" cy="535.2534964309908" opacity="0.28874615744544024"></circle><circle r="8.323944945722117" cx="631.3647913170023" cy="510.55880075724826" opacity="0.15546561460519093"></circle><circle r="5.369513538256451" cx="781.2162461497093" cy="17.991893071526796" opacity="0.5896884746122898"></circle><circle r="6.627914375572322" cx="64.97390688604402" cy="162.39860630713594" opacity="0.5585310207022008"></circle><circle r="8.031915206381527" cx="256.257762092226" cy="319.06064498650136" opacity="0.9798638694483048"></circle><circle r="4.976490888749102" cx="630.2919209601984" cy="106.72477240874962" opacity="0.9904472113560466"></circle><circle r="5.639499748444779" cx="428.3058844819337" cy="28.414058628951846" opacity="0.9288405502806837"></circle><circle r="5.679879927400147" cx="737.6073551446589" cy="535.014603374291" opacity="0.16971825299230267"></circle><circle r="5.381189436797216" cx="313.8997557625047" cy="679.4152150745655" opacity="0.845749095198677"></circle><circle r="8.185784450129358" cx="295.66224031326266" cy="311.1929806121803" opacity="0.2732923484820702"></circle><circle r="6.588957729625756" cx="340.4668248511867" cy="206.34148457195545" opacity="0.7394339458986505"></circle><circle r="9.299095960753625" cx="316.43842985450516" cy="509.4318515646964" opacity="0.7939149690610144"></circle><circle r="11.933857299079529" cx="79.16354557124679" cy="719.3156157121059" opacity="0.7399809568283089"></circle><circle r="8.03678370505623" cx="145.35551125530685" cy="405.0496011112076" opacity="0.1512500008383278"></circle><circle r="7.670795259429871" cx="177.01576936032586" cy="249.39036170547888" opacity="0.2632350479841281"></circle><circle r="7.545637814793173" cx="462.1525196739604" cy="651.2399505448656" opacity="0.2959420370833785"></circle><circle r="8.134242894857161" cx="344.7348814041015" cy="441.35334883059414" opacity="0.8972221521999691"></circle><circle r="8.417196086687213" cx="687.6363204268997" cy="736.527360076926" opacity="0.17336911092171103"></circle><circle r="5.894375297230187" cx="767.9125801353171" cy="107.69457556295308" opacity="0.220702474464533"></circle><circle r="6.652026610032433" cx="240.59498607209548" cy="652.4032932573298" opacity="0.2595084715550026"></circle><circle r="8.169822365894124" cx="262.89251075117323" cy="57.88861783963154" opacity="0.18188244436067136"></circle><circle r="3.219628539492961" cx="516.4837829313007" cy="555.7398815201886" opacity="0.1378628359196223"></circle><circle r="2.8604861635774563" cx="537.6486357996059" cy="761.436285212429" opacity="0.9522591557368993"></circle><circle r="9.900764673791612" cx="700.0678986367161" cy="80.79354055386787" opacity="0.10333622252569517"></circle><circle r="9.736386530156054" cx="77.38347024395935" cy="471.8424810355459" opacity="0.33396641887920875"></circle><circle r="5.968916266030668" cx="229.63815988966923" cy="358.6397055289325" opacity="0.8469319238575918"></circle><circle r="5.110016867221335" cx="434.04729544855655" cy="536.9459338363131" opacity="0.8573230946184319"></circle><circle r="5.683376439795341" cx="544.6747282905361" cy="620.7488925448438" opacity="0.9684487580371579"></circle><circle r="6.98006268592143" cx="598.3599745129976" cy="173.31241390851812" opacity="0.42101369881530015"></circle><circle r="6.635497799702858" cx="201.73209060562422" cy="110.4323800289004" opacity="0.6433394642909558"></circle><circle r="7.43835427656302" cx="733.060242039867" cy="116.35341720922499" opacity="0.9277304677599157"></circle><circle r="5.9058271396748125" cx="105.5788995077069" cy="439.28127795531725" opacity="0.6634351129603538"></circle><circle r="4.017506755438745" cx="345.0473113144654" cy="645.2147398481596" opacity="0.35953631180745316"></circle><circle r="7.807544317176465" cx="726.591904205315" cy="379.13066326141643" opacity="0.8416070356169449"></circle><circle r="6.587726749995294" cx="515.5658152009942" cy="531.3861527305091" opacity="0.7888254575654184"></circle><circle r="8.112061451447683" cx="19.09860033496465" cy="142.17793297773338" opacity="0.33360846004842315"></circle><circle r="4.531861762088134" cx="717.0489322082989" cy="144.7511565530071" opacity="0.44156113859394297"></circle><circle r="3.512655398448558" cx="477.50839488921554" cy="615.5850726853078" opacity="0.7605170093218003"></circle><circle r="3.2191323510858556" cx="553.735946009777" cy="591.2691241711558" opacity="0.5348154688118052"></circle><circle r="4.951830505555119" cx="379.03935644462797" cy="553.6358925838754" opacity="0.656646497974593"></circle><circle r="5.9707810501627545" cx="715.3366371203575" cy="477.2721608794056" opacity="0.6552982925436887"></circle><circle r="11.20218385606072" cx="250.1221768942067" cy="734.9695898163309" opacity="0.1841562175324668"></circle><circle r="8.351584713483136" cx="140.5619219846696" cy="747.2311084915804" opacity="0.4619907475417301"></circle><circle r="6.296719604430752" cx="526.594421288116" cy="398.3619678895666" opacity="0.6584471377182616"></circle><circle r="5.087152127192357" cx="418.46795456462746" cy="95.8487764181735" opacity="0.2013618540423126"></circle><circle r="8.543669377758775" cx="276.4654058345623" cy="531.6229259262335" opacity="0.9773092012837262"></circle><circle r="4.906105294359327" cx="40.46101833651132" cy="620.3150070913903" opacity="0.3587516467715339"></circle><circle r="8.066278453743308" cx="348.8521687860382" cy="319.1984696093493" opacity="0.5472665086788624"></circle><circle r="8.933200623787673" cx="520.5151880103243" cy="496.22985555709744" opacity="0.792761242710414"></circle><circle r="13.608552547778668" cx="440.4446891032119" cy="380.8097560467279" opacity="0.5254622567858799"></circle><circle r="5.983177054132597" cx="179.82616421969678" cy="473.74388993125143" opacity="0.7584344172381499"></circle><circle r="10.895822902890293" cx="275.58124563570925" cy="184.21396470209828" opacity="0.9500203529886906"></circle><circle r="7.086586073901193" cx="84.18158374931231" cy="397.80316071100884" opacity="0.42834608186188416"></circle><circle r="4.347377968410791" cx="720.9670940333915" cy="589.6340806210719" opacity="0.28255113754368183"></circle><circle r="12.29027536359768" cx="481.4856873457852" cy="418.90134401271587" opacity="0.2968183720840676"></circle><circle r="8.881407576522893" cx="668.6938594649096" cy="525.6553097251003" opacity="0.3176223449656569"></circle><circle r="5.68006076310618" cx="735.1186887155894" cy="51.41815686679393" opacity="0.9670730788770918"></circle><circle r="4.130010883217056" cx="369.94289365523065" cy="627.2216936501292" opacity="0.8332007864081298"></circle><circle r="9.337173819830412" cx="354.7172420162106" cy="131.27308470503132" opacity="0.28726177028464717"></circle><circle r="7.46348777355373" cx="403.5766701535917" cy="481.06447421292506" opacity="0.7383996775662135"></circle><circle r="6.330989000021038" cx="140.0610712562251" cy="93.80591667976137" opacity="0.7659890580258297"></circle><circle r="4.640936119096981" cx="659.991616354665" cy="398.86571320849606" opacity="0.7099554067322701"></circle><circle r="2.600032255693295" cx="768.4815690513387" cy="587.3477367125759" opacity="0.9729975203642902"></circle><circle r="6.393417367329518" cx="115.31712320607984" cy="517.0948735782066" opacity="0.652051622183649"></circle><circle r="7.607798932753992" cx="138.72205058246107" cy="564.2384780612728" opacity="0.8030684947911524"></circle><circle r="8.933288579124408" cx="256.09831775885255" cy="778.3056385801054" opacity="0.9191730384494965"></circle><circle r="6.1211241589616785" cx="401.56019734482135" cy="44.34271259629191" opacity="0.32117518288538105"></circle><circle r="9.831342996385398" cx="581.5462086434222" cy="353.30010563323975" opacity="0.17883184465036586"></circle><circle r="8.304339345495713" cx="308.809120561395" cy="138.86213653376743" opacity="0.48024761108388314"></circle><circle r="7.522912623001638" cx="533.7915100980221" cy="292.9063625120883" opacity="0.9895683181863058"></circle><circle r="7.476675069030813" cx="300.7264269354275" cy="778.1883707093292" opacity="0.7700264992316197"></circle><circle r="5.035732108488658" cx="162.79438075705733" cy="650.5894176197512" opacity="0.945901034585679"></circle><circle r="10.432395740659477" cx="160.02174515405434" cy="528.8221029897683" opacity="0.6633963689686933"></circle><circle r="6.631987214502113" cx="651.925059927906" cy="716.5521785090418" opacity="0.597263262904821"></circle><circle r="10.771181164605462" cx="266.3006085958359" cy="359.64987953811124" opacity="0.9096569845193138"></circle><circle r="6.901896075498511" cx="706.4417735824558" cy="410.18820907783225" opacity="0.10508894597454771"></circle><circle r="6.132482690385384" cx="60.13167585189943" cy="774.7547485058672" opacity="0.10221737712553489"></circle><circle r="6.061384895699218" cx="495.26618659693304" cy="767.1388960699308" opacity="0.8545619302545331"></circle><circle r="8.487414838126831" cx="386.1184968549392" cy="100.95069387220963" opacity="0.18344132767170174"></circle><circle r="8.25774984504304" cx="728.1914002173057" cy="333.78005455538425" opacity="0.8032878427241117"></circle><circle r="4.806385870504167" cx="789.5775087689157" cy="597.7958299946289" opacity="0.9103559680696537"></circle><circle r="6.760518862269279" cx="110.62753397296619" cy="651.9685183333665" opacity="0.3118151374476036"></circle><circle r="5.521903792739767" cx="18.85881343219676" cy="776.5541131903649" opacity="0.6897862662402648"></circle><circle r="6.819338446969939" cx="688.8215523175725" cy="777.2501645820702" opacity="0.7273931358093989"></circle><circle r="4.027078060532176" cx="141.33259982716413" cy="361.2286253490743" opacity="0.7801459999257099"></circle><circle r="6.9759658508966815" cx="22.89466564154344" cy="75.00943254629927" opacity="0.6656142530282511"></circle><circle r="7.19952266242245" cx="601.7463045413174" cy="62.85039371366568" opacity="0.32177097825106893"></circle><circle r="8.686911386474774" cx="97.08537344446763" cy="296.4097890234566" opacity="0.11804098705631282"></circle><circle r="5.687640283185084" cx="717.8584470636428" cy="563.1542938328116" opacity="0.25886044628994376"></circle><circle r="5.775383329523892" cx="271.51274604428346" cy="15.30565304527244" opacity="0.63241746599476"></circle><circle r="9.530543339644236" cx="22.441650074038392" cy="582.2551688439952" opacity="0.3054238129916143"></circle><circle r="10.118813276870306" cx="487.81285086609967" cy="465.2885095358994" opacity="0.8794025240972779"></circle><circle r="6.943429532540414" cx="759.9565858498726" cy="635.1409892001828" opacity="0.5175077151226195"></circle><circle r="6.048419258529419" cx="112.58317535020853" cy="15.986959549280963" opacity="0.7290153506102915"></circle><circle r="9.793766258801885" cx="429.59771198547867" cy="779.3428417746551" opacity="0.4190556024879083"></circle><circle r="4.938992149759617" cx="548.1985759905718" cy="712.1316954225034" opacity="0.48734464239327724"></circle><circle r="5.961733529357813" cx="379.0618219758095" cy="61.36983591389428" opacity="0.35963775842622503"></circle><circle r="7.663112146499997" cx="439.04485617729637" cy="141.82734896245694" opacity="0.6309310913589556"></circle><circle r="6.933876075908149" cx="230.78506956005515" cy="464.9310303087739" opacity="0.30715869186079015"></circle><circle r="6.674420837302053" cx="565.5826878229901" cy="51.264423449610426" opacity="0.25193960532202436"></circle><circle r="11.9702992130614" cx="308.78505323618674" cy="393.21515228561583" opacity="0.2969782288890037"></circle><circle r="5.384283805197969" cx="482.6137007362519" cy="34.26038828497865" opacity="0.15659880267034682"></circle><circle r="11.899856186155318" cx="575.9427635805746" cy="416.2642950668707" opacity="0.5466203751635222"></circle><circle r="7.569396674816275" cx="93.3735715331323" cy="563.636519256859" opacity="0.570643962734312"></circle><circle r="6.436637463437806" cx="134.19365118048856" cy="274.6504067061612" opacity="0.5721524324574147"></circle><circle r="5.667093470544747" cx="81.26691456161606" cy="673.913062466238" opacity="0.3775983096821335"></circle><circle r="8.811159941453552" cx="381.31725406101947" cy="179.0191755080952" opacity="0.41900634380497337"></circle><circle r="10.09543787000193" cx="501.18817258934325" cy="218.50446754619063" opacity="0.6212362170589463"></circle><circle r="8.042460215500453" cx="101.32580375158454" cy="121.13374836128219" opacity="0.7718078497561615"></circle><circle r="4.415602474637775" cx="760.9962927661948" cy="386.0005716404502" opacity="0.14522908324686312"></circle><circle r="8.00083194762403" cx="724.3035969083176" cy="666.5677906944147" opacity="0.8098137049397887"></circle><circle r="5.426214410373633" cx="350.99395292821447" cy="679.8078601896192" opacity="0.37996738224174353"></circle><circle r="7.6185087599899495" cx="560.4320392054466" cy="15.876562771341058" opacity="0.9153415992008245"></circle><circle r="11.767441578015823" cx="484.8670039747021" cy="352.5537385966467" opacity="0.3356950841246644"></circle><circle r="6.095047213925296" cx="403.7402827839337" cy="686.3578395146689" opacity="0.6499515566690205"></circle><circle r="6.572441803412485" cx="64.12085641361308" cy="340.52491621750323" opacity="0.9754521656472946"></circle><circle r="3.4528172504544523" cx="469.54516468109443" cy="792.091147697875" opacity="0.1500076372133068"></circle><circle r="4.688265969892322" cx="55.98543482801376" cy="14.742787281783365" opacity="0.14466484598022128"></circle><circle r="7.2215959067395525" cx="593.3708494517294" cy="105.43078322913507" opacity="0.5079834516554614"></circle><circle r="6.189383971926603" cx="490.6111587938466" cy="684.0703358625041" opacity="0.6537752821525943"></circle><circle r="4.023034240110437" cx="412.90304986377635" cy="573.8278015606951" opacity="0.8385460052225937"></circle><circle r="4.046118552205588" cx="526.4039362250232" cy="742.5085763542394" opacity="0.7097421570266044"></circle><circle r="8.97181421073881" cx="489.0340323989583" cy="78.93772451870572" opacity="0.33091230103459346"></circle><circle r="4.078038320926954" cx="470.3682565333118" cy="593.3999464978587" opacity="0.29773611422967294"></circle><circle r="5.6623416019570785" cx="242.25062774316217" cy="95.72300882972415" opacity="0.4308142825156537"></circle><circle r="5.682578616542969" cx="145.22393060736943" cy="45.58923015010676" opacity="0.8772901687346943"></circle><circle r="6.876395727755272" cx="110.2511347289551" cy="337.7727836222597" opacity="0.138860117010748"></circle><circle r="5.440761643477515" cx="549.692141142962" cy="787.0755301502151" opacity="0.632611447442498"></circle><circle r="6.066178645572555" cx="200.48275568439436" cy="565.2244869842528" opacity="0.8247573120158153"></circle><circle r="5.687793167603061" cx="780.9904275774637" cy="230.21901455006804" opacity="0.6425150101287688"></circle><circle r="5.740001667599989" cx="398.14684881706745" cy="139.54820099911524" opacity="0.5150616473916295"></circle><circle r="5.010855679051998" cx="640.6522626636324" cy="434.7537468737205" opacity="0.5273648306461023"></circle><circle r="4.560633936958476" cx="559.244089953677" cy="151.1462075429138" opacity="0.9726821966457524"></circle><circle r="6.353758529527323" cx="486.7004950351934" cy="723.7958091567092" opacity="0.48079684080503304"></circle><circle r="5.702252961021918" cx="199.05834653254038" cy="317.8207538572755" opacity="0.6654729058611312"></circle><circle r="6.221744198903624" cx="660.7310093378903" cy="284.69174665930086" opacity="0.1399146920600799"></circle><circle r="11.789996105110735" cx="21.891630183325162" cy="470.37131891939237" opacity="0.20943048830802696"></circle><circle r="9.444300521821678" cx="134.74099787308475" cy="144.50898154089566" opacity="0.20397343807596965"></circle><circle r="6.193016537673549" cx="343.97670742761545" cy="89.88295645726157" opacity="0.19435625908187712"></circle><circle r="5.8440340470390115" cx="141.13178431605579" cy="707.8514711478665" opacity="0.9938360733299807"></circle><circle r="6.301596741478274" cx="332.14073920786865" cy="607.5725507275641" opacity="0.18365353240153126"></circle><circle r="5.657438478724245" cx="332.1146897852811" cy="168.78827658845245" opacity="0.7677810675241084"></circle><circle r="8.771781965819606" cx="262.61921671376354" cy="488.4021761885046" opacity="0.714708604867255"></circle><circle r="6.954645202178172" cx="343.091937662389" cy="567.8037933371768" opacity="0.6591551807456634"></circle><circle r="4.259207685076955" cx="162.45612252646475" cy="339.5523200945373" opacity="0.8579243711803765"></circle><circle r="11.774926917920759" cx="451.7927611966156" cy="241.30922784606898" opacity="0.16199455887902037"></circle><circle r="7.904159805634766" cx="36.922754623336395" cy="690.5825743620547" opacity="0.6076387650037879"></circle><circle r="4.994095888162178" cx="429.92958877849776" cy="651.5076760255639" opacity="0.5728702766834751"></circle><circle r="6.78014623691204" cx="268.51410000913154" cy="277.43742404784985" opacity="0.18075243519095135"></circle><circle r="7.916391125968326" cx="152.8471790420634" cy="440.15636948691173" opacity="0.8628800906338068"></circle><circle r="9.505009094108711" cx="295.7399279647033" cy="98.333937922428" opacity="0.9158242028873964"></circle><circle r="7.295197103339779" cx="444.3994130809264" cy="474.49610978281555" opacity="0.11076730922741175"></circle><circle r="5.8327421621886515" cx="306.98495754434106" cy="271.9247717671975" opacity="0.24013350702327468"></circle><circle r="4.560508266691532" cx="789.4729047895753" cy="84.97838881131885" opacity="0.3147862834656848"></circle><circle r="11.032244921309882" cx="686.0640262441603" cy="24.74052181756775" opacity="0.7505513030106971"></circle><circle r="3.7947227783068387" cx="518.9312139339675" cy="612.5986653777345" opacity="0.30765191037255246"></circle><circle r="7.52092753177053" cx="203.98962242518178" cy="638.0014828001945" opacity="0.6282760657155205"></circle><circle r="5.471582510968823" cx="55.91472414295948" cy="113.29099378531116" opacity="0.1326378063978696"></circle><circle r="7.837788605502397" cx="640.073503483588" cy="189.7565845159293" opacity="0.3980975116003007"></circle><circle r="7.332609686336976" cx="647.1927025779426" cy="472.14634418077804" opacity="0.9165671849351326"></circle><circle r="5.652500148235737" cx="162.08799998261992" cy="304.3836049304407" opacity="0.1287005241558498"></circle><circle r="4.845497133435551" cx="394.414032145555" cy="658.6123597387004" opacity="0.13783441943565025"></circle><circle r="8.49128562826565" cx="635.2645681539882" cy="640.5420604205843" opacity="0.5942536799757052"></circle><circle r="7.002623161196212" cx="583.0467621683523" cy="766.7993533322942" opacity="0.6871503030374435"></circle><circle r="8.870579830739297" cx="441.0549698989599" cy="699.0879182125652" opacity="0.6209251372497591"></circle><circle r="7.024015252301643" cx="101.5439543814979" cy="189.40307281180253" opacity="0.5768322896755733"></circle><circle r="4.0306515090989405" cx="401.2347529456961" cy="536.0341015179664" opacity="0.5072587134529927"></circle><circle r="7.952242094160688" cx="133.11947065131213" cy="481.87586467870955" opacity="0.6058940660727009"></circle><circle r="6.864850581272843" cx="358.51397880199215" cy="526.1973494514571" opacity="0.7761899586008691"></circle><circle r="7.300782231790038" cx="249.0353642233514" cy="231.0980771119173" opacity="0.4440738391258853"></circle><circle r="7.610270558978149" cx="550.6483798018085" cy="464.0902998601082" opacity="0.25690411237020516"></circle><circle r="10.185417812197453" cx="247.80906608602663" cy="406.6985862700789" opacity="0.7107418714371635"></circle><circle r="7.913822864607143" cx="776.5244913680551" cy="688.0792640300319" opacity="0.6043240172765566"></circle><circle r="7.206916654609936" cx="15.991036286034308" cy="664.8256634091343" opacity="0.14937199434959492"></circle><circle r="6.936037601897093" cx="571.8167244210144" cy="687.5824674542988" opacity="0.7837801575818244"></circle><circle r="5.741472275247512" cx="604.0315946103351" cy="544.4692569755534" opacity="0.8701689964267678"></circle><circle r="8.71503602382499" cx="124.58253704947332" cy="606.2391292308794" opacity="0.11047583335274534"></circle><circle r="6.7224692825373396" cx="643.9282582919363" cy="679.9176562272257" opacity="0.7232603680148366"></circle><circle r="7.062948310472683" cx="206.262391069824" cy="432.4026549818233" opacity="0.5474840102801344"></circle><circle r="10.112234358458672" cx="602.1954137232002" cy="223.2025620818073" opacity="0.30053124750723725"></circle><circle r="8.255649652726767" cx="623.4801573733439" cy="147.32929907953468" opacity="0.9584264666301423"></circle><circle r="6.721381801222041" cx="291.1287674027235" cy="445.1752769718518" opacity="0.5473566810460353"></circle><circle r="7.383723659046591" cx="769.8014078493704" cy="551.4922586245688" opacity="0.5644006863320029"></circle><circle r="5.9396818600977905" cx="288.78938105715014" cy="226.37987632420817" opacity="0.2982216995232188"></circle><circle r="9.175335197875718" cx="257.45963394732695" cy="594.6587801740632" opacity="0.2861682336179353"></circle><circle r="9.549949522919382" cx="773.3418919413563" cy="513.1552894781961" opacity="0.15412923181446506"></circle><circle r="7.6419167484532124" cx="69.17159575352598" cy="77.17745155731218" opacity="0.7899943768697246"></circle><circle r="4.145409768197709" cx="562.9082055361724" cy="576.7852476078822" opacity="0.6885931412223506"></circle><circle r="4.419379814437676" cx="746.2055976874999" cy="585.1963548895753" opacity="0.14754523634661745"></circle><circle r="10.562766039239762" cx="294.5358156764641" cy="636.626182018181" opacity="0.9048059480074162"></circle><circle r="11.449213418752235" cx="632.1163684323504" cy="773.7114076873356" opacity="0.7733616071708054"></circle><circle r="4.279809979071281" cx="710.6137538980704" cy="529.81102095053" opacity="0.7894824454989716"></circle><circle r="11.16326511721231" cx="144.06190868187068" cy="220.61491864007127" opacity="0.9642294903718855"></circle><circle r="5.883040914256534" cx="690.3599309073352" cy="599.8474210990701" opacity="0.10009117298394074"></circle><circle r="6.412074925204138" cx="173.35938581434533" cy="135.96031156646254" opacity="0.2946621632155866"></circle><circle r="7.289544413436375" cx="37.761732821065245" cy="427.52502854311086" opacity="0.8340653885856819"></circle><circle r="16.384249795713394" cx="761.4819838604717" cy="763.91873333184" opacity="0.9520629117119982"></circle><circle r="6.379497724628743" cx="515.8058379388169" cy="714.870375128445" opacity="0.20277396034657358"></circle><circle r="4.043786043245683" cx="200.01858648685308" cy="356.1778617616194" opacity="0.4837518687178508"></circle><circle r="6.553685629932465" cx="742.4312738957997" cy="16.082362849202013" opacity="0.21005439932608377"></circle><circle r="6.356851259705207" cx="635.6959894176427" cy="249.20457734974198" opacity="0.33885456036268535"></circle><circle r="7.698691990840036" cx="782.2980767322038" cy="413.5268176461002" opacity="0.5305648309572127"></circle><circle r="5.089544866686997" cx="779.8742913340075" cy="349.92692101657775" opacity="0.688927192954522"></circle><circle r="7.727886104143506" cx="81.51255299145008" cy="523.7130228977238" opacity="0.8330203189873645"></circle><circle r="5.499531304530519" cx="688.9486943464544" cy="446.7463243862087" opacity="0.2736469398022791"></circle><circle r="8.160420332511926" cx="214.96439391625893" cy="601.2608589740285" opacity="0.1152942376465292"></circle><circle r="10.949713736908446" cx="210.8408780661961" cy="209.5165741460782" opacity="0.6780199744367885"></circle><circle r="10.828178516657449" cx="489.07893903533244" cy="145.48718191899533" opacity="0.6501569844420254"></circle><circle r="6.26696479837527" cx="719.2826395039182" cy="190.84615632610326" opacity="0.5019747254884659"></circle><circle r="7.240071241506614" cx="24.647202413067202" cy="730.3604827376568" opacity="0.9091590846686809"></circle><circle r="5.621316130163661" cx="258.6718760774312" cy="681.8476218957401" opacity="0.8149848010469987"></circle><circle r="7.611125111129388" cx="107.19827153699192" cy="61.89125670550874" opacity="0.7147902114589877"></circle><circle r="7.445847153954325" cx="783.3850562153752" cy="147.03122429768388" opacity="0.8601894830342108"></circle><circle r="7.894219713097983" cx="318.9791061573368" cy="727.2933515484895" opacity="0.64498273225438"></circle><circle r="9.724788993092353" cx="523.2514151115361" cy="56.68771465618538" opacity="0.5282932815201907"></circle><circle r="9.757153588285966" cx="540.1556953707277" cy="102.03477193051864" opacity="0.611773432369959"></circle><circle r="5.7993678612047175" cx="618.2649197991237" cy="390.6044499855872" opacity="0.9183683354892146"></circle><circle r="7.232124360216453" cx="364.32091439570246" cy="484.84963226141195" opacity="0.18701031397218654"></circle><circle r="4.2676260880586305" cx="546.4150063105614" cy="550.0804042944253" opacity="0.1149946363210486"></circle><circle r="6.99356657727078" cx="648.1729446622252" cy="603.1253906155464" opacity="0.622173961331678"></circle><circle r="6.201527130486315" cx="80.54207982918955" cy="609.3704287128977" opacity="0.8604913803422399"></circle><circle r="5.520984139366397" cx="680.8604945821595" cy="672.0745698269998" opacity="0.36136017119335284"></circle><circle r="5.864426298578908" cx="682.3988496414886" cy="161.6571033543892" opacity="0.9570624331034004"></circle><circle r="6.831518972094451" cx="562.2330831868748" cy="202.62107928117567" opacity="0.814642425598374"></circle><circle r="5.549200322901485" cx="622.7075690182087" cy="20.077553304065923" opacity="0.924643005495054"></circle><circle r="5.240853132288115" cx="581.9170893283663" cy="566.5714119742657" opacity="0.6247864523878242"></circle><circle r="6.016944622800767" cx="704.9968725122583" cy="501.5884127719896" opacity="0.3915029735152947"></circle><circle r="6.9334570739732495" cx="460.1362941280549" cy="104.11235749904127" opacity="0.6428201558760392"></circle><circle r="8.005932674936645" cx="204.21896610755036" cy="515.0195808098356" opacity="0.35512771289616796"></circle><circle r="8.548563560159925" cx="115.45132061658072" cy="379.1929412724302" opacity="0.24586900253469304"></circle><circle r="9.164206515491584" cx="410.94792858048567" cy="739.854334233111" opacity="0.5394498189734949"></circle><circle r="4.677479326247527" cx="786.4931652430549" cy="46.81894627134256" opacity="0.32324247513114046"></circle><circle r="7.206085700445778" cx="32.53969813739907" cy="386.91489248916065" opacity="0.47822852426090456"></circle><circle r="7.29365460123357" cx="603.9414305205551" cy="601.1564103307946" opacity="0.5779109756808544"></circle><circle r="10.763226962695994" cx="375.0700214578852" cy="379.0499189027799" opacity="0.16684537301504881"></circle><circle r="9.138006340386532" cx="548.8615226356171" cy="249.79850296876754" opacity="0.6791541027799599"></circle><circle r="9.079590117642173" cx="284.5981754887375" cy="700.8676710877937" opacity="0.5075559860867439"></circle><circle r="3.583103299190881" cx="497.3632617851281" cy="574.7863140367566" opacity="0.9760653934271408"></circle><circle r="7.050329115184487" cx="690.223878842669" cy="238.24355780623264" opacity="0.10209492894165309"></circle><circle r="11.839458297000446" cx="408.97922120589567" cy="431.12807116863695" opacity="0.8436048897986341"></circle><circle r="3.9106444908759643" cx="471.92118828173136" cy="562.4422851386051" opacity="0.4408019705065691"></circle><circle r="6.447661820082043" cx="325.8906715337357" cy="236.09687286234603" opacity="0.5528952309171746"></circle><circle r="8.903910274262959" cx="401.75847708785614" cy="268.9282487592173" opacity="0.6444847976408515"></circle><circle r="6.728963411954459" cx="439.5421139845642" cy="188.98475015697355" opacity="0.22964117196890652"></circle><circle r="5.757800518773599" cx="769.9803121347694" cy="314.93032769466527" opacity="0.7457319632400217"></circle><circle r="8.525811108278846" cx="19.20038873653253" cy="348.09069034577163" opacity="0.5650565062890274"></circle><circle r="9.038475358179738" cx="767.1779540028402" cy="278.9592009007721" opacity="0.2708960938760281"></circle><circle r="5.957545197727184" cx="337.35546345661845" cy="768.3799058354547" opacity="0.15781075290706284"></circle><circle r="7.839974692708539" cx="372.1938615022584" cy="714.5024471760661" opacity="0.22444105832231176"></circle><circle r="5.297099208064128" cx="176.63524539918635" cy="17.31697827164241" opacity="0.8917892566193654"></circle><circle r="8.80892538200014" cx="493.78574472772675" cy="306.12112727600277" opacity="0.9917010486830227"></circle><circle r="8.329781043689705" cx="681.2943929801461" cy="367.6228575035605" opacity="0.9281116757303796"></circle><circle r="3.9569891089268925" cx="392.8624339246507" cy="12.109327716157885" opacity="0.4426023449136036"></circle><circle r="6.464351622353758" cx="481.24258595067727" cy="513.9887487597158" opacity="0.3059926130968887"></circle><circle r="8.730915420031314" cx="675.975416081441" cy="201.9328777174917" opacity="0.28815465250160577"></circle><circle r="9.376000497872143" cx="582.571690801137" cy="641.69814382564" opacity="0.10798709803127506"></circle><circle r="9.02206724974512" cx="604.471745786571" cy="723.285308775486" opacity="0.9373093912438724"></circle><circle r="4.674544072914519" cx="396.37603877245584" cy="627.0083313462136" opacity="0.8742512822269547"></circle><circle r="11.418006601980387" cx="191.60583194185546" cy="771.3191492928536" opacity="0.9837427629762762"></circle><circle r="5.626155475495833" cx="307.25883661862287" cy="45.713847178021446" opacity="0.18772140057497766"></circle><circle r="10.605279228148856" cx="635.0698707208759" cy="564.1308743754695" opacity="0.5671843151355435"></circle><circle r="10.39341506644996" cx="298.81496037512056" cy="577.6606884657267" opacity="0.2382138491041491"></circle><circle r="6.288040762758386" cx="382.46276343529536" cy="589.8425773988126" opacity="0.10202981807280798"></circle><circle r="11.822484679147578" cx="220.58087707020667" cy="35.847378686437" opacity="0.415372974816577"></circle><circle r="3.3575323197365234" cx="568.9134204335768" cy="610.435850473655" opacity="0.937215291978742"></circle><circle r="8.348254053124379" cx="34.830357586935015" cy="255.72666049573246" opacity="0.6103896861733843"></circle><circle r="4.921730405989593" cx="500.61023296198016" cy="639.7055532373053" opacity="0.40840644005666393"></circle><circle r="6.81656321880665" cx="458.3154288106075" cy="738.0170353765794" opacity="0.5540933920337675"></circle><circle r="6.188519538359682" cx="514.7777333224774" cy="15.606055258886864" opacity="0.5553309452471797"></circle><circle r="6.848822892664885" cx="351.5131657306893" cy="268.8581120047968" opacity="0.9786612180432959"></circle><circle r="8.884674761817045" cx="169.24794731748668" cy="599.6193039588878" opacity="0.3802829308559329"></circle><circle r="7.193098444933504" cx="456.9239291522167" cy="17.254664431049694" opacity="0.4253429390656307"></circle><circle r="5.511651621501495" cx="512.5023215082485" cy="787.4596139110756" opacity="0.8812840473543188"></circle><circle r="4.957094695268561" cx="441.95879736834485" cy="582.4043650964293" opacity="0.8284574712472035"></circle><circle r="5.604368662030532" cx="649.5590068288936" cy="338.5971402601909" opacity="0.767652849939875"></circle><circle r="8.0890291167692" cx="566.8706852034842" cy="522.9441937729505" opacity="0.6985813283799692"></circle><circle r="7.075403140176508" cx="586.8211409210693" cy="286.3802364055655" opacity="0.4489350239669899"></circle><circle r="6.446864566325507" cx="378.53299075755587" cy="774.4131274944334" opacity="0.7093611580342541"></circle></g></svg>