<svg xmlns="http://www.w3.org/2000/svg" version="1.1" xmlns:xlink="http://www.w3.org/1999/xlink" xmlns:svgjs="http://svgjs.dev/svgjs" viewBox="0 0 800 800"><defs><filter id="ssspot-filter" x="-20%" y="-20%" width="140%" height="140%" filterUnits="objectBoundingBox" primitiveUnits="userSpaceOnUse" color-interpolation-filters="sRGB">
	<feTurbulence type="turbulence" baseFrequency="0.022 0.218" numOctaves="2" seed="156" stitchTiles="stitch" x="0%" y="0%" width="100%" height="100%" result="turbulence"></feTurbulence>
	<feGaussianBlur stdDeviation="0 3" x="0%" y="0%" width="100%" height="100%" in="turbulence" edgeMode="duplicate" result="blur"></feGaussianBlur>
	<feDisplacementMap in="SourceGraphic" in2="blur" scale="32" xChannelSelector="R" yChannelSelector="B" x="0%" y="0%" width="100%" height="100%" result="displacementMap"></feDisplacementMap>
</filter></defs><rect width="100%" height="100%" fill="hsl(32, 100%, 89%)"></rect><g fill="hsl(32, 100%, 51%)" filter="url(#ssspot-filter)"><circle r="6.226993972579624" cx="284.45975037656183" cy="783.6993419512694" opacity="0.2585496971164632"></circle><circle r="8.96455958320671" cx="724.7115987102972" cy="698.7441882854587" opacity="0.33310968751690406"></circle><circle r="6.937523831448084" cx="538.5400389397327" cy="452.76927991502436" opacity="0.9382271382685103"></circle><circle r="8.313097415423268" cx="578.5058236675559" cy="177.92307607713943" opacity="0.24332110927332393"></circle><circle r="4.4515145060455295" cx="133.18915525282586" cy="14.559983255525864" opacity="0.12738036709751438"></circle><circle r="6.916381519847828" cx="623.7939242227549" cy="407.76695464856374" opacity="0.7122079069391395"></circle><circle r="7.30722172015167" cx="445.5318813738526" cy="672.2476122730284" opacity="0.6575558856533211"></circle><circle r="9.079726409030592" cx="443.58388793693587" cy="21.059942771392897" opacity="0.3338926269626827"></circle><circle r="11.43959592403642" cx="361.6164026049287" cy="595.1888092446576" opacity="0.8672446187387697"></circle><circle r="5.521272034608312" cx="362.65185683675804" cy="116.3305235886985" opacity="0.45027539376250325"></circle><circle r="6.038684916399369" cx="267.99375478394217" cy="560.7328063648048" opacity="0.6161851286810976"></circle><circle r="11.76720710812857" cx="475.1917062913932" cy="724.3064707215956" opacity="0.331046070207701"></circle><circle r="6.606342462600814" cx="513.6329334454496" cy="572.6012930745549" opacity="0.5505996505839292"></circle><circle r="4.105250676518378" cx="204.38293642157058" cy="542.5225404365876" opacity="0.5597124343548544"></circle><circle r="7.082340717014715" cx="619.4449833342586" cy="137.89102858391706" opacity="0.4556104663206565"></circle><circle r="3.876182900829815" cx="766.8690024442675" cy="462.89481319348795" opacity="0.12779492131507772"></circle><circle r="7.283372424022602" cx="332.75196221720796" cy="686.7064159258265" opacity="0.5676940692763437"></circle><circle r="4.613858810577582" cx="783.1737749988264" cy="555.4983452027789" opacity="0.6123813604117251"></circle><circle r="8.961422652653205" cx="585.5758693121845" cy="780.0195953915114" opacity="0.6197897624394333"></circle><circle r="7.768473060052583" cx="576.0806997214374" cy="40.23316763512128" opacity="0.2752909725135886"></circle><circle r="6.002764197191857" cx="123.68336141964613" cy="602.614332996774" opacity="0.14995204793673528"></circle><circle r="8.648388437901401" cx="581.7444349664867" cy="346.7497430027434" opacity="0.11344982827136793"></circle><circle r="5.212248281571922" cx="194.10879482077206" cy="744.247984453531" opacity="0.24655924018041134"></circle><circle r="9.342781677267597" cx="625.7839619350286" cy="337.23950318517643" opacity="0.9588572720085444"></circle><circle r="7.922440563455895" cx="20.732246990410665" cy="509.76597539512653" opacity="0.8706599523926831"></circle><circle r="12.039688151190482" cx="76.60508933916229" cy="331.611144921777" opacity="0.9000875980456853"></circle><circle r="7.4411526455866355" cx="64.08501658406453" cy="762.1164188209676" opacity="0.6296135595460194"></circle><circle r="4.809332613271071" cx="484.8496328336457" cy="9.919753478771625" opacity="0.7866332405942235"></circle><circle r="6.105184155842309" cx="444.5809540930518" cy="628.0461704985743" opacity="0.5266021547904934"></circle><circle r="9.99944755163953" cx="448.1082860008642" cy="241.9012553153054" opacity="0.5469086653288789"></circle><circle r="4.2584934671176375" cx="788.7061405947233" cy="723.8976488329433" opacity="0.7453541933650113"></circle><circle r="6.952351099976088" cx="756.6679543992595" cy="81.24939043274601" opacity="0.42098795315080384"></circle><circle r="5.813684354257122" cx="685.2019854744739" cy="568.1182055056402" opacity="0.314510103096876"></circle><circle r="6.4406252479399555" cx="154.17012510598258" cy="560.4901519838702" opacity="0.9806588649391759"></circle><circle r="5.155030221248424" cx="580.209723156925" cy="305.3953600955021" opacity="0.7161030059651988"></circle><circle r="3.2373956833196447" cx="791.2352071645552" cy="444.2905603839951" opacity="0.6770181107119735"></circle><circle r="8.350890865921436" cx="312.66467799407883" cy="412.6310905896638" opacity="0.2765867414334583"></circle><circle r="8.708406181371133" cx="248.2855343838281" cy="112.56769945887358" opacity="0.24183709190232575"></circle><circle r="3.145669812294021" cx="200.77477850835916" cy="768.046848008941" opacity="0.5825971290484574"></circle><circle r="6.5152877937347515" cx="325.171214895555" cy="59.37134254824724" opacity="0.11709196185496558"></circle><circle r="9.903483504920377" cx="535.2384408770586" cy="71.95281608219933" opacity="0.9464721536675101"></circle><circle r="8.31061890937912" cx="381.31085913311716" cy="540.8979960395789" opacity="0.7368711541177343"></circle><circle r="4.300837824055922" cx="784.1564958194477" cy="772.3020525816864" opacity="0.6278913015045937"></circle><circle r="9.55024145660624" cx="226.88686599010063" cy="335.9288982136878" opacity="0.2870830817321797"></circle><circle r="5.269224718701671" cx="17.641203285522778" cy="16.642376960789772" opacity="0.46765912610088034"></circle><circle r="9.163940385944445" cx="13.824515606170737" cy="443.77383059763173" opacity="0.8400802423324356"></circle><circle r="6.8285583621483505" cx="348.1473270692088" cy="726.9723885721282" opacity="0.49029057750700433"></circle><circle r="8.32564679212895" cx="267.16594722694555" cy="731.7188902474718" opacity="0.8186062918375249"></circle><circle r="5.068191144692828" cx="471.0016632356316" cy="418.384768200148" opacity="0.4965976732958688"></circle><circle r="5.796928469104439" cx="372.13617861591865" cy="298.7096241698006" opacity="0.1612384555675809"></circle><circle r="5.740602830391386" cx="159.16298785248753" cy="729.7224864531082" opacity="0.48815096423841153"></circle><circle r="7.2985063062237945" cx="290.267130981923" cy="102.0710645881038" opacity="0.8607400292712983"></circle><circle r="8.78966035796132" cx="250.67544814611162" cy="593.0053481413032" opacity="0.23507036618186541"></circle><circle r="8.561565064985455" cx="496.1844176774527" cy="35.95331979356224" opacity="0.30495754326241287"></circle><circle r="7.795764616836455" cx="670.6887757432213" cy="276.23632841599397" opacity="0.18805935206068178"></circle><circle r="4.912018166135411" cx="498.657668148067" cy="622.1156844234955" opacity="0.10109101561991193"></circle><circle r="10.910409022016438" cx="423.54648180172416" cy="434.91206134794334" opacity="0.8906008008081037"></circle><circle r="6.649486047404517" cx="147.420265159231" cy="51.291253070539554" opacity="0.4031166078646936"></circle><circle r="7.073776769675606" cx="163.17412568381212" cy="454.06454162457806" opacity="0.7288945950959547"></circle><circle r="10.174433223267311" cx="621.3610315514287" cy="22.574389376085527" opacity="0.2578513628229833"></circle><circle r="9.515867715106205" cx="653.4279752994917" cy="376.283124545014" opacity="0.19897992300667544"></circle><circle r="8.089551638462506" cx="544.1876672773068" cy="203.55188224625948" opacity="0.7630767614818936"></circle><circle r="3.0716175321141925" cx="165.4866432976837" cy="179.37550829958428" opacity="0.6997078103307917"></circle><circle r="7.969487590856527" cx="332.1835850022656" cy="232.0369999578041" opacity="0.43981459036820636"></circle><circle r="6.974716029857922" cx="630.7475505968013" cy="285.34931412619915" opacity="0.5218843470665333"></circle><circle r="8.83885561742588" cx="194.53478315044183" cy="304.7043173949043" opacity="0.39463198509581743"></circle><circle r="8.481549159609353" cx="543.7482595107615" cy="360.72760293348915" opacity="0.7226843456371732"></circle><circle r="5.5099766103998284" cx="317.3590361939552" cy="365.5249680032245" opacity="0.8326539656277024"></circle><circle r="6.743482849866365" cx="477.0204303615839" cy="555.3013962448862" opacity="0.3675543422240023"></circle><circle r="5.763839813082945" cx="253.3999103556103" cy="519.6544404185565" opacity="0.14860099510510227"></circle><circle r="9.53334260864726" cx="267.5208165101002" cy="244.66343681347487" opacity="0.352576641880617"></circle><circle r="6.518086385451172" cx="665.5681021045201" cy="203.2309577863126" opacity="0.691403423139515"></circle><circle r="7.905310712047765" cx="681.0235329357171" cy="20.334528782591992" opacity="0.3869386055631139"></circle><circle r="6.834517579819656" cx="84.93524282850731" cy="527.4017888984104" opacity="0.9316708741952967"></circle><circle r="8.309249248756661" cx="778.6469051591923" cy="123.77516515845663" opacity="0.2810275135514583"></circle><circle r="10.637028794352009" cx="139.6890661173103" cy="95.74963538776849" opacity="0.33846044151162435"></circle><circle r="9.337451692359657" cx="676.2057416517339" cy="319.25165436242014" opacity="0.6157493907793676"></circle><circle r="7.575659736445209" cx="351.59395340472173" cy="267.015180708506" opacity="0.5693034370480515"></circle><circle r="9.986199731872938" cx="627.8922608452822" cy="538.1625448004468" opacity="0.8719470243022207"></circle><circle r="6.819045010576817" cx="559.0265143862256" cy="477.87977737088454" opacity="0.7313899534560692"></circle><circle r="5.824721267137104" cx="545.3000353516214" cy="581.1924864919869" opacity="0.8250594666444158"></circle><circle r="8.816938760167323" cx="19.69960232234565" cy="757.4608377807743" opacity="0.4422223438196402"></circle><circle r="11.859432903306757" cx="647.428755310128" cy="775.1409377181359" opacity="0.3414206777490042"></circle><circle r="6.431532427754011" cx="766.3322591516514" cy="363.83135088842147" opacity="0.38947563621168324"></circle><circle r="10.750982958056488" cx="112.29289721907354" cy="556.2285256405765" opacity="0.5125637996120092"></circle><circle r="2.67379878055867" cx="513.1564846354456" cy="640.8118800344183" opacity="0.23367789698256328"></circle><circle r="7.636535754550566" cx="109.39189738360548" cy="733.0482925711269" opacity="0.2159999690099072"></circle><circle r="8.654819552942582" cx="66.50285059595663" cy="618.1037573296117" opacity="0.16364494690684162"></circle><circle r="8.792319440944658" cx="62.93330672794775" cy="168.30980638017084" opacity="0.5746168352974144"></circle><circle r="4.925640051467856" cx="125.98359991001769" cy="456.0451046633049" opacity="0.13738493401734253"></circle><circle r="9.359638012441373" cx="720.2634770890028" cy="294.1284978894024" opacity="0.4620099968788065"></circle><circle r="3.55947728666454" cx="320.6254639851842" cy="744.4455552152008" opacity="0.9869733132580063"></circle><circle r="5.084705688519131" cx="357.845470220495" cy="783.3451399590892" opacity="0.31382086852439195"></circle><circle r="6.663899832002583" cx="386.11789871717144" cy="647.5970789218792" opacity="0.2355136725388346"></circle><circle r="6.757278863885736" cx="721.3683013977669" cy="253.551118821757" opacity="0.7971766709602346"></circle><circle r="8.815281635034093" cx="134.19485846092792" cy="135.64328888275494" opacity="0.3660242849310188"></circle><circle r="4.607859987262065" cx="401.21293396867827" cy="36.34645766377122" opacity="0.5210611655828371"></circle><circle r="4.769861805670714" cx="591.9001673040168" cy="244.6581381596835" opacity="0.8716895469968402"></circle><circle r="5.952373952394206" cx="199.75484582749752" cy="573.2747900963062" opacity="0.3308185372332316"></circle><circle r="8.496597810893471" cx="559.8207574797541" cy="120.57390621882212" opacity="0.6757441112005295"></circle><circle r="6.246242688013702" cx="74.64732790606075" cy="211.7038668499842" opacity="0.7337247432602384"></circle><circle r="10.351227831530633" cx="237.65003044322677" cy="274.7237617697496" opacity="0.8785665355833023"></circle><circle r="4.074281023588519" cx="622.1101012328331" cy="217.95510182870694" opacity="0.7353486415408016"></circle><circle r="11.079010896590809" cx="195.46840262294995" cy="83.53701713419835" opacity="0.7499705468432702"></circle><circle r="8.347812159584972" cx="533.230933516545" cy="301.480270533187" opacity="0.38869692552506463"></circle><circle r="8.388272765374673" cx="281.97427861309325" cy="339.73295970508906" opacity="0.6997732323367009"></circle><circle r="5.570214139176864" cx="176.36734994452516" cy="252.91411254560137" opacity="0.27097997057767287"></circle><circle r="7.57957276867398" cx="766.9187644869992" cy="424.9594381563594" opacity="0.4734919119678779"></circle><circle r="5.723794996089379" cx="486.46343288828376" cy="779.4587485516762" opacity="0.5435900637393755"></circle><circle r="6.6151596673298725" cx="22.66041728523696" cy="142.28965543286373" opacity="0.8126944602541774"></circle><circle r="6.200360339553069" cx="391.0277713731589" cy="395.06988768795935" opacity="0.37231806106286935"></circle><circle r="9.86045620249431" cx="614.3872854142419" cy="87.43272969887626" opacity="0.565371998351027"></circle><circle r="6.548214906967416" cx="48.041691288839395" cy="28.323889709507153" opacity="0.6294805914547223"></circle><circle r="5.980114487627351" cx="717.8271132908396" cy="526.7669125817525" opacity="0.5439511686051074"></circle><circle r="8.655648253581301" cx="707.8073453698903" cy="660.3065061556481" opacity="0.3396416580158099"></circle><circle r="6.7208305475898875" cx="730.5062049232836" cy="757.5959078777742" opacity="0.29881292116931457"></circle><circle r="6.209021200630428" cx="356.6773176112085" cy="146.93163340894674" opacity="0.7194441858415733"></circle><circle r="5.503780504962825" cx="48.23796956244254" cy="544.7737509214364" opacity="0.39569655987506347"></circle><circle r="5.616364835580224" cx="320.98310258751053" cy="162.51409428486753" opacity="0.9822488350575606"></circle><circle r="7.723519621190066" cx="676.127742742556" cy="713.6949746189421" opacity="0.7111898329482925"></circle><circle r="8.634263123912312" cx="694.7798783092446" cy="76.35275058548261" opacity="0.18088945475132528"></circle><circle r="4.808220928885788" cx="694.9238402141426" cy="208.81986256199173" opacity="0.6264734632917983"></circle><circle r="10.909982161337718" cx="738.834949748586" cy="157.93331588760395" opacity="0.33899930118304694"></circle><circle r="8.320385260990115" cx="183.83717731507696" cy="22.425241067897538" opacity="0.528002310729223"></circle><circle r="10.73142884134467" cx="677.826260783142" cy="127.20737928409862" opacity="0.29756453580716064"></circle><circle r="5.571752203650501" cx="594.5130828768248" cy="617.926468224651" opacity="0.6025881035410257"></circle><circle r="5.624268151257413" cx="193.29158664746956" cy="186.43642230141705" opacity="0.7603221854660451"></circle><circle r="5.5258148188015355" cx="750.3049117407079" cy="783.9795653583653" opacity="0.4752311800110083"></circle><circle r="7.773316492345636" cx="327.1932955925031" cy="121.21677549199072" opacity="0.9147834440584711"></circle><circle r="9.807984521753333" cx="121.49729436414204" cy="778.0418189161301" opacity="0.3511520129698349"></circle><circle r="8.092237517754084" cx="92.89105132579576" cy="439.7042779271679" opacity="0.3574387910275899"></circle><circle r="8.500452940588069" cx="772.25389242234" cy="663.163130750059" opacity="0.738566564859251"></circle><circle r="5.522666312850501" cx="786.103228714331" cy="208.14530510029078" opacity="0.5939686549176013"></circle><circle r="5.066705120746255" cx="404.823609942988" cy="298.01482379395935" opacity="0.8667887149919762"></circle><circle r="7.22345124553752" cx="384.34246092257354" cy="751.195944688446" opacity="0.6571332547381237"></circle><circle r="3.856483174008002" cx="297.31990920882265" cy="310.34243880119897" opacity="0.9765105992060575"></circle><circle r="9.449183925360675" cx="19.649268374852912" cy="251.34989375354928" opacity="0.41912806054101215"></circle><circle r="8.597105657665056" cx="284.0088878238843" cy="384.91462193326646" opacity="0.7399988384061007"></circle><circle r="6.762765678590905" cx="690.9501940943652" cy="170.90862629330195" opacity="0.5738603672417498"></circle><circle r="4.733673386639001" cx="392.8131014842108" cy="129.43785386409266" opacity="0.7857825401596547"></circle><circle r="8.817268133219699" cx="551.9053527121938" cy="702.9634006851483" opacity="0.9455597442032747"></circle><circle r="6.182456055729292" cx="54.90286162785951" cy="97.22413512441895" opacity="0.3442340468304948"></circle><circle r="7.193331559743358" cx="723.8256186117828" cy="210.6786083060808" opacity="0.3626400017797917"></circle><circle r="6.878337003880066" cx="401.02491601500174" cy="250.09014011490078" opacity="0.39468723687965723"></circle><circle r="11.091102167323776" cx="630.0056570770755" cy="585.2474341259634" opacity="0.1598413103693257"></circle><circle r="6.073107187170971" cx="21.203947722916226" cy="612.3383717956546" opacity="0.319356056888502"></circle><circle r="10.938074870380877" cx="281.84909864422025" cy="41.80541224179107" opacity="0.5689501358217101"></circle><circle r="11.711345679629432" cx="583.6376210155889" cy="543.4534227064732" opacity="0.4248151864473291"></circle><circle r="6.55912904815221" cx="297.8454175848005" cy="456.39926583518104" opacity="0.7851784517841084"></circle><circle r="4.475063648586416" cx="784.7344958672111" cy="244.18536954635547" opacity="0.9494023987062145"></circle><circle r="6.961837254444575" cx="104.352869540472" cy="169.31645203875595" opacity="0.8868149586382894"></circle><circle r="8.677427268822342" cx="77.18679663496671" cy="250.85742078261342" opacity="0.3800125840529257"></circle><circle r="8.052294498361551" cx="187.8905570802877" cy="641.2715350162197" opacity="0.21077432149244835"></circle><circle r="7.762518468279854" cx="766.0258482978071" cy="326.0994033773984" opacity="0.23444272528744892"></circle><circle r="4.087073864970729" cx="594.4551587766755" cy="277.7478803370309" opacity="0.18339815035754525"></circle><circle r="4.2185866808185" cx="701.2542488051638" cy="772.2877597681322" opacity="0.2577113715454984"></circle><circle r="4.911608826393091" cx="636.4000345256777" cy="175.12794252576603" opacity="0.18502708456833084"></circle><circle r="4.819613975769383" cx="339.14679870010457" cy="347.1905998300157" opacity="0.6790763895792902"></circle><circle r="5.654651680928679" cx="235.31137190209964" cy="750.2437285715667" opacity="0.9597018784014671"></circle><circle r="9.989515506394227" cx="128.32793265607185" cy="321.6615744625062" opacity="0.3851916485551008"></circle><circle r="9.57592589644852" cx="772.8871543026178" cy="283.55460692548496" opacity="0.47612862517362076"></circle><circle r="6.655282606673796" cx="142.6427795841122" cy="507.66419095803843" opacity="0.2940791342307033"></circle><circle r="5.344202342093556" cx="481.69831828096324" cy="514.2582207913865" opacity="0.8793856891005806"></circle><circle r="10.025897834696137" cx="153.638958821898" cy="408.74551726088185" opacity="0.5304379153136927"></circle><circle r="7.678568843347191" cx="478.98451301119707" cy="146.00096495577307" opacity="0.43703640536649824"></circle><circle r="5.529504090028702" cx="398.76276710223675" cy="503.1636081509247" opacity="0.3449436613390813"></circle><circle r="6.684609417000752" cx="18.554768679998286" cy="98.88315389362839" opacity="0.49277169311187297"></circle><circle r="4.723530668990053" cx="121.3349583503648" cy="231.92630681441486" opacity="0.6887702343978299"></circle><circle r="5.930124196355096" cx="448.61934484203465" cy="114.85840642180277" opacity="0.6141215769087449"></circle><circle r="10.69161091632062" cx="622.9831111952437" cy="728.7942929272232" opacity="0.303612704236767"></circle><circle r="8.582857850760949" cx="371.4966304233479" cy="349.26573098978866" opacity="0.6530252759038194"></circle><circle r="8.998908976752208" cx="229.21277774025833" cy="623.0480414997875" opacity="0.7746517402412638"></circle><circle r="9.542528286457454" cx="495.067869395536" cy="267.27869482777515" opacity="0.5685669615973851"></circle><circle r="6.45018168392498" cx="507.9925908967784" cy="427.39972639726614" opacity="0.6538282318283951"></circle><circle r="6.752212406664443" cx="250.25108302848054" cy="201.022292585905" opacity="0.8865250903223074"></circle><circle r="7.02576217802192" cx="192.75554631823573" cy="704.7502875816758" opacity="0.6607014121015727"></circle><circle r="4.615875089524532" cx="563.1886814934666" cy="604.0401437997494" opacity="0.6658252942427187"></circle><circle r="8.49217763260901" cx="654.9039291979118" cy="60.095107694303366" opacity="0.9911731750846188"></circle><circle r="7.833038906559987" cx="754.3178907259867" cy="199.09025846851026" opacity="0.3072258315594306"></circle><circle r="7.403779201043331" cx="546.3256365205362" cy="239.29166482472286" opacity="0.14578294612793333"></circle><circle r="7.3146092610347875" cx="535.495695220543" cy="19.383998981220067" opacity="0.2713594767819576"></circle><circle r="6.831852738726393" cx="599.615237281219" cy="208.25759889922864" opacity="0.47361513235652797"></circle><circle r="5.8089279011922486" cx="400.1794318663481" cy="569.6311857284038" opacity="0.7753512747296134"></circle><circle r="8.906170828911215" cx="116.88199883504821" cy="689.7349015237006" opacity="0.5775346379555895"></circle><circle r="7.328656798586399" cx="421.91651182637435" cy="154.37630873333063" opacity="0.8124343990737856"></circle><circle r="8.706287415604645" cx="95.72380817383996" cy="399.81635774498164" opacity="0.2386113399282688"></circle><circle r="8.806810252654188" cx="322.23234172164535" cy="641.4367272890005" opacity="0.541028591125691"></circle><circle r="5.096797726478049" cx="176.3184118153003" cy="335.66444319183915" opacity="0.7084587415083263"></circle><circle r="9.244544920996807" cx="150.70132645917317" cy="288.4943240252545" opacity="0.32403184034014504"></circle><circle r="6.018856052328151" cx="782.0877895478786" cy="170.38035743401323" opacity="0.5413275042243293"></circle><circle r="7.4615092335482585" cx="332.25657266983734" cy="571.6052331558516" opacity="0.7099904583743819"></circle><circle r="5.863822141528699" cx="139.87660623064943" cy="167.8050857830967" opacity="0.6599708211211481"></circle><circle r="9.04442825851862" cx="259.7277011217054" cy="664.8940377459245" opacity="0.19653685619122585"></circle><circle r="7.426793853094162" cx="227.6096704563972" cy="155.68758018824968" opacity="0.1952723900680281"></circle><circle r="5.26281808060391" cx="485.4660049840654" cy="597.6472011051782" opacity="0.8113572767691725"></circle><circle r="7.0504802040786565" cx="203.14435241737561" cy="416.7261488701344" opacity="0.17384911864220595"></circle><circle r="8.567066660182912" cx="726.5504025201174" cy="110.15562375134479" opacity="0.7051581554328503"></circle><circle r="12.60014741155734" cx="765.466334387311" cy="615.1145956244577" opacity="0.4229233440223308"></circle><circle r="4.980055401437691" cx="785.7906998487766" cy="62.883519072734536" opacity="0.4754995592136634"></circle><circle r="13.687399784088008" cx="64.11873796832401" cy="691.4742138894624" opacity="0.1018820990869804"></circle><circle r="5.620572846797924" cx="496.3322562039967" cy="96.32039996610678" opacity="0.2381708220257526"></circle><circle r="10.420017336270924" cx="386.86643715182805" cy="697.4044729416388" opacity="0.4341523874209937"></circle><circle r="7.593872522568962" cx="607.3692817098374" cy="454.0436704244236" opacity="0.9566195342746138"></circle><circle r="6.399673029210348" cx="432.11193343313386" cy="710.9637618311554" opacity="0.8683604499342504"></circle><circle r="6.158111453577439" cx="142.59537574067338" cy="650.2943959491461" opacity="0.8951370388353235"></circle><circle r="5.4876828828954896" cx="135.35474306581327" cy="202.36316074992612" opacity="0.4772209096152389"></circle><circle r="7.200664544142456" cx="291.6131093614034" cy="528.7301342558737" opacity="0.3259264575942892"></circle><circle r="8.15517318721616" cx="521.4175645455751" cy="748.4880273908035" opacity="0.7520290012832087"></circle><circle r="6.816211208836792" cx="21.398312476429616" cy="672.5041803544285" opacity="0.5179671939956803"></circle><circle r="3.9705491207495522" cx="693.2660204523129" cy="790.3846707755728" opacity="0.6455150530268765"></circle><circle r="9.06434858771843" cx="429.9707408951638" cy="63.54857281645665" opacity="0.7787522301719296"></circle><circle r="6.731693259362558" cx="251.67216505450338" cy="778.5503311778933" opacity="0.16408382648845965"></circle><circle r="8.046633917568007" cx="568.2365331668818" cy="741.9786174432485" opacity="0.8645457624984433"></circle><circle r="6.20733730766617" cx="547.9566655326523" cy="411.90720249459645" opacity="0.8862109100723737"></circle><circle r="6.88164483513955" cx="554.6553926448569" cy="269.7097479097815" opacity="0.7056828057861304"></circle><circle r="6.004724761737421" cx="192.23322318933867" cy="476.5019784560696" opacity="0.6881300029971801"></circle><circle r="7.684240336344487" cx="87.38546942887824" cy="484.3715255250402" opacity="0.4820994377175979"></circle><circle r="7.638000735546956" cx="546.6926355873354" cy="509.4149821944261" opacity="0.20303988942756596"></circle><circle r="9.219350529948244" cx="745.3782651310163" cy="559.0409828637005" opacity="0.14130548181435246"></circle><circle r="6.5115955334715085" cx="53.68603916488008" cy="440.73184335229433" opacity="0.7558305207785195"></circle><circle r="3.8396338164456383" cx="341.78220466468076" cy="86.72408667667827" opacity="0.5001294149185551"></circle><circle r="7.859674407340425" cx="583.9465602777591" cy="408.27231189909617" opacity="0.44858915397965515"></circle><circle r="7.214559001469685" cx="526.7351184755634" cy="537.6673472162373" opacity="0.9506849686068227"></circle><circle r="8.435140935206087" cx="499.87212710171224" cy="376.59104893561886" opacity="0.22023161167234742"></circle><circle r="5.90037017695982" cx="770.3723905621836" cy="34.190842194533424" opacity="0.6817226654769664"></circle><circle r="13.082596525995157" cx="24.372113468395103" cy="195.162130905595" opacity="0.9451464682313796"></circle><circle r="6.0558923756411325" cx="80.58971485975457" cy="130.1160748997882" opacity="0.8182588399517811"></circle><circle r="6.308017824631102" cx="249.30770304236074" cy="16.1803785291251" opacity="0.9851777459579739"></circle><circle r="7.692035280882148" cx="103.41260419945034" cy="281.67611026567823" opacity="0.3995748593260263"></circle><circle r="5.260763109734996" cx="302.4284873232468" cy="560.6123692844649" opacity="0.5519387234182123"></circle><circle r="7.888933687424519" cx="73.10820386524945" cy="61.017094679638866" opacity="0.44142735702196567"></circle><circle r="7.035081269785555" cx="164.33280952384598" cy="685.3625303499596" opacity="0.2940969654301709"></circle><circle r="5.251117896499312" cx="223.91191401368732" cy="721.935892925561" opacity="0.8492488359081972"></circle><circle r="8.64618078190605" cx="220.3525841898088" cy="682.0727544602755" opacity="0.33756427469666955"></circle><circle r="7.656952701393149" cx="21.578933160192165" cy="57.37961194615994" opacity="0.673029415611178"></circle><circle r="4.385059206771434" cx="626.6314266512231" cy="245.60515446141164" opacity="0.2706358089567231"></circle><circle r="6.012032589509025" cx="687.0195996055127" cy="407.9222321515746" opacity="0.34044234872613366"></circle><circle r="4.264920507862286" cx="750.8915963724193" cy="736.4940774407363" opacity="0.5766234555247419"></circle><circle r="8.599632154923217" cx="112.03905345936535" cy="366.14587922443997" opacity="0.6214088238940726"></circle><circle r="7.87091669687701" cx="500.5480252310463" cy="324.5967775926499" opacity="0.7889601193029688"></circle><circle r="8.097898085333473" cx="223.8029932075148" cy="46.33175581418819" opacity="0.16812845958999528"></circle><circle r="3.796069189193072" cx="389.48936195985794" cy="11.739496101503763" opacity="0.3093632051173424"></circle><circle r="8.38053531953375" cx="259.66782310118026" cy="307.3591202244636" opacity="0.3908938514524556"></circle><circle r="3.0170366144987164" cx="205.03511796991253" cy="787.0861341258747" opacity="0.8058005023803015"></circle><circle r="10.232494761286404" cx="500.438017634306" cy="476.4732768157781" opacity="0.18421534306288717"></circle><circle r="9.548538713089451" cx="433.2099189392739" cy="531.4901858460852" opacity="0.7569264414942893"></circle><circle r="6.65242183054625" cx="203.87257295274054" cy="376.31548728479083" opacity="0.7540959723552884"></circle><circle r="4.855353752074665" cx="416.3644310081356" cy="102.38476331216091" opacity="0.3510945088125871"></circle><circle r="7.052129899148162" cx="343.4032232734374" cy="467.13202956816014" opacity="0.40567905478261246"></circle><circle r="9.58802192766929" cx="175.01972213843607" cy="598.7526552337021" opacity="0.9500255660061925"></circle><circle r="7.5469279612765305" cx="717.7129412826638" cy="487.35082203606305" opacity="0.26402628669904166"></circle><circle r="7.281469806894087" cx="235.00359995161563" cy="554.2445561470984" opacity="0.6709604134975303"></circle><circle r="4.348887286107273" cx="772.7244693791498" cy="9.77831560312776" opacity="0.29947235294657776"></circle><circle r="6.502009986755867" cx="655.9985905684381" cy="241.22587997597762" opacity="0.526102737529055"></circle><circle r="10.065892733484743" cx="773.430966400351" cy="500.1307414147169" opacity="0.8097716059059921"></circle><circle r="8.425117691905033" cx="289.7517360781413" cy="698.9123215294557" opacity="0.3840634846027674"></circle><circle r="5.267777903044689" cx="315.19107440152345" cy="508.5770951873973" opacity="0.5891330704893512"></circle><circle r="10.084594851661215" cx="708.2987503954212" cy="355.0772075309677" opacity="0.17464495760190443"></circle><circle r="12.709745043743325" cx="25.6867008399551" cy="356.9023083967473" opacity="0.8383018630709227"></circle><circle r="3.868742690926476" cx="374.6936903918686" cy="95.50786100002163" opacity="0.2616219532723512"></circle><circle r="4.694052937860242" cx="150.94122008974335" cy="243.7260541104826" opacity="0.37538505947749157"></circle><circle r="8.113434915250222" cx="459.17187687007777" cy="466.20151551788064" opacity="0.3239105390814207"></circle><circle r="7.931676563661966" cx="387.4058288483707" cy="458.92367504388744" opacity="0.6522520218634756"></circle><circle r="2.4484260897952588" cx="227.6779469783291" cy="788.0246454960599" opacity="0.9109560918806887"></circle><circle r="9.36416661741338" cx="181.40534788938808" cy="129.3391340319835" opacity="0.30086138382688377"></circle><circle r="9.157532803453481" cx="362.985715424913" cy="216.2615313074017" opacity="0.25911317165084746"></circle><circle r="5.319295866984387" cx="429.4274816296504" cy="488.11935330222553" opacity="0.9607731935474282"></circle><circle r="8.59943184417843" cx="99.52652659420623" cy="640.8826313917253" opacity="0.25978906805902413"></circle><circle r="7.765688917932459" cx="521.8023619005742" cy="161.4884745365153" opacity="0.5564723362883249"></circle><circle r="5.644279875336565" cx="249.11595946202073" cy="370.13418581459064" opacity="0.5100040229961843"></circle><circle r="11.397854149454954" cx="731.7150269495484" cy="401.25039886280047" opacity="0.8291160773283671"></circle><circle r="5.078323934572394" cx="410.8044229278956" cy="605.1165828361892" opacity="0.40116229149157656"></circle><circle r="5.270900131027606" cx="697.612812500946" cy="743.6624108487176" opacity="0.32570794546701654"></circle><circle r="4.241854456259949" cx="320.91550644069247" cy="312.25400528899524" opacity="0.6817881383528595"></circle><circle r="6.260295230573827" cx="45.03012463311408" cy="477.76149036428666" opacity="0.2938622869410302"></circle><circle r="6.619138507103439" cx="660.1672041632548" cy="496.32471170269065" opacity="0.5348252433758748"></circle><circle r="6.939225677280666" cx="432.28963264718334" cy="327.63987157245174" opacity="0.5027948580876319"></circle><circle r="7.801214722545799" cx="203.6342214622237" cy="266.0244043918079" opacity="0.7832142981302618"></circle><circle r="8.38245826531244" cx="408.06788631703836" cy="350.2362706046919" opacity="0.17085662793062484"></circle><circle r="7.435765852023573" cx="299.79191676775565" cy="277.66894997528" opacity="0.40245468726230527"></circle><circle r="7.089762995718493" cx="578.2972675479741" cy="665.2127276134805" opacity="0.6989683072616443"></circle><circle r="4.9226984311558" cx="512.4553635758028" cy="690.214697290973" opacity="0.4410981463255951"></circle><circle r="4.642666451667753" cx="200.3922666986726" cy="512.5580875159975" opacity="0.6305095536130297"></circle><circle r="8.478760335708532" cx="334.3035376711213" cy="19.089162625916796" opacity="0.4536310203816777"></circle><circle r="3.9734096990894647" cx="376.3149364781434" cy="168.89465944244347" opacity="0.6046985351865541"></circle><circle r="10.23263044862685" cx="496.083774144022" cy="214.46792673187585" opacity="0.21845926901774376"></circle><circle r="6.156428406857956" cx="468.9322349186149" cy="62.122270075006334" opacity="0.8840508636432015"></circle><circle r="6.825384741871726" cx="32.88756114601361" cy="572.9329381510952" opacity="0.42562396612347286"></circle><circle r="9.120409680769054" cx="445.1102591575275" cy="576.3637523932586" opacity="0.6191795421728754"></circle><circle r="5.999723025326286" cx="687.7931871177861" cy="243.40760542209472" opacity="0.22786955150339333"></circle><circle r="7.955609174608128" cx="673.0874670042167" cy="452.07829086387306" opacity="0.12400762521404857"></circle><circle r="6.4576961704319515" cx="158.54523542909672" cy="366.3969406193278" opacity="0.47096930231831846"></circle><circle r="10.453640721642312" cx="38.2797387879126" cy="293.6847912966322" opacity="0.7831392023660891"></circle><circle r="7.659319377262015" cx="399.009559407206" cy="198.48299399014434" opacity="0.7828269155054358"></circle><circle r="4.64882212084915" cx="536.7108477076308" cy="651.5640561818939" opacity="0.8645491478827304"></circle><circle r="6.981430446520586" cx="167.7513516364375" cy="777.3012331381386" opacity="0.5867211731522145"></circle><circle r="5.70326620061407" cx="607.7364530134798" cy="494.5814751816701" opacity="0.6565781139164732"></circle><circle r="5.781331353252545" cx="370.4281697897667" cy="52.754777254469204" opacity="0.18033720740804243"></circle><circle r="5.543105586863179" cx="369.682879891179" cy="503.0555705355753" opacity="0.2465658842596338"></circle><circle r="6.294583646393928" cx="306.4672654266024" cy="768.589199730378" opacity="0.16287500470155952"></circle><circle r="9.063076593922979" cx="481.6595825750886" cy="663.4149030601059" opacity="0.8565543687056573"></circle><circle r="6.312746236471675" cx="102.53450863984285" cy="32.230526587943146" opacity="0.4588251062984533"></circle><circle r="5.836222099700687" cx="636.0564648502115" cy="633.3960329484162" opacity="0.9026214642869202"></circle><circle r="5.646585949605221" cx="254.23562686260948" cy="417.9753397737417" opacity="0.9751515861861493"></circle><circle r="6.700944255648042" cx="264.00122078266946" cy="483.893482928958" opacity="0.7259432987450147"></circle><circle r="6.889526279114948" cx="752.7591554857295" cy="238.997896450517" opacity="0.43052281081382027"></circle><circle r="9.357376142081652" cx="448.0575849402934" cy="192.82142216580908" opacity="0.704375098708347"></circle><circle r="7.8533856020567345" cx="766.7978726674534" cy="704.2372027706241" opacity="0.7725931180679261"></circle><circle r="7.735918681173322" cx="425.47136247405433" cy="768.2580237121007" opacity="0.82629595725238"></circle><circle r="7.121929451309995" cx="782.1534883786301" cy="395.0354273976183" opacity="0.16392722041899527"></circle><circle r="3.3909818826508844" cx="642.5303042971498" cy="211.85849422309258" opacity="0.26291729851303647"></circle><circle r="11.69114810740427" cx="712.7528097983188" cy="598.5954256212414" opacity="0.6111650617390546"></circle><circle r="8.954173446802402" cx="355.2271711037049" cy="415.0390063677431" opacity="0.7614071613866226"></circle><circle r="6.193692741380384" cx="228.78457859943825" cy="455.53681136002695" opacity="0.9868934476486418"></circle><circle r="6.083160199610914" cx="345.62155669712223" cy="520.4504953850832" opacity="0.9810655563137175"></circle><circle r="4.246981224010192" cx="393.92648849809785" cy="77.73877586558368" opacity="0.1380320274415342"></circle><circle r="5.379797015214708" cx="101.71827903618258" cy="86.38034715129817" opacity="0.5347939236175379"></circle><circle r="7.185060585568635" cx="207.15817690487023" cy="222.45496488458534" opacity="0.7155941009990707"></circle><circle r="6.540763707730079" cx="443.61746996484504" cy="284.2663835051291" opacity="0.17612727625065244"></circle><circle r="9.96244855090255" cx="677.8204093653137" cy="630.7734138815915" opacity="0.2755438980737479"></circle><circle r="6.372205154383846" cx="438.2340700415757" cy="389.7762181471921" opacity="0.97135374268383"></circle><circle r="4.914155181265516" cx="293.29358660550037" cy="184.9945726118308" opacity="0.8645233930888669"></circle><circle r="5.409225494552102" cx="344.7350132868557" cy="308.91042311508176" opacity="0.7153140109643734"></circle><circle r="6.409743833179787" cx="74.4306318702715" cy="15.864660264480792" opacity="0.6791963379451168"></circle><circle r="7.254114868342111" cx="633.5489719799375" cy="680.7114912598722" opacity="0.9469525823129372"></circle><circle r="7.162731339619188" cx="465.18983714163176" cy="312.39490927554164" opacity="0.7631467872569269"></circle><circle r="6.604312246021834" cx="290.0649856835653" cy="609.3415785491401" opacity="0.7533974167176247"></circle><circle r="6.232204668590899" cx="302.4933072743719" cy="235.89974552016085" opacity="0.6623864311107863"></circle><circle r="7.155860388524712" cx="666.6060552166136" cy="540.0587203322652" opacity="0.7556451234528048"></circle><circle r="8.529525325162384" cx="726.4977006312432" cy="31.08950811585536" opacity="0.6234461205019759"></circle><circle r="7.262617530568559" cx="729.5248323590283" cy="445.46233257571424" opacity="0.3056517028534672"></circle><circle r="5.074628838031456" cx="43.86754146258714" cy="402.41421294300557" opacity="0.3837740598422311"></circle><circle r="6.202016608400795" cx="459.65304414441374" cy="355.3656390905337" opacity="0.7340088111066088"></circle></g></svg>