<svg xmlns="http://www.w3.org/2000/svg" version="1.1" xmlns:xlink="http://www.w3.org/1999/xlink" xmlns:svgjs="http://svgjs.dev/svgjs" viewBox="0 0 800 800"><defs><filter id="uuunion-blur" x="-100%" y="-100%" width="400%" height="400%" color-interpolation-filters="sRGB">
        <feGaussianBlur in="SourceGraphic" stdDeviation="7.5 0" result="blur"></feGaussianBlur>
        <feDropShadow stdDeviation="12.307692307692308" in="blur" dx="10" dy="10" flood-color="hsl(316, 73%, 52%)" flood-opacity="0.25" x="0%" y="0%" width="100%" height="100%"></feDropShadow>
      </filter><filter id="uuunion-blur2" x="-100%" y="-100%" width="400%" height="400%" color-interpolation-filters="sRGB">
        <feGaussianBlur in="SourceGraphic" stdDeviation="7.5 0" result="blur"></feGaussianBlur>
        <feDropShadow stdDeviation="12.307692307692308" in="blur" dx="-10" dy="-10" flood-color="hsl(316, 73%, 52%)" flood-opacity="0.25" x="0%" y="0%" width="100%" height="100%"></feDropShadow>
      </filter><linearGradient gradientTransform="rotate(0, 0.5, 0.5)" x1="50%" y1="0%" x2="50%" y2="100%" id="uuunion-grad"><stop stop-color="hsl(37, 99%, 67%)" offset="10%"></stop><stop stop-color="hsl(316, 73%, 52%)" offset="90%"></stop></linearGradient><linearGradient gradientTransform="rotate(135, 0.5, 0.5)" x1="50%" y1="0%" x2="50%" y2="100%" id="uuunion-grad2"><stop stop-color="hsl(37, 99%, 67%)" offset="25%"></stop><stop stop-color="hsl(316, 73%, 52%)" offset="100%"></stop></linearGradient><linearGradient gradientTransform="rotate(333, 0.5, 0.5)" x1="50%" y1="0%" x2="50%" y2="100%" id="uuunion-grad3"><stop stop-color="hsl(37, 99%, 67%)" offset="0%"></stop><stop stop-color="hsl(316, 73%, 52%)" offset="75%"></stop></linearGradient></defs><path d="M-78.94 -82.88Q-64.32 -79.79 -49.7 -76.73 -35.07 -74.08 -20.45 -72.17 -5.83 -71.26 8.79 -71.44 23.41 -72.71 38.03 -74.89 52.65 -77.72 67.28 -80.84 81.9 -83.85 96.52 -86.37 111.14 -88.09 125.77 -88.79 140.39 -88.37 155.01 -86.9 169.63 -84.56 184.26 -81.64 198.88 -78.52 213.5 -75.58 228.12 -73.2 242.75 -71.67 257.37 -71.2 271.99 -71.83 286.62 -73.5 301.24 -75.99 315.86 -78.98 330.48 -82.1 345.11 -84.95 359.73 -87.18 374.35 -88.5 388.97 -88.75 403.6 -87.9 418.22 -86.04 432.84 -83.42 447.46 -80.37 462.09 -77.28 476.71 -74.52 491.33 -72.46 505.96 -71.35 520.58 -71.32 535.2 -72.4 549.82 -74.43 564.45 -77.16 579.07 -80.25 593.69 -83.31 608.31 -85.95 622.94 -87.84 637.56 -88.74 652.18 -88.53 666.8 -87.25 681.43 -85.05 696.05 -82.21 710.67 -79.1 725.3 -76.09 739.92 -73.58 754.54 -71.88 769.16 -71.2 783.79 -71.63 798.41 -73.12 813.03 -75.48 827.65 -78.4 842.28 -81.53 856.9 -84.46 855.94 -69.57 857.87 -54.69 862.47 -39.8 869.19 -24.92 877.2 -10.03 885.55 4.85 893.23 19.73 899.32 34.62 903.08 49.5 904.06 64.39 902.14 79.28 897.55 94.16 890.85 109.05 882.84 123.93 874.49 138.82 866.8 153.7 860.7 168.59 856.93 183.48 855.93 198.36 857.83 213.25 862.41 228.13 869.1 243.02 877.1 257.91 885.45 272.79 893.15 287.68 899.26 302.56 903.05 317.45 904.06 332.34 902.18 347.22 897.62 362.11 890.94 376.99 882.94 391.88 874.59 406.76 866.88 421.65 860.76 436.54 856.96 451.42 855.93 466.31 857.8 481.19 862.34 496.08 869.01 510.97 877 525.85 885.36 540.74 893.06 555.62 899.2 570.51 903.02 585.39 904.07 600.28 902.21 615.17 897.69 630.05 891.03 644.94 883.04 659.82 874.68 674.71 866.97 689.6 860.82 704.48 856.99 719.37 855.92 734.25 857.76 749.14 862.27 764.03 868.92 778.91 876.9 793.8 885.26 808.68 892.98 823.57 899.14 838.45 902.99 853.34 904.07 868.23 888.68 875.96 873.28 884.2 857.89 891.91 842.5 898.12 827.1 902.04 811.71 903.18 796.32 901.39 780.92 896.9 765.53 890.28 750.14 882.36 734.74 874.14 719.35 866.66 703.96 860.87 688.56 857.48 673.17 856.94 657.78 859.31 642.38 864.29 626.99 871.25 611.6 879.31 596.2 887.46 580.81 894.67 565.42 900.03 550.02 902.85 534.63 902.8 519.24 899.86 503.84 894.42 488.45 887.16 473.06 878.99 457.66 870.95 442.27 864.05 426.88 859.17 411.48 856.91 396.09 857.56 380.7 861.05 365.3 866.93 349.91 874.45 334.52 882.68 319.12 890.56 303.73 897.12 288.34 901.51 272.94 903.19 257.55 901.94 242.16 897.92 226.76 891.64 211.37 883.89 195.98 875.65 180.58 867.95 165.19 861.78 149.8 857.91 134.4 856.82 119.01 858.66 103.62 863.19 88.22 869.84 72.83 877.77 57.44 885.99 42.04 893.45 26.65 899.2 11.26 902.54 -4.13 903.03 -19.52 900.61 -34.91 895.59 -50.31 888.61 -65.7 880.53 -81.09 872.39 -81.04 857.46 -80.87 842.54 -80.59 827.61 -80.24 812.69 -79.85 797.76 -79.49 782.83 -79.19 767.91 -78.98 752.98 -78.9 738.05 -78.94 723.13 -79.12 708.2 -79.4 693.28 -79.75 678.35 -80.13 663.42 -80.5 648.5 -80.8 633.57 -81.01 618.64 -81.09 603.72 -81.05 588.79 -80.87 573.87 -80.59 558.94 -80.24 544.01 -79.86 529.09 -79.49 514.16 -79.19 499.23 -78.98 484.31 -78.9 469.38 -78.94 454.46 -79.12 439.53 -79.4 424.6 -79.75 409.68 -80.13 394.75 -80.49 379.82 -80.8 364.9 -81.01 349.97 -81.09 335.05 -81.05 320.12 -80.87 305.19 -80.6 290.27 -80.24 275.34 -79.86 260.41 -79.5 245.49 -79.19 230.56 -78.98 215.64 -78.9 200.71 -78.94 185.78 -79.11 170.86 -79.39 155.93 -79.74 141 -80.12 126.08 -80.49 111.15 -80.8 96.23 -81.01 81.3 -81.09 66.37 -81.05 51.45 -80.88 36.52 -80.6 21.59 -80.25 6.67 -79.87 -8.25 -79.5 -23.17 -79.2 -38.1 -78.99 -53.03 -78.9 -67.95 -78.94 -82.88" fill="url(#uuunion-grad)"></path><path d="M-78.94 -82.88Q-78.9 -67.95 -78.99 -53.03 -79.2 -38.1 -79.5 -23.17 -79.87 -8.25 -80.25 6.67 -80.6 21.59 -80.88 36.52 -81.05 51.45 -81.09 66.37 -81.01 81.3 -80.8 96.23 -80.49 111.15 -80.12 126.08 -79.74 141 -79.39 155.93 -79.11 170.86 -78.94 185.78 -78.9 200.71 -78.98 215.64 -79.19 230.56 -79.5 245.49 -79.86 260.41 -80.24 275.34 -80.6 290.27 -80.87 305.19 -81.05 320.12 -81.09 335.05 -81.01 349.97 -80.8 364.9 -80.49 379.82 -80.13 394.75 -70.1 398.46 -60.07 402.26 -50.03 405.93 -40 409.27 -29.97 412.08 -19.94 414.21 -1.13 415.87 2.11 415.98 14.82 408.72 27.61 400.17 40.47 390.54 53.39 380.15 66.35 369.35 79.33 358.56 92.3 348.16 105.26 338.52 118.16 329.92 131 322.55 143.74 316.5 156.37 311.72 168.88 308.08 181.24 305.34 193.45 303.18 205.51 301.23 217.4 299.11 229.15 296.48 240.74 293.02 252.21 288.5 263.57 282.78 274.83 275.83 286.04 267.73 297.21 258.66 308.38 248.87 319.59 238.68 330.86 228.45 342.25 218.51 353.77 209.19 365.46 200.74 377.36 193.35 389.48 187.09 401.86 181.96 414.49 177.83 427.4 174.52 440.59 171.74 454.05 169.2 467.77 166.56 481.74 163.52 495.93 159.79 510.31 155.18 524.85 149.54 539.49 142.85 554.21 135.16 568.94 126.6 583.63 117.4 598.24 107.82 612.7 98.16 626.97 88.71 641 79.75 654.75 71.51 668.17 64.15 681.23 57.74 693.9 52.3 706.17 47.73 718.03 43.87 729.48 40.5 740.52 37.36 751.18 34.18 761.48 30.69 771.47 26.66 781.17 21.9 790.66 16.29 800 9.8 791.29 -7.95 784 -25.71 779.33 -43.46 778.03 -61.22 780.32 -78.98 785.83 -96.73 793.65 -114.49 802.5 -132.25 787.55 -132.19 772.6 -133.11 757.65 -134.88 742.7 -137.29 727.75 -140.04 712.8 -142.78 697.85 -145.18 682.9 -146.93 667.94 -147.81 652.99 -147.72 638.04 -146.67 623.09 -144.79 608.14 -142.3 593.19 -139.53 578.24 -136.82 563.29 -134.51 548.34 -132.87 533.39 -132.13 518.44 -132.36 503.49 -133.55 488.53 -135.54 473.58 -138.09 458.63 -140.87 443.68 -143.54 428.73 -145.77 413.78 -147.29 398.83 -147.89 383.88 -147.51 368.93 -146.19 353.98 -144.1 339.03 -141.5 324.08 -138.71 309.12 -136.08 294.17 -133.94 279.22 -132.55 264.27 -132.1 249.32 -132.62 234.37 -134.07 219.42 -136.25 204.47 -138.9 189.52 -141.69 174.57 -144.26 159.62 -146.31 144.67 -147.57 129.71 -147.88 114.76 -147.21 99.81 -145.64 84.86 -143.37 69.91 -140.68 54.96 -137.9 40.01 -135.38 25.06 -133.44 10.11 -132.32 -4.83 -132.15 -19.78 -132.96 -34.73 -134.65 -49.69 -137 -64.64 -139.73 -79.59 -142.49 -94.54 -144.94 -109.49 -146.77 -124.44 -147.76 -133.65 -134.81 -115.85 -117.82 -106.49 -109.59 -97.22 -100.99 -88.04 -92.07 -78.94 -82.88" fill="url(#uuunion-grad2)" filter="url(#uuunion-blur)"></path><path d="M802.68 415.68Q812.71 414.5 822.75 412.49 832.78 409.79 842.81 406.52 852.84 402.89 862.87 399.1 873.75 401.06 866.88 421.65 860.76 436.54 856.96 451.42 855.93 466.31 857.8 481.19 862.34 496.08 869.01 510.97 877 525.85 885.36 540.74 893.06 555.62 899.2 570.51 903.02 585.39 904.07 600.28 902.21 615.17 897.69 630.05 891.03 644.94 883.04 659.82 874.68 674.71 866.97 689.6 860.82 704.48 856.99 719.37 855.92 734.25 857.76 749.14 862.27 764.03 868.92 778.91 876.9 793.8 885.26 808.68 892.98 823.57 899.14 838.45 902.99 853.34 904.07 868.23 889.94 875.29 875.82 882.85 861.69 890.11 847.56 896.29 833.44 900.74 819.31 902.98 805.18 902.77 791.06 900.14 776.93 895.36 762.8 888.95 748.68 881.58 734.55 874.04 720.42 867.14 706.3 861.61 692.17 858.03 678.05 856.8 663.92 858.03 649.79 861.6 635.67 867.13 621.54 874.03 607.41 881.56 593.29 888.93 579.16 895.35 565.03 900.13 550.91 902.77 536.78 902.98 522.65 900.75 508.53 896.31 494.4 890.13 480.27 882.87 466.15 875.31 452.02 868.24 437.89 862.43 423.77 858.48 409.64 856.83 395.51 857.64 381.39 860.84 367.26 866.07 353.13 872.78 339.01 880.27 324.88 887.72 310.75 894.35 296.63 899.45 282.5 902.48 268.37 903.12 254.25 901.3 240.12 897.2 225.99 891.28 211.87 884.15 197.74 876.58 183.61 869.38 169.49 863.3 155.36 859 141.23 856.94 127.11 857.33 112.98 860.14 98.85 865.06 84.73 871.56 70.6 878.97 56.47 886.49 42.35 893.31 28.22 898.72 7.02 897.59 -0.11 882.89 -0.22 872.74 -0.38 862.59 -0.57 852.44 -0.78 842.29 -0.87 827.07 -0.24 822 11.99 814.69 24.15 805.56 36.25 794.87 48.29 783.02 60.31 770.52 72.33 757.92 84.35 745.78 96.42 734.6 108.54 724.82 120.75 716.72 133.06 710.46 145.48 706.02 158.04 703.22 170.75 701.76 183.61 701.19 196.62 701.01 209.78 700.69 223.08 699.7 236.52 697.6 250.07 694.03 263.72 688.77 277.43 681.74 291.18 673.04 304.95 662.89 318.68 651.64 332.36 639.76 345.94 627.73 359.39 616.06 372.68 605.23 385.78 595.62 398.66 587.53 411.3 581.09 423.69 576.31 435.81 573.04 447.66 571 459.24 569.82 470.56 569.05 481.63 568.19 492.48 566.78 503.14 564.39 513.64 560.71 524.01 555.52 534.32 548.74 544.6 540.43 554.9 530.79 565.28 520.14 575.79 508.86 586.48 497.4 597.4 486.23 608.59 475.77 620.1 466.38 631.96 458.33 644.19 451.75 656.81 446.66 669.84 442.95 683.28 440.37 697.12 438.59 711.35 437.22 725.93 435.81 740.83 433.95 756.01 431.25 771.42 427.42 794.84 418.97 802.68 415.68" fill="url(#uuunion-grad3)" filter="url(#uuunion-blur2)"></path></svg>