<svg xmlns="http://www.w3.org/2000/svg" version="1.1" xmlns:xlink="http://www.w3.org/1999/xlink" xmlns:svgjs="http://svgjs.dev/svgjs" viewBox="0 0 800 800"><defs><filter id="uuunion-blur" x="-100%" y="-100%" width="400%" height="400%" color-interpolation-filters="sRGB">
        <feGaussianBlur in="SourceGraphic" stdDeviation="7.5 0" result="blur"></feGaussianBlur>
        <feDropShadow stdDeviation="12.307692307692308" in="blur" dx="10" dy="10" flood-color="hsl(35, 44%, 78%)" flood-opacity="0.25" x="0%" y="0%" width="100%" height="100%"></feDropShadow>
      </filter><filter id="uuunion-blur2" x="-100%" y="-100%" width="400%" height="400%" color-interpolation-filters="sRGB">
        <feGaussianBlur in="SourceGraphic" stdDeviation="7.5 0" result="blur"></feGaussianBlur>
        <feDropShadow stdDeviation="12.307692307692308" in="blur" dx="-10" dy="-10" flood-color="hsl(35, 44%, 78%)" flood-opacity="0.25" x="0%" y="0%" width="100%" height="100%"></feDropShadow>
      </filter><linearGradient gradientTransform="rotate(0, 0.5, 0.5)" x1="50%" y1="0%" x2="50%" y2="100%" id="uuunion-grad"><stop stop-color="hsl(18, 100%, 45%)" offset="10%"></stop><stop stop-color="hsl(35, 44%, 78%)" offset="90%"></stop></linearGradient><linearGradient gradientTransform="rotate(135, 0.5, 0.5)" x1="50%" y1="0%" x2="50%" y2="100%" id="uuunion-grad2"><stop stop-color="hsl(18, 100%, 45%)" offset="25%"></stop><stop stop-color="hsl(35, 44%, 78%)" offset="100%"></stop></linearGradient><linearGradient gradientTransform="rotate(333, 0.5, 0.5)" x1="50%" y1="0%" x2="50%" y2="100%" id="uuunion-grad3"><stop stop-color="hsl(18, 100%, 45%)" offset="0%"></stop><stop stop-color="hsl(35, 44%, 78%)" offset="75%"></stop></linearGradient></defs><path d="M-79.16 -78.12Q-64.46 -76.02 -49.76 -74.17 -35.06 -72.7 -20.35 -71.7 -5.65 -71.23 9.04 -71.32 23.74 -71.97 38.45 -73.14 53.15 -74.75 67.85 -76.7 82.55 -78.85 97.26 -81.08 111.96 -83.25 126.66 -85.2 141.37 -86.82 156.07 -87.99 170.77 -88.66 185.47 -88.77 200.18 -88.31 214.88 -87.32 229.58 -85.86 244.28 -84.02 258.99 -81.92 273.69 -79.7 288.39 -77.5 303.09 -75.46 317.8 -73.71 332.5 -72.36 347.2 -71.51 361.91 -71.2 376.61 -71.45 391.31 -72.26 406.01 -73.56 420.72 -75.28 435.42 -77.3 450.12 -79.49 464.82 -81.72 479.53 -83.83 494.23 -85.7 508.93 -87.2 523.63 -88.24 538.34 -88.75 553.04 -88.69 567.74 -88.08 582.45 -86.95 597.15 -85.37 611.85 -83.44 626.55 -81.29 641.26 -79.06 655.96 -76.89 670.66 -74.92 685.36 -73.28 700.07 -72.06 714.77 -71.36 729.47 -71.21 744.17 -71.63 758.88 -72.58 773.58 -74.01 788.28 -75.83 802.99 -77.91 817.69 -80.13 832.39 -82.34 847.09 -84.4 861.8 -86.17 856.88 -71.33 856.14 -56.49 859.72 -41.65 866.96 -26.8 876.56 -11.96 886.79 2.87 895.78 17.71 901.92 32.55 904.09 47.4 901.91 62.24 895.76 77.08 886.76 91.92 876.53 106.77 866.94 121.61 859.7 136.45 856.13 151.29 856.88 166.13 861.82 180.98 870.04 195.82 880.06 210.66 890.07 225.5 898.25 240.34 903.14 255.19 903.84 270.03 900.22 284.87 892.95 299.71 883.34 314.55 873.11 329.4 864.14 344.24 858.03 359.08 855.9 373.92 858.12 388.76 864.3 403.61 873.32 418.45 883.55 433.29 893.13 448.13 900.34 462.97 903.87 477.82 903.08 492.66 898.11 507.5 889.87 522.34 879.84 537.18 869.84 552.03 861.68 566.87 856.83 581.71 856.16 596.55 859.81 611.4 867.12 626.24 876.74 641.08 886.96 655.92 895.92 670.76 902 685.61 904.09 700.45 901.83 715.29 895.62 730.13 886.58 744.97 876.35 759.82 866.78 774.66 859.6 789.5 856.11 804.34 856.94 819.18 861.94 834.03 870.2 848.87 880.24 863.71 865.23 868.39 850.23 873.82 835.23 879.64 820.22 885.48 805.22 890.98 790.21 895.76 775.21 899.54 760.21 902.05 745.2 903.15 730.2 902.76 715.19 900.91 700.19 897.71 685.19 893.37 670.18 888.18 655.18 882.45 640.18 876.57 625.17 870.91 610.17 865.83 595.16 861.67 580.16 858.68 565.16 857.06 550.15 856.92 535.15 858.26 520.14 861 505.14 864.95 490.14 869.88 475.13 875.46 460.13 881.33 445.12 887.11 430.12 892.43 415.12 896.96 400.11 900.39 385.11 902.52 370.1 903.19 355.1 902.38 340.1 900.12 325.09 896.57 310.09 891.96 295.08 886.58 280.08 880.77 265.08 874.91 250.07 869.38 235.07 864.54 220.06 860.68 205.06 858.07 190.06 856.87 175.05 857.15 160.05 858.9 145.04 862.01 130.04 866.28 115.04 871.43 100.03 877.12 85.03 883.01 70.02 888.69 55.02 893.82 40.02 898.06 25.01 901.14 10.01 902.86 -4.99 903.11 -19.99 901.87 -34.99 899.23 -50 895.35 -65 890.48 -80.01 884.94 -79.55 869.89 -79.17 854.85 -78.94 839.8 -78.9 824.75 -79.06 809.7 -79.39 794.65 -79.83 779.61 -80.3 764.56 -80.71 749.51 -80.99 734.46 -81.09 719.41 -81 704.37 -80.72 689.32 -80.31 674.27 -79.85 659.22 -79.41 644.17 -79.07 629.13 -78.91 614.08 -78.94 599.03 -79.16 583.98 -79.53 568.93 -79.99 553.89 -80.45 538.84 -80.82 523.79 -81.05 508.74 -81.08 493.69 -80.92 478.65 -80.59 463.6 -80.16 448.55 -79.69 433.5 -79.28 418.45 -79 403.41 -78.9 388.36 -78.99 373.31 -79.27 358.26 -79.68 343.21 -80.15 328.17 -80.59 313.12 -80.92 298.07 -81.08 283.02 -81.05 267.97 -80.83 252.93 -80.45 237.88 -80 222.83 -79.54 207.78 -79.17 192.73 -78.94 177.69 -78.91 162.64 -79.07 147.59 -79.4 132.54 -79.84 117.49 -80.3 102.45 -80.71 87.4 -81 72.35 -81.09 57.3 -81 42.26 -80.72 27.21 -80.31 12.16 -79.84 -2.88 -79.4 -17.93 -79.07 -32.97 -78.91 -48.02 -78.94 -63.07 -79.16 -78.12" fill="url(#uuunion-grad)"></path><path d="M-79.16 -78.12Q-78.94 -63.07 -78.91 -48.02 -79.07 -32.97 -79.4 -17.93 -79.84 -2.88 -80.31 12.16 -80.72 27.21 -81 42.26 -81.09 57.3 -81 72.35 -80.71 87.4 -80.3 102.45 -79.84 117.49 -79.4 132.54 -79.07 147.59 -78.91 162.64 -78.94 177.69 -79.17 192.73 -79.54 207.78 -80 222.83 -80.45 237.88 -80.83 252.93 -81.05 267.97 -81.08 283.02 -80.92 298.07 -80.59 313.12 -80.15 328.17 -79.68 343.21 -79.27 358.26 -78.99 373.31 -78.9 388.36 -79 403.41 -69.23 405.99 -59.47 408.41 -49.71 410.59 -39.95 412.46 -30.19 413.97 -20.43 415.08 -2.13 415.93 1.03 415.99 13.12 409.18 25.22 401.69 37.37 393.59 49.59 384.96 61.92 375.92 74.38 366.6 86.98 357.13 99.74 347.66 112.66 338.34 125.74 329.29 138.96 320.64 152.3 312.49 165.74 304.91 179.23 297.97 192.74 291.68 206.22 286.03 219.63 281 232.92 276.51 246.04 272.49 258.96 268.83 271.63 265.4 284.04 262.09 296.16 258.75 307.99 255.27 319.52 251.51 330.78 247.37 341.79 242.77 352.59 237.64 363.23 231.93 373.76 225.63 384.26 218.75 394.78 211.32 405.4 203.41 416.19 195.09 427.22 186.47 438.56 177.65 450.25 168.76 462.34 159.9 474.88 151.19 487.86 142.75 501.31 134.66 515.2 127 529.5 119.82 544.17 113.17 559.16 107.05 574.38 101.44 589.76 96.31 605.19 91.61 620.59 87.24 635.85 83.14 650.87 79.2 665.56 75.3 679.83 71.36 693.6 67.26 706.82 62.91 719.43 58.23 731.42 53.17 742.77 47.66 753.51 41.69 763.67 35.26 773.32 28.37 782.52 21.07 791.38 13.41 800 5.46 789.45 -12.18 781.48 -29.82 778.05 -47.46 779.99 -65.11 786.83 -82.75 796.89 -100.39 804.58 -126.1 786.24 -133.02 771.04 -132.31 755.84 -132.1 740.63 -132.38 725.43 -133.15 710.23 -134.35 695.03 -135.92 679.82 -137.74 664.62 -139.7 649.42 -141.68 634.22 -143.56 619.01 -145.21 603.81 -146.53 588.61 -147.43 573.41 -147.86 558.2 -147.79 543 -147.23 527.8 -146.21 512.6 -144.79 497.39 -143.07 482.19 -141.15 466.99 -139.16 451.79 -137.23 436.59 -135.46 421.38 -133.99 406.18 -132.9 390.98 -132.26 375.78 -132.11 360.57 -132.46 345.37 -133.28 330.17 -134.54 314.97 -136.14 299.76 -137.99 284.56 -139.96 269.36 -141.94 254.16 -143.79 238.95 -145.4 223.75 -146.67 208.55 -147.51 193.35 -147.88 178.14 -147.75 162.94 -147.12 147.74 -146.04 132.54 -144.58 117.34 -142.83 102.13 -140.89 86.93 -138.9 71.73 -136.98 56.53 -135.25 41.32 -133.82 26.12 -132.79 10.92 -132.21 -4.27 -132.12 -19.48 -132.54 -34.68 -133.43 -49.88 -134.73 -65.08 -136.37 -80.29 -138.24 -95.49 -140.22 -110.69 -142.19 -125.89 -144.02 -135.25 -132.03 -117 -113.34 -107.36 -104.63 -97.84 -95.84 -88.44 -86.99 -79.16 -78.12" fill="url(#uuunion-grad2)" filter="url(#uuunion-blur)"></path><path d="M780.03 408.73Q789.79 406.35 799.55 403.78 809.31 401.1 819.07 398.4 828.83 395.73 838.6 393.19 848.36 390.85 858.12 388.76 864.3 403.61 873.32 418.45 883.55 433.29 893.13 448.13 900.34 462.97 903.87 477.82 903.08 492.66 898.11 507.5 889.87 522.34 879.84 537.18 869.84 552.03 861.68 566.87 856.83 581.71 856.16 596.55 859.81 611.4 867.12 626.24 876.74 641.08 886.96 655.92 895.92 670.76 902 685.61 904.09 700.45 901.83 715.29 895.62 730.13 886.58 744.97 876.35 759.82 866.78 774.66 859.6 789.5 856.11 804.34 856.94 819.18 861.94 834.03 870.2 848.87 880.24 863.71 866.47 867.97 852.7 872.89 838.93 878.18 825.16 883.58 811.39 888.78 797.62 893.51 783.85 897.5 770.08 900.55 756.32 902.48 742.55 903.19 728.78 902.65 715.01 900.88 701.24 897.97 687.47 894.1 673.7 889.45 659.93 884.3 646.16 878.91 632.39 873.58 618.62 868.6 604.85 864.24 591.08 860.73 577.31 858.26 563.55 856.97 549.78 856.93 536.01 858.14 522.24 860.53 508.47 863.98 494.7 868.3 480.93 873.25 467.16 878.56 453.39 883.95 439.62 889.13 425.85 893.82 412.08 897.75 398.31 900.72 384.54 902.57 370.78 903.19 357.01 902.56 343.24 900.71 329.47 897.73 315.7 893.79 301.93 889.11 288.16 883.93 274.39 878.53 260.62 873.22 246.85 868.27 233.08 863.96 219.31 860.52 205.54 858.13 191.77 856.93 178.01 856.98 164.24 858.27 150.47 860.74 136.7 864.26 122.93 868.63 109.16 873.61 95.39 878.94 81.62 884.33 67.85 889.48 54.08 894.12 40.31 897.99 26.54 900.89 5.75 897.85 -1.51 882.89 -1.72 872.74 -1.88 862.59 -1.96 852.44 -1.96 842.29 -1.57 827.07 -0.76 822 11.65 815.16 24.19 807.38 36.85 798.72 49.65 789.31 62.57 779.28 75.6 768.82 88.73 758.12 101.93 747.36 115.16 736.77 128.4 726.52 141.6 716.8 154.72 707.76 167.73 699.5 180.58 692.13 193.24 685.66 205.7 680.12 217.93 675.46 229.92 671.6 241.67 668.42 253.19 665.79 264.51 663.53 275.64 661.47 286.65 659.42 297.56 657.18 308.44 654.59 319.34 651.47 330.33 647.71 341.46 643.19 352.81 637.84 364.42 631.63 376.33 624.57 388.6 616.7 401.25 608.1 414.29 598.89 427.72 589.2 441.54 579.18 455.72 569.02 470.21 558.89 484.96 548.95 499.91 539.38 514.97 530.32 530.07 521.88 545.13 514.16 560.03 507.21 574.71 501.07 589.07 495.71 603.05 491.09 616.56 487.13 629.57 483.71 642.02 480.72 653.92 477.98 665.24 475.36 676.02 472.68 686.29 469.79 696.11 466.53 705.55 462.78 714.7 458.44 723.67 453.42 732.56 447.68 741.49 441.2 750.59 434 759.97 426.13 774.89 413.2 780.03 408.73" fill="url(#uuunion-grad3)" filter="url(#uuunion-blur2)"></path></svg>