<svg xmlns="http://www.w3.org/2000/svg" version="1.1" xmlns:xlink="http://www.w3.org/1999/xlink" xmlns:svgjs="http://svgjs.dev/svgjs" viewBox="0 0 800 800" opacity="0.35" width="800" height="800"><g stroke-width="2.75" stroke="hsla(37, 91%, 55%, 1.00)" fill="none"><rect width="40" height="6.684210526315789" x="-20" y="-3.3421052631578947" stroke="none" fill="hsl(316, 73%, 52%)" rx="3.3421052631578947" transform="rotate(45, 0, 0)"></rect><rect width="6.684210526315789" height="40" x="-3.3421052631578947" y="-20" stroke="none" fill="hsl(316, 73%, 52%)" rx="3.3421052631578947" transform="rotate(45, 0, 0)"></rect><rect width="40" height="6.684210526315789" x="60" y="-3.3421052631578947" stroke="none" fill="hsla(37, 91%, 55%, 1.00)" rx="3.3421052631578947" transform="rotate(45, 80, 0)"></rect><rect width="6.684210526315789" height="40" x="76.65789473684211" y="-20" stroke="none" fill="hsla(37, 91%, 55%, 1.00)" rx="3.3421052631578947" transform="rotate(45, 80, 0)"></rect><rect width="40" height="6.684210526315789" x="140" y="-3.3421052631578947" stroke="none" fill="hsl(316, 73%, 52%)" rx="3.3421052631578947" transform="rotate(45, 160, 0)"></rect><rect width="6.684210526315789" height="40" x="156.6578947368421" y="-20" stroke="none" fill="hsl(316, 73%, 52%)" rx="3.3421052631578947" transform="rotate(45, 160, 0)"></rect><rect width="40" height="6.684210526315789" x="220" y="-3.3421052631578947" stroke="none" fill="hsla(37, 91%, 55%, 1.00)" rx="3.3421052631578947" transform="rotate(45, 240, 0)"></rect><rect width="6.684210526315789" height="40" x="236.6578947368421" y="-20" stroke="none" fill="hsla(37, 91%, 55%, 1.00)" rx="3.3421052631578947" transform="rotate(45, 240, 0)"></rect><rect width="40" height="6.684210526315789" x="300" y="-3.3421052631578947" stroke="none" fill="hsl(316, 73%, 52%)" rx="3.3421052631578947" transform="rotate(45, 320, 0)"></rect><rect width="6.684210526315789" height="40" x="316.6578947368421" y="-20" stroke="none" fill="hsl(316, 73%, 52%)" rx="3.3421052631578947" transform="rotate(45, 320, 0)"></rect><rect width="40" height="6.684210526315789" x="380" y="-3.3421052631578947" stroke="none" fill="hsla(37, 91%, 55%, 1.00)" rx="3.3421052631578947" transform="rotate(45, 400, 0)"></rect><rect width="6.684210526315789" height="40" x="396.6578947368421" y="-20" stroke="none" fill="hsla(37, 91%, 55%, 1.00)" rx="3.3421052631578947" transform="rotate(45, 400, 0)"></rect><rect width="40" height="6.684210526315789" x="460" y="-3.3421052631578947" stroke="none" fill="hsl(316, 73%, 52%)" rx="3.3421052631578947" transform="rotate(45, 480, 0)"></rect><rect width="6.684210526315789" height="40" x="476.6578947368421" y="-20" stroke="none" fill="hsl(316, 73%, 52%)" rx="3.3421052631578947" transform="rotate(45, 480, 0)"></rect><rect width="40" height="6.684210526315789" x="540" y="-3.3421052631578947" stroke="none" fill="hsla(37, 91%, 55%, 1.00)" rx="3.3421052631578947" transform="rotate(45, 560, 0)"></rect><rect width="6.684210526315789" height="40" x="556.6578947368421" y="-20" stroke="none" fill="hsla(37, 91%, 55%, 1.00)" rx="3.3421052631578947" transform="rotate(45, 560, 0)"></rect><rect width="40" height="6.684210526315789" x="620" y="-3.3421052631578947" stroke="none" fill="hsl(316, 73%, 52%)" rx="3.3421052631578947" transform="rotate(45, 640, 0)"></rect><rect width="6.684210526315789" height="40" x="636.6578947368421" y="-20" stroke="none" fill="hsl(316, 73%, 52%)" rx="3.3421052631578947" transform="rotate(45, 640, 0)"></rect><rect width="40" height="6.684210526315789" x="700" y="-3.3421052631578947" stroke="none" fill="hsla(37, 91%, 55%, 1.00)" rx="3.3421052631578947" transform="rotate(45, 720, 0)"></rect><rect width="6.684210526315789" height="40" x="716.6578947368421" y="-20" stroke="none" fill="hsla(37, 91%, 55%, 1.00)" rx="3.3421052631578947" transform="rotate(45, 720, 0)"></rect><rect width="40" height="6.684210526315789" x="780" y="-3.3421052631578947" stroke="none" fill="hsl(316, 73%, 52%)" rx="3.3421052631578947" transform="rotate(45, 800, 0)"></rect><rect width="6.684210526315789" height="40" x="796.6578947368421" y="-20" stroke="none" fill="hsl(316, 73%, 52%)" rx="3.3421052631578947" transform="rotate(45, 800, 0)"></rect><rect width="40" height="6.684210526315789" x="-20" y="76.65789473684211" stroke="none" fill="hsla(37, 91%, 55%, 1.00)" rx="3.3421052631578947" transform="rotate(45, 0, 80)"></rect><rect width="6.684210526315789" height="40" x="-3.3421052631578947" y="60" stroke="none" fill="hsla(37, 91%, 55%, 1.00)" rx="3.3421052631578947" transform="rotate(45, 0, 80)"></rect><rect width="40" height="6.684210526315789" x="60" y="76.65789473684211" stroke="none" fill="hsl(316, 73%, 52%)" rx="3.3421052631578947" transform="rotate(45, 80, 80)"></rect><rect width="6.684210526315789" height="40" x="76.65789473684211" y="60" stroke="none" fill="hsl(316, 73%, 52%)" rx="3.3421052631578947" transform="rotate(45, 80, 80)"></rect><rect width="40" height="6.684210526315789" x="140" y="76.65789473684211" stroke="none" fill="hsla(37, 91%, 55%, 1.00)" rx="3.3421052631578947" transform="rotate(45, 160, 80)"></rect><rect width="6.684210526315789" height="40" x="156.6578947368421" y="60" stroke="none" fill="hsla(37, 91%, 55%, 1.00)" rx="3.3421052631578947" transform="rotate(45, 160, 80)"></rect><rect width="40" height="6.684210526315789" x="220" y="76.65789473684211" stroke="none" fill="hsl(316, 73%, 52%)" rx="3.3421052631578947" transform="rotate(45, 240, 80)"></rect><rect width="6.684210526315789" height="40" x="236.6578947368421" y="60" stroke="none" fill="hsl(316, 73%, 52%)" rx="3.3421052631578947" transform="rotate(45, 240, 80)"></rect><rect width="40" height="6.684210526315789" x="300" y="76.65789473684211" stroke="none" fill="hsla(37, 91%, 55%, 1.00)" rx="3.3421052631578947" transform="rotate(45, 320, 80)"></rect><rect width="6.684210526315789" height="40" x="316.6578947368421" y="60" stroke="none" fill="hsla(37, 91%, 55%, 1.00)" rx="3.3421052631578947" transform="rotate(45, 320, 80)"></rect><rect width="40" height="6.684210526315789" x="380" y="76.65789473684211" stroke="none" fill="hsl(316, 73%, 52%)" rx="3.3421052631578947" transform="rotate(45, 400, 80)"></rect><rect width="6.684210526315789" height="40" x="396.6578947368421" y="60" stroke="none" fill="hsl(316, 73%, 52%)" rx="3.3421052631578947" transform="rotate(45, 400, 80)"></rect><rect width="40" height="6.684210526315789" x="460" y="76.65789473684211" stroke="none" fill="hsla(37, 91%, 55%, 1.00)" rx="3.3421052631578947" transform="rotate(45, 480, 80)"></rect><rect width="6.684210526315789" height="40" x="476.6578947368421" y="60" stroke="none" fill="hsla(37, 91%, 55%, 1.00)" rx="3.3421052631578947" transform="rotate(45, 480, 80)"></rect><rect width="40" height="6.684210526315789" x="540" y="76.65789473684211" stroke="none" fill="hsl(316, 73%, 52%)" rx="3.3421052631578947" transform="rotate(45, 560, 80)"></rect><rect width="6.684210526315789" height="40" x="556.6578947368421" y="60" stroke="none" fill="hsl(316, 73%, 52%)" rx="3.3421052631578947" transform="rotate(45, 560, 80)"></rect><rect width="40" height="6.684210526315789" x="620" y="76.65789473684211" stroke="none" fill="hsla(37, 91%, 55%, 1.00)" rx="3.3421052631578947" transform="rotate(45, 640, 80)"></rect><rect width="6.684210526315789" height="40" x="636.6578947368421" y="60" stroke="none" fill="hsla(37, 91%, 55%, 1.00)" rx="3.3421052631578947" transform="rotate(45, 640, 80)"></rect><rect width="40" height="6.684210526315789" x="700" y="76.65789473684211" stroke="none" fill="hsl(316, 73%, 52%)" rx="3.3421052631578947" transform="rotate(45, 720, 80)"></rect><rect width="6.684210526315789" height="40" x="716.6578947368421" y="60" stroke="none" fill="hsl(316, 73%, 52%)" rx="3.3421052631578947" transform="rotate(45, 720, 80)"></rect><rect width="40" height="6.684210526315789" x="780" y="76.65789473684211" stroke="none" fill="hsla(37, 91%, 55%, 1.00)" rx="3.3421052631578947" transform="rotate(45, 800, 80)"></rect><rect width="6.684210526315789" height="40" x="796.6578947368421" y="60" stroke="none" fill="hsla(37, 91%, 55%, 1.00)" rx="3.3421052631578947" transform="rotate(45, 800, 80)"></rect><rect width="40" height="6.684210526315789" x="-20" y="156.6578947368421" stroke="none" fill="hsl(316, 73%, 52%)" rx="3.3421052631578947" transform="rotate(45, 0, 160)"></rect><rect width="6.684210526315789" height="40" x="-3.3421052631578947" y="140" stroke="none" fill="hsl(316, 73%, 52%)" rx="3.3421052631578947" transform="rotate(45, 0, 160)"></rect><rect width="40" height="6.684210526315789" x="60" y="156.6578947368421" stroke="none" fill="hsla(37, 91%, 55%, 1.00)" rx="3.3421052631578947" transform="rotate(45, 80, 160)"></rect><rect width="6.684210526315789" height="40" x="76.65789473684211" y="140" stroke="none" fill="hsla(37, 91%, 55%, 1.00)" rx="3.3421052631578947" transform="rotate(45, 80, 160)"></rect><rect width="40" height="6.684210526315789" x="140" y="156.6578947368421" stroke="none" fill="hsl(316, 73%, 52%)" rx="3.3421052631578947" transform="rotate(45, 160, 160)"></rect><rect width="6.684210526315789" height="40" x="156.6578947368421" y="140" stroke="none" fill="hsl(316, 73%, 52%)" rx="3.3421052631578947" transform="rotate(45, 160, 160)"></rect><rect width="40" height="6.684210526315789" x="220" y="156.6578947368421" stroke="none" fill="hsla(37, 91%, 55%, 1.00)" rx="3.3421052631578947" transform="rotate(45, 240, 160)"></rect><rect width="6.684210526315789" height="40" x="236.6578947368421" y="140" stroke="none" fill="hsla(37, 91%, 55%, 1.00)" rx="3.3421052631578947" transform="rotate(45, 240, 160)"></rect><rect width="40" height="6.684210526315789" x="300" y="156.6578947368421" stroke="none" fill="hsl(316, 73%, 52%)" rx="3.3421052631578947" transform="rotate(45, 320, 160)"></rect><rect width="6.684210526315789" height="40" x="316.6578947368421" y="140" stroke="none" fill="hsl(316, 73%, 52%)" rx="3.3421052631578947" transform="rotate(45, 320, 160)"></rect><rect width="40" height="6.684210526315789" x="380" y="156.6578947368421" stroke="none" fill="hsla(37, 91%, 55%, 1.00)" rx="3.3421052631578947" transform="rotate(45, 400, 160)"></rect><rect width="6.684210526315789" height="40" x="396.6578947368421" y="140" stroke="none" fill="hsla(37, 91%, 55%, 1.00)" rx="3.3421052631578947" transform="rotate(45, 400, 160)"></rect><rect width="40" height="6.684210526315789" x="460" y="156.6578947368421" stroke="none" fill="hsl(316, 73%, 52%)" rx="3.3421052631578947" transform="rotate(45, 480, 160)"></rect><rect width="6.684210526315789" height="40" x="476.6578947368421" y="140" stroke="none" fill="hsl(316, 73%, 52%)" rx="3.3421052631578947" transform="rotate(45, 480, 160)"></rect><rect width="40" height="6.684210526315789" x="540" y="156.6578947368421" stroke="none" fill="hsla(37, 91%, 55%, 1.00)" rx="3.3421052631578947" transform="rotate(45, 560, 160)"></rect><rect width="6.684210526315789" height="40" x="556.6578947368421" y="140" stroke="none" fill="hsla(37, 91%, 55%, 1.00)" rx="3.3421052631578947" transform="rotate(45, 560, 160)"></rect><rect width="40" height="6.684210526315789" x="620" y="156.6578947368421" stroke="none" fill="hsl(316, 73%, 52%)" rx="3.3421052631578947" transform="rotate(45, 640, 160)"></rect><rect width="6.684210526315789" height="40" x="636.6578947368421" y="140" stroke="none" fill="hsl(316, 73%, 52%)" rx="3.3421052631578947" transform="rotate(45, 640, 160)"></rect><rect width="40" height="6.684210526315789" x="700" y="156.6578947368421" stroke="none" fill="hsla(37, 91%, 55%, 1.00)" rx="3.3421052631578947" transform="rotate(45, 720, 160)"></rect><rect width="6.684210526315789" height="40" x="716.6578947368421" y="140" stroke="none" fill="hsla(37, 91%, 55%, 1.00)" rx="3.3421052631578947" transform="rotate(45, 720, 160)"></rect><rect width="40" height="6.684210526315789" x="780" y="156.6578947368421" stroke="none" fill="hsl(316, 73%, 52%)" rx="3.3421052631578947" transform="rotate(45, 800, 160)"></rect><rect width="6.684210526315789" height="40" x="796.6578947368421" y="140" stroke="none" fill="hsl(316, 73%, 52%)" rx="3.3421052631578947" transform="rotate(45, 800, 160)"></rect><rect width="40" height="6.684210526315789" x="-20" y="236.6578947368421" stroke="none" fill="hsla(37, 91%, 55%, 1.00)" rx="3.3421052631578947" transform="rotate(45, 0, 240)"></rect><rect width="6.684210526315789" height="40" x="-3.3421052631578947" y="220" stroke="none" fill="hsla(37, 91%, 55%, 1.00)" rx="3.3421052631578947" transform="rotate(45, 0, 240)"></rect><rect width="40" height="6.684210526315789" x="60" y="236.6578947368421" stroke="none" fill="hsl(316, 73%, 52%)" rx="3.3421052631578947" transform="rotate(45, 80, 240)"></rect><rect width="6.684210526315789" height="40" x="76.65789473684211" y="220" stroke="none" fill="hsl(316, 73%, 52%)" rx="3.3421052631578947" transform="rotate(45, 80, 240)"></rect><rect width="40" height="6.684210526315789" x="140" y="236.6578947368421" stroke="none" fill="hsla(37, 91%, 55%, 1.00)" rx="3.3421052631578947" transform="rotate(45, 160, 240)"></rect><rect width="6.684210526315789" height="40" x="156.6578947368421" y="220" stroke="none" fill="hsla(37, 91%, 55%, 1.00)" rx="3.3421052631578947" transform="rotate(45, 160, 240)"></rect><rect width="40" height="6.684210526315789" x="220" y="236.6578947368421" stroke="none" fill="hsl(316, 73%, 52%)" rx="3.3421052631578947" transform="rotate(45, 240, 240)"></rect><rect width="6.684210526315789" height="40" x="236.6578947368421" y="220" stroke="none" fill="hsl(316, 73%, 52%)" rx="3.3421052631578947" transform="rotate(45, 240, 240)"></rect><rect width="40" height="6.684210526315789" x="300" y="236.6578947368421" stroke="none" fill="hsla(37, 91%, 55%, 1.00)" rx="3.3421052631578947" transform="rotate(45, 320, 240)"></rect><rect width="6.684210526315789" height="40" x="316.6578947368421" y="220" stroke="none" fill="hsla(37, 91%, 55%, 1.00)" rx="3.3421052631578947" transform="rotate(45, 320, 240)"></rect><rect width="40" height="6.684210526315789" x="380" y="236.6578947368421" stroke="none" fill="hsl(316, 73%, 52%)" rx="3.3421052631578947" transform="rotate(45, 400, 240)"></rect><rect width="6.684210526315789" height="40" x="396.6578947368421" y="220" stroke="none" fill="hsl(316, 73%, 52%)" rx="3.3421052631578947" transform="rotate(45, 400, 240)"></rect><rect width="40" height="6.684210526315789" x="460" y="236.6578947368421" stroke="none" fill="hsla(37, 91%, 55%, 1.00)" rx="3.3421052631578947" transform="rotate(45, 480, 240)"></rect><rect width="6.684210526315789" height="40" x="476.6578947368421" y="220" stroke="none" fill="hsla(37, 91%, 55%, 1.00)" rx="3.3421052631578947" transform="rotate(45, 480, 240)"></rect><rect width="40" height="6.684210526315789" x="540" y="236.6578947368421" stroke="none" fill="hsl(316, 73%, 52%)" rx="3.3421052631578947" transform="rotate(45, 560, 240)"></rect><rect width="6.684210526315789" height="40" x="556.6578947368421" y="220" stroke="none" fill="hsl(316, 73%, 52%)" rx="3.3421052631578947" transform="rotate(45, 560, 240)"></rect><rect width="40" height="6.684210526315789" x="620" y="236.6578947368421" stroke="none" fill="hsla(37, 91%, 55%, 1.00)" rx="3.3421052631578947" transform="rotate(45, 640, 240)"></rect><rect width="6.684210526315789" height="40" x="636.6578947368421" y="220" stroke="none" fill="hsla(37, 91%, 55%, 1.00)" rx="3.3421052631578947" transform="rotate(45, 640, 240)"></rect><rect width="40" height="6.684210526315789" x="700" y="236.6578947368421" stroke="none" fill="hsl(316, 73%, 52%)" rx="3.3421052631578947" transform="rotate(45, 720, 240)"></rect><rect width="6.684210526315789" height="40" x="716.6578947368421" y="220" stroke="none" fill="hsl(316, 73%, 52%)" rx="3.3421052631578947" transform="rotate(45, 720, 240)"></rect><rect width="40" height="6.684210526315789" x="780" y="236.6578947368421" stroke="none" fill="hsla(37, 91%, 55%, 1.00)" rx="3.3421052631578947" transform="rotate(45, 800, 240)"></rect><rect width="6.684210526315789" height="40" x="796.6578947368421" y="220" stroke="none" fill="hsla(37, 91%, 55%, 1.00)" rx="3.3421052631578947" transform="rotate(45, 800, 240)"></rect><rect width="40" height="6.684210526315789" x="-20" y="316.6578947368421" stroke="none" fill="hsl(316, 73%, 52%)" rx="3.3421052631578947" transform="rotate(45, 0, 320)"></rect><rect width="6.684210526315789" height="40" x="-3.3421052631578947" y="300" stroke="none" fill="hsl(316, 73%, 52%)" rx="3.3421052631578947" transform="rotate(45, 0, 320)"></rect><rect width="40" height="6.684210526315789" x="60" y="316.6578947368421" stroke="none" fill="hsla(37, 91%, 55%, 1.00)" rx="3.3421052631578947" transform="rotate(45, 80, 320)"></rect><rect width="6.684210526315789" height="40" x="76.65789473684211" y="300" stroke="none" fill="hsla(37, 91%, 55%, 1.00)" rx="3.3421052631578947" transform="rotate(45, 80, 320)"></rect><rect width="40" height="6.684210526315789" x="140" y="316.6578947368421" stroke="none" fill="hsl(316, 73%, 52%)" rx="3.3421052631578947" transform="rotate(45, 160, 320)"></rect><rect width="6.684210526315789" height="40" x="156.6578947368421" y="300" stroke="none" fill="hsl(316, 73%, 52%)" rx="3.3421052631578947" transform="rotate(45, 160, 320)"></rect><rect width="40" height="6.684210526315789" x="220" y="316.6578947368421" stroke="none" fill="hsla(37, 91%, 55%, 1.00)" rx="3.3421052631578947" transform="rotate(45, 240, 320)"></rect><rect width="6.684210526315789" height="40" x="236.6578947368421" y="300" stroke="none" fill="hsla(37, 91%, 55%, 1.00)" rx="3.3421052631578947" transform="rotate(45, 240, 320)"></rect><rect width="40" height="6.684210526315789" x="300" y="316.6578947368421" stroke="none" fill="hsl(316, 73%, 52%)" rx="3.3421052631578947" transform="rotate(45, 320, 320)"></rect><rect width="6.684210526315789" height="40" x="316.6578947368421" y="300" stroke="none" fill="hsl(316, 73%, 52%)" rx="3.3421052631578947" transform="rotate(45, 320, 320)"></rect><rect width="40" height="6.684210526315789" x="380" y="316.6578947368421" stroke="none" fill="hsla(37, 91%, 55%, 1.00)" rx="3.3421052631578947" transform="rotate(45, 400, 320)"></rect><rect width="6.684210526315789" height="40" x="396.6578947368421" y="300" stroke="none" fill="hsla(37, 91%, 55%, 1.00)" rx="3.3421052631578947" transform="rotate(45, 400, 320)"></rect><rect width="40" height="6.684210526315789" x="460" y="316.6578947368421" stroke="none" fill="hsl(316, 73%, 52%)" rx="3.3421052631578947" transform="rotate(45, 480, 320)"></rect><rect width="6.684210526315789" height="40" x="476.6578947368421" y="300" stroke="none" fill="hsl(316, 73%, 52%)" rx="3.3421052631578947" transform="rotate(45, 480, 320)"></rect><rect width="40" height="6.684210526315789" x="540" y="316.6578947368421" stroke="none" fill="hsla(37, 91%, 55%, 1.00)" rx="3.3421052631578947" transform="rotate(45, 560, 320)"></rect><rect width="6.684210526315789" height="40" x="556.6578947368421" y="300" stroke="none" fill="hsla(37, 91%, 55%, 1.00)" rx="3.3421052631578947" transform="rotate(45, 560, 320)"></rect><rect width="40" height="6.684210526315789" x="620" y="316.6578947368421" stroke="none" fill="hsl(316, 73%, 52%)" rx="3.3421052631578947" transform="rotate(45, 640, 320)"></rect><rect width="6.684210526315789" height="40" x="636.6578947368421" y="300" stroke="none" fill="hsl(316, 73%, 52%)" rx="3.3421052631578947" transform="rotate(45, 640, 320)"></rect><rect width="40" height="6.684210526315789" x="700" y="316.6578947368421" stroke="none" fill="hsla(37, 91%, 55%, 1.00)" rx="3.3421052631578947" transform="rotate(45, 720, 320)"></rect><rect width="6.684210526315789" height="40" x="716.6578947368421" y="300" stroke="none" fill="hsla(37, 91%, 55%, 1.00)" rx="3.3421052631578947" transform="rotate(45, 720, 320)"></rect><rect width="40" height="6.684210526315789" x="780" y="316.6578947368421" stroke="none" fill="hsl(316, 73%, 52%)" rx="3.3421052631578947" transform="rotate(45, 800, 320)"></rect><rect width="6.684210526315789" height="40" x="796.6578947368421" y="300" stroke="none" fill="hsl(316, 73%, 52%)" rx="3.3421052631578947" transform="rotate(45, 800, 320)"></rect><rect width="40" height="6.684210526315789" x="-20" y="396.6578947368421" stroke="none" fill="hsla(37, 91%, 55%, 1.00)" rx="3.3421052631578947" transform="rotate(45, 0, 400)"></rect><rect width="6.684210526315789" height="40" x="-3.3421052631578947" y="380" stroke="none" fill="hsla(37, 91%, 55%, 1.00)" rx="3.3421052631578947" transform="rotate(45, 0, 400)"></rect><rect width="40" height="6.684210526315789" x="60" y="396.6578947368421" stroke="none" fill="hsl(316, 73%, 52%)" rx="3.3421052631578947" transform="rotate(45, 80, 400)"></rect><rect width="6.684210526315789" height="40" x="76.65789473684211" y="380" stroke="none" fill="hsl(316, 73%, 52%)" rx="3.3421052631578947" transform="rotate(45, 80, 400)"></rect><rect width="40" height="6.684210526315789" x="140" y="396.6578947368421" stroke="none" fill="hsla(37, 91%, 55%, 1.00)" rx="3.3421052631578947" transform="rotate(45, 160, 400)"></rect><rect width="6.684210526315789" height="40" x="156.6578947368421" y="380" stroke="none" fill="hsla(37, 91%, 55%, 1.00)" rx="3.3421052631578947" transform="rotate(45, 160, 400)"></rect><rect width="40" height="6.684210526315789" x="220" y="396.6578947368421" stroke="none" fill="hsl(316, 73%, 52%)" rx="3.3421052631578947" transform="rotate(45, 240, 400)"></rect><rect width="6.684210526315789" height="40" x="236.6578947368421" y="380" stroke="none" fill="hsl(316, 73%, 52%)" rx="3.3421052631578947" transform="rotate(45, 240, 400)"></rect><rect width="40" height="6.684210526315789" x="300" y="396.6578947368421" stroke="none" fill="hsla(37, 91%, 55%, 1.00)" rx="3.3421052631578947" transform="rotate(45, 320, 400)"></rect><rect width="6.684210526315789" height="40" x="316.6578947368421" y="380" stroke="none" fill="hsla(37, 91%, 55%, 1.00)" rx="3.3421052631578947" transform="rotate(45, 320, 400)"></rect><rect width="40" height="6.684210526315789" x="380" y="396.6578947368421" stroke="none" fill="hsl(316, 73%, 52%)" rx="3.3421052631578947" transform="rotate(45, 400, 400)"></rect><rect width="6.684210526315789" height="40" x="396.6578947368421" y="380" stroke="none" fill="hsl(316, 73%, 52%)" rx="3.3421052631578947" transform="rotate(45, 400, 400)"></rect><rect width="40" height="6.684210526315789" x="460" y="396.6578947368421" stroke="none" fill="hsla(37, 91%, 55%, 1.00)" rx="3.3421052631578947" transform="rotate(45, 480, 400)"></rect><rect width="6.684210526315789" height="40" x="476.6578947368421" y="380" stroke="none" fill="hsla(37, 91%, 55%, 1.00)" rx="3.3421052631578947" transform="rotate(45, 480, 400)"></rect><rect width="40" height="6.684210526315789" x="540" y="396.6578947368421" stroke="none" fill="hsl(316, 73%, 52%)" rx="3.3421052631578947" transform="rotate(45, 560, 400)"></rect><rect width="6.684210526315789" height="40" x="556.6578947368421" y="380" stroke="none" fill="hsl(316, 73%, 52%)" rx="3.3421052631578947" transform="rotate(45, 560, 400)"></rect><rect width="40" height="6.684210526315789" x="620" y="396.6578947368421" stroke="none" fill="hsla(37, 91%, 55%, 1.00)" rx="3.3421052631578947" transform="rotate(45, 640, 400)"></rect><rect width="6.684210526315789" height="40" x="636.6578947368421" y="380" stroke="none" fill="hsla(37, 91%, 55%, 1.00)" rx="3.3421052631578947" transform="rotate(45, 640, 400)"></rect><rect width="40" height="6.684210526315789" x="700" y="396.6578947368421" stroke="none" fill="hsl(316, 73%, 52%)" rx="3.3421052631578947" transform="rotate(45, 720, 400)"></rect><rect width="6.684210526315789" height="40" x="716.6578947368421" y="380" stroke="none" fill="hsl(316, 73%, 52%)" rx="3.3421052631578947" transform="rotate(45, 720, 400)"></rect><rect width="40" height="6.684210526315789" x="780" y="396.6578947368421" stroke="none" fill="hsla(37, 91%, 55%, 1.00)" rx="3.3421052631578947" transform="rotate(45, 800, 400)"></rect><rect width="6.684210526315789" height="40" x="796.6578947368421" y="380" stroke="none" fill="hsla(37, 91%, 55%, 1.00)" rx="3.3421052631578947" transform="rotate(45, 800, 400)"></rect><rect width="40" height="6.684210526315789" x="-20" y="476.6578947368421" stroke="none" fill="hsl(316, 73%, 52%)" rx="3.3421052631578947" transform="rotate(45, 0, 480)"></rect><rect width="6.684210526315789" height="40" x="-3.3421052631578947" y="460" stroke="none" fill="hsl(316, 73%, 52%)" rx="3.3421052631578947" transform="rotate(45, 0, 480)"></rect><rect width="40" height="6.684210526315789" x="60" y="476.6578947368421" stroke="none" fill="hsla(37, 91%, 55%, 1.00)" rx="3.3421052631578947" transform="rotate(45, 80, 480)"></rect><rect width="6.684210526315789" height="40" x="76.65789473684211" y="460" stroke="none" fill="hsla(37, 91%, 55%, 1.00)" rx="3.3421052631578947" transform="rotate(45, 80, 480)"></rect><rect width="40" height="6.684210526315789" x="140" y="476.6578947368421" stroke="none" fill="hsl(316, 73%, 52%)" rx="3.3421052631578947" transform="rotate(45, 160, 480)"></rect><rect width="6.684210526315789" height="40" x="156.6578947368421" y="460" stroke="none" fill="hsl(316, 73%, 52%)" rx="3.3421052631578947" transform="rotate(45, 160, 480)"></rect><rect width="40" height="6.684210526315789" x="220" y="476.6578947368421" stroke="none" fill="hsla(37, 91%, 55%, 1.00)" rx="3.3421052631578947" transform="rotate(45, 240, 480)"></rect><rect width="6.684210526315789" height="40" x="236.6578947368421" y="460" stroke="none" fill="hsla(37, 91%, 55%, 1.00)" rx="3.3421052631578947" transform="rotate(45, 240, 480)"></rect><rect width="40" height="6.684210526315789" x="300" y="476.6578947368421" stroke="none" fill="hsl(316, 73%, 52%)" rx="3.3421052631578947" transform="rotate(45, 320, 480)"></rect><rect width="6.684210526315789" height="40" x="316.6578947368421" y="460" stroke="none" fill="hsl(316, 73%, 52%)" rx="3.3421052631578947" transform="rotate(45, 320, 480)"></rect><rect width="40" height="6.684210526315789" x="380" y="476.6578947368421" stroke="none" fill="hsla(37, 91%, 55%, 1.00)" rx="3.3421052631578947" transform="rotate(45, 400, 480)"></rect><rect width="6.684210526315789" height="40" x="396.6578947368421" y="460" stroke="none" fill="hsla(37, 91%, 55%, 1.00)" rx="3.3421052631578947" transform="rotate(45, 400, 480)"></rect><rect width="40" height="6.684210526315789" x="460" y="476.6578947368421" stroke="none" fill="hsl(316, 73%, 52%)" rx="3.3421052631578947" transform="rotate(45, 480, 480)"></rect><rect width="6.684210526315789" height="40" x="476.6578947368421" y="460" stroke="none" fill="hsl(316, 73%, 52%)" rx="3.3421052631578947" transform="rotate(45, 480, 480)"></rect><rect width="40" height="6.684210526315789" x="540" y="476.6578947368421" stroke="none" fill="hsla(37, 91%, 55%, 1.00)" rx="3.3421052631578947" transform="rotate(45, 560, 480)"></rect><rect width="6.684210526315789" height="40" x="556.6578947368421" y="460" stroke="none" fill="hsla(37, 91%, 55%, 1.00)" rx="3.3421052631578947" transform="rotate(45, 560, 480)"></rect><rect width="40" height="6.684210526315789" x="620" y="476.6578947368421" stroke="none" fill="hsl(316, 73%, 52%)" rx="3.3421052631578947" transform="rotate(45, 640, 480)"></rect><rect width="6.684210526315789" height="40" x="636.6578947368421" y="460" stroke="none" fill="hsl(316, 73%, 52%)" rx="3.3421052631578947" transform="rotate(45, 640, 480)"></rect><rect width="40" height="6.684210526315789" x="700" y="476.6578947368421" stroke="none" fill="hsla(37, 91%, 55%, 1.00)" rx="3.3421052631578947" transform="rotate(45, 720, 480)"></rect><rect width="6.684210526315789" height="40" x="716.6578947368421" y="460" stroke="none" fill="hsla(37, 91%, 55%, 1.00)" rx="3.3421052631578947" transform="rotate(45, 720, 480)"></rect><rect width="40" height="6.684210526315789" x="780" y="476.6578947368421" stroke="none" fill="hsl(316, 73%, 52%)" rx="3.3421052631578947" transform="rotate(45, 800, 480)"></rect><rect width="6.684210526315789" height="40" x="796.6578947368421" y="460" stroke="none" fill="hsl(316, 73%, 52%)" rx="3.3421052631578947" transform="rotate(45, 800, 480)"></rect><rect width="40" height="6.684210526315789" x="-20" y="556.6578947368421" stroke="none" fill="hsla(37, 91%, 55%, 1.00)" rx="3.3421052631578947" transform="rotate(45, 0, 560)"></rect><rect width="6.684210526315789" height="40" x="-3.3421052631578947" y="540" stroke="none" fill="hsla(37, 91%, 55%, 1.00)" rx="3.3421052631578947" transform="rotate(45, 0, 560)"></rect><rect width="40" height="6.684210526315789" x="60" y="556.6578947368421" stroke="none" fill="hsl(316, 73%, 52%)" rx="3.3421052631578947" transform="rotate(45, 80, 560)"></rect><rect width="6.684210526315789" height="40" x="76.65789473684211" y="540" stroke="none" fill="hsl(316, 73%, 52%)" rx="3.3421052631578947" transform="rotate(45, 80, 560)"></rect><rect width="40" height="6.684210526315789" x="140" y="556.6578947368421" stroke="none" fill="hsla(37, 91%, 55%, 1.00)" rx="3.3421052631578947" transform="rotate(45, 160, 560)"></rect><rect width="6.684210526315789" height="40" x="156.6578947368421" y="540" stroke="none" fill="hsla(37, 91%, 55%, 1.00)" rx="3.3421052631578947" transform="rotate(45, 160, 560)"></rect><rect width="40" height="6.684210526315789" x="220" y="556.6578947368421" stroke="none" fill="hsl(316, 73%, 52%)" rx="3.3421052631578947" transform="rotate(45, 240, 560)"></rect><rect width="6.684210526315789" height="40" x="236.6578947368421" y="540" stroke="none" fill="hsl(316, 73%, 52%)" rx="3.3421052631578947" transform="rotate(45, 240, 560)"></rect><rect width="40" height="6.684210526315789" x="300" y="556.6578947368421" stroke="none" fill="hsla(37, 91%, 55%, 1.00)" rx="3.3421052631578947" transform="rotate(45, 320, 560)"></rect><rect width="6.684210526315789" height="40" x="316.6578947368421" y="540" stroke="none" fill="hsla(37, 91%, 55%, 1.00)" rx="3.3421052631578947" transform="rotate(45, 320, 560)"></rect><rect width="40" height="6.684210526315789" x="380" y="556.6578947368421" stroke="none" fill="hsl(316, 73%, 52%)" rx="3.3421052631578947" transform="rotate(45, 400, 560)"></rect><rect width="6.684210526315789" height="40" x="396.6578947368421" y="540" stroke="none" fill="hsl(316, 73%, 52%)" rx="3.3421052631578947" transform="rotate(45, 400, 560)"></rect><rect width="40" height="6.684210526315789" x="460" y="556.6578947368421" stroke="none" fill="hsla(37, 91%, 55%, 1.00)" rx="3.3421052631578947" transform="rotate(45, 480, 560)"></rect><rect width="6.684210526315789" height="40" x="476.6578947368421" y="540" stroke="none" fill="hsla(37, 91%, 55%, 1.00)" rx="3.3421052631578947" transform="rotate(45, 480, 560)"></rect><rect width="40" height="6.684210526315789" x="540" y="556.6578947368421" stroke="none" fill="hsl(316, 73%, 52%)" rx="3.3421052631578947" transform="rotate(45, 560, 560)"></rect><rect width="6.684210526315789" height="40" x="556.6578947368421" y="540" stroke="none" fill="hsl(316, 73%, 52%)" rx="3.3421052631578947" transform="rotate(45, 560, 560)"></rect><rect width="40" height="6.684210526315789" x="620" y="556.6578947368421" stroke="none" fill="hsla(37, 91%, 55%, 1.00)" rx="3.3421052631578947" transform="rotate(45, 640, 560)"></rect><rect width="6.684210526315789" height="40" x="636.6578947368421" y="540" stroke="none" fill="hsla(37, 91%, 55%, 1.00)" rx="3.3421052631578947" transform="rotate(45, 640, 560)"></rect><rect width="40" height="6.684210526315789" x="700" y="556.6578947368421" stroke="none" fill="hsl(316, 73%, 52%)" rx="3.3421052631578947" transform="rotate(45, 720, 560)"></rect><rect width="6.684210526315789" height="40" x="716.6578947368421" y="540" stroke="none" fill="hsl(316, 73%, 52%)" rx="3.3421052631578947" transform="rotate(45, 720, 560)"></rect><rect width="40" height="6.684210526315789" x="780" y="556.6578947368421" stroke="none" fill="hsla(37, 91%, 55%, 1.00)" rx="3.3421052631578947" transform="rotate(45, 800, 560)"></rect><rect width="6.684210526315789" height="40" x="796.6578947368421" y="540" stroke="none" fill="hsla(37, 91%, 55%, 1.00)" rx="3.3421052631578947" transform="rotate(45, 800, 560)"></rect><rect width="40" height="6.684210526315789" x="-20" y="636.6578947368421" stroke="none" fill="hsl(316, 73%, 52%)" rx="3.3421052631578947" transform="rotate(45, 0, 640)"></rect><rect width="6.684210526315789" height="40" x="-3.3421052631578947" y="620" stroke="none" fill="hsl(316, 73%, 52%)" rx="3.3421052631578947" transform="rotate(45, 0, 640)"></rect><rect width="40" height="6.684210526315789" x="60" y="636.6578947368421" stroke="none" fill="hsla(37, 91%, 55%, 1.00)" rx="3.3421052631578947" transform="rotate(45, 80, 640)"></rect><rect width="6.684210526315789" height="40" x="76.65789473684211" y="620" stroke="none" fill="hsla(37, 91%, 55%, 1.00)" rx="3.3421052631578947" transform="rotate(45, 80, 640)"></rect><rect width="40" height="6.684210526315789" x="140" y="636.6578947368421" stroke="none" fill="hsl(316, 73%, 52%)" rx="3.3421052631578947" transform="rotate(45, 160, 640)"></rect><rect width="6.684210526315789" height="40" x="156.6578947368421" y="620" stroke="none" fill="hsl(316, 73%, 52%)" rx="3.3421052631578947" transform="rotate(45, 160, 640)"></rect><rect width="40" height="6.684210526315789" x="220" y="636.6578947368421" stroke="none" fill="hsla(37, 91%, 55%, 1.00)" rx="3.3421052631578947" transform="rotate(45, 240, 640)"></rect><rect width="6.684210526315789" height="40" x="236.6578947368421" y="620" stroke="none" fill="hsla(37, 91%, 55%, 1.00)" rx="3.3421052631578947" transform="rotate(45, 240, 640)"></rect><rect width="40" height="6.684210526315789" x="300" y="636.6578947368421" stroke="none" fill="hsl(316, 73%, 52%)" rx="3.3421052631578947" transform="rotate(45, 320, 640)"></rect><rect width="6.684210526315789" height="40" x="316.6578947368421" y="620" stroke="none" fill="hsl(316, 73%, 52%)" rx="3.3421052631578947" transform="rotate(45, 320, 640)"></rect><rect width="40" height="6.684210526315789" x="380" y="636.6578947368421" stroke="none" fill="hsla(37, 91%, 55%, 1.00)" rx="3.3421052631578947" transform="rotate(45, 400, 640)"></rect><rect width="6.684210526315789" height="40" x="396.6578947368421" y="620" stroke="none" fill="hsla(37, 91%, 55%, 1.00)" rx="3.3421052631578947" transform="rotate(45, 400, 640)"></rect><rect width="40" height="6.684210526315789" x="460" y="636.6578947368421" stroke="none" fill="hsl(316, 73%, 52%)" rx="3.3421052631578947" transform="rotate(45, 480, 640)"></rect><rect width="6.684210526315789" height="40" x="476.6578947368421" y="620" stroke="none" fill="hsl(316, 73%, 52%)" rx="3.3421052631578947" transform="rotate(45, 480, 640)"></rect><rect width="40" height="6.684210526315789" x="540" y="636.6578947368421" stroke="none" fill="hsla(37, 91%, 55%, 1.00)" rx="3.3421052631578947" transform="rotate(45, 560, 640)"></rect><rect width="6.684210526315789" height="40" x="556.6578947368421" y="620" stroke="none" fill="hsla(37, 91%, 55%, 1.00)" rx="3.3421052631578947" transform="rotate(45, 560, 640)"></rect><rect width="40" height="6.684210526315789" x="620" y="636.6578947368421" stroke="none" fill="hsl(316, 73%, 52%)" rx="3.3421052631578947" transform="rotate(45, 640, 640)"></rect><rect width="6.684210526315789" height="40" x="636.6578947368421" y="620" stroke="none" fill="hsl(316, 73%, 52%)" rx="3.3421052631578947" transform="rotate(45, 640, 640)"></rect><rect width="40" height="6.684210526315789" x="700" y="636.6578947368421" stroke="none" fill="hsla(37, 91%, 55%, 1.00)" rx="3.3421052631578947" transform="rotate(45, 720, 640)"></rect><rect width="6.684210526315789" height="40" x="716.6578947368421" y="620" stroke="none" fill="hsla(37, 91%, 55%, 1.00)" rx="3.3421052631578947" transform="rotate(45, 720, 640)"></rect><rect width="40" height="6.684210526315789" x="780" y="636.6578947368421" stroke="none" fill="hsl(316, 73%, 52%)" rx="3.3421052631578947" transform="rotate(45, 800, 640)"></rect><rect width="6.684210526315789" height="40" x="796.6578947368421" y="620" stroke="none" fill="hsl(316, 73%, 52%)" rx="3.3421052631578947" transform="rotate(45, 800, 640)"></rect><rect width="40" height="6.684210526315789" x="-20" y="716.6578947368421" stroke="none" fill="hsla(37, 91%, 55%, 1.00)" rx="3.3421052631578947" transform="rotate(45, 0, 720)"></rect><rect width="6.684210526315789" height="40" x="-3.3421052631578947" y="700" stroke="none" fill="hsla(37, 91%, 55%, 1.00)" rx="3.3421052631578947" transform="rotate(45, 0, 720)"></rect><rect width="40" height="6.684210526315789" x="60" y="716.6578947368421" stroke="none" fill="hsl(316, 73%, 52%)" rx="3.3421052631578947" transform="rotate(45, 80, 720)"></rect><rect width="6.684210526315789" height="40" x="76.65789473684211" y="700" stroke="none" fill="hsl(316, 73%, 52%)" rx="3.3421052631578947" transform="rotate(45, 80, 720)"></rect><rect width="40" height="6.684210526315789" x="140" y="716.6578947368421" stroke="none" fill="hsla(37, 91%, 55%, 1.00)" rx="3.3421052631578947" transform="rotate(45, 160, 720)"></rect><rect width="6.684210526315789" height="40" x="156.6578947368421" y="700" stroke="none" fill="hsla(37, 91%, 55%, 1.00)" rx="3.3421052631578947" transform="rotate(45, 160, 720)"></rect><rect width="40" height="6.684210526315789" x="220" y="716.6578947368421" stroke="none" fill="hsl(316, 73%, 52%)" rx="3.3421052631578947" transform="rotate(45, 240, 720)"></rect><rect width="6.684210526315789" height="40" x="236.6578947368421" y="700" stroke="none" fill="hsl(316, 73%, 52%)" rx="3.3421052631578947" transform="rotate(45, 240, 720)"></rect><rect width="40" height="6.684210526315789" x="300" y="716.6578947368421" stroke="none" fill="hsla(37, 91%, 55%, 1.00)" rx="3.3421052631578947" transform="rotate(45, 320, 720)"></rect><rect width="6.684210526315789" height="40" x="316.6578947368421" y="700" stroke="none" fill="hsla(37, 91%, 55%, 1.00)" rx="3.3421052631578947" transform="rotate(45, 320, 720)"></rect><rect width="40" height="6.684210526315789" x="380" y="716.6578947368421" stroke="none" fill="hsl(316, 73%, 52%)" rx="3.3421052631578947" transform="rotate(45, 400, 720)"></rect><rect width="6.684210526315789" height="40" x="396.6578947368421" y="700" stroke="none" fill="hsl(316, 73%, 52%)" rx="3.3421052631578947" transform="rotate(45, 400, 720)"></rect><rect width="40" height="6.684210526315789" x="460" y="716.6578947368421" stroke="none" fill="hsla(37, 91%, 55%, 1.00)" rx="3.3421052631578947" transform="rotate(45, 480, 720)"></rect><rect width="6.684210526315789" height="40" x="476.6578947368421" y="700" stroke="none" fill="hsla(37, 91%, 55%, 1.00)" rx="3.3421052631578947" transform="rotate(45, 480, 720)"></rect><rect width="40" height="6.684210526315789" x="540" y="716.6578947368421" stroke="none" fill="hsl(316, 73%, 52%)" rx="3.3421052631578947" transform="rotate(45, 560, 720)"></rect><rect width="6.684210526315789" height="40" x="556.6578947368421" y="700" stroke="none" fill="hsl(316, 73%, 52%)" rx="3.3421052631578947" transform="rotate(45, 560, 720)"></rect><rect width="40" height="6.684210526315789" x="620" y="716.6578947368421" stroke="none" fill="hsla(37, 91%, 55%, 1.00)" rx="3.3421052631578947" transform="rotate(45, 640, 720)"></rect><rect width="6.684210526315789" height="40" x="636.6578947368421" y="700" stroke="none" fill="hsla(37, 91%, 55%, 1.00)" rx="3.3421052631578947" transform="rotate(45, 640, 720)"></rect><rect width="40" height="6.684210526315789" x="700" y="716.6578947368421" stroke="none" fill="hsl(316, 73%, 52%)" rx="3.3421052631578947" transform="rotate(45, 720, 720)"></rect><rect width="6.684210526315789" height="40" x="716.6578947368421" y="700" stroke="none" fill="hsl(316, 73%, 52%)" rx="3.3421052631578947" transform="rotate(45, 720, 720)"></rect><rect width="40" height="6.684210526315789" x="780" y="716.6578947368421" stroke="none" fill="hsla(37, 91%, 55%, 1.00)" rx="3.3421052631578947" transform="rotate(45, 800, 720)"></rect><rect width="6.684210526315789" height="40" x="796.6578947368421" y="700" stroke="none" fill="hsla(37, 91%, 55%, 1.00)" rx="3.3421052631578947" transform="rotate(45, 800, 720)"></rect><rect width="40" height="6.684210526315789" x="-20" y="796.6578947368421" stroke="none" fill="hsl(316, 73%, 52%)" rx="3.3421052631578947" transform="rotate(45, 0, 800)"></rect><rect width="6.684210526315789" height="40" x="-3.3421052631578947" y="780" stroke="none" fill="hsl(316, 73%, 52%)" rx="3.3421052631578947" transform="rotate(45, 0, 800)"></rect><rect width="40" height="6.684210526315789" x="60" y="796.6578947368421" stroke="none" fill="hsla(37, 91%, 55%, 1.00)" rx="3.3421052631578947" transform="rotate(45, 80, 800)"></rect><rect width="6.684210526315789" height="40" x="76.65789473684211" y="780" stroke="none" fill="hsla(37, 91%, 55%, 1.00)" rx="3.3421052631578947" transform="rotate(45, 80, 800)"></rect><rect width="40" height="6.684210526315789" x="140" y="796.6578947368421" stroke="none" fill="hsl(316, 73%, 52%)" rx="3.3421052631578947" transform="rotate(45, 160, 800)"></rect><rect width="6.684210526315789" height="40" x="156.6578947368421" y="780" stroke="none" fill="hsl(316, 73%, 52%)" rx="3.3421052631578947" transform="rotate(45, 160, 800)"></rect><rect width="40" height="6.684210526315789" x="220" y="796.6578947368421" stroke="none" fill="hsla(37, 91%, 55%, 1.00)" rx="3.3421052631578947" transform="rotate(45, 240, 800)"></rect><rect width="6.684210526315789" height="40" x="236.6578947368421" y="780" stroke="none" fill="hsla(37, 91%, 55%, 1.00)" rx="3.3421052631578947" transform="rotate(45, 240, 800)"></rect><rect width="40" height="6.684210526315789" x="300" y="796.6578947368421" stroke="none" fill="hsl(316, 73%, 52%)" rx="3.3421052631578947" transform="rotate(45, 320, 800)"></rect><rect width="6.684210526315789" height="40" x="316.6578947368421" y="780" stroke="none" fill="hsl(316, 73%, 52%)" rx="3.3421052631578947" transform="rotate(45, 320, 800)"></rect><rect width="40" height="6.684210526315789" x="380" y="796.6578947368421" stroke="none" fill="hsla(37, 91%, 55%, 1.00)" rx="3.3421052631578947" transform="rotate(45, 400, 800)"></rect><rect width="6.684210526315789" height="40" x="396.6578947368421" y="780" stroke="none" fill="hsla(37, 91%, 55%, 1.00)" rx="3.3421052631578947" transform="rotate(45, 400, 800)"></rect><rect width="40" height="6.684210526315789" x="460" y="796.6578947368421" stroke="none" fill="hsl(316, 73%, 52%)" rx="3.3421052631578947" transform="rotate(45, 480, 800)"></rect><rect width="6.684210526315789" height="40" x="476.6578947368421" y="780" stroke="none" fill="hsl(316, 73%, 52%)" rx="3.3421052631578947" transform="rotate(45, 480, 800)"></rect><rect width="40" height="6.684210526315789" x="540" y="796.6578947368421" stroke="none" fill="hsla(37, 91%, 55%, 1.00)" rx="3.3421052631578947" transform="rotate(45, 560, 800)"></rect><rect width="6.684210526315789" height="40" x="556.6578947368421" y="780" stroke="none" fill="hsla(37, 91%, 55%, 1.00)" rx="3.3421052631578947" transform="rotate(45, 560, 800)"></rect><rect width="40" height="6.684210526315789" x="620" y="796.6578947368421" stroke="none" fill="hsl(316, 73%, 52%)" rx="3.3421052631578947" transform="rotate(45, 640, 800)"></rect><rect width="6.684210526315789" height="40" x="636.6578947368421" y="780" stroke="none" fill="hsl(316, 73%, 52%)" rx="3.3421052631578947" transform="rotate(45, 640, 800)"></rect><rect width="40" height="6.684210526315789" x="700" y="796.6578947368421" stroke="none" fill="hsla(37, 91%, 55%, 1.00)" rx="3.3421052631578947" transform="rotate(45, 720, 800)"></rect><rect width="6.684210526315789" height="40" x="716.6578947368421" y="780" stroke="none" fill="hsla(37, 91%, 55%, 1.00)" rx="3.3421052631578947" transform="rotate(45, 720, 800)"></rect><rect width="40" height="6.684210526315789" x="780" y="796.6578947368421" stroke="none" fill="hsl(316, 73%, 52%)" rx="3.3421052631578947" transform="rotate(45, 800, 800)"></rect><rect width="6.684210526315789" height="40" x="796.6578947368421" y="780" stroke="none" fill="hsl(316, 73%, 52%)" rx="3.3421052631578947" transform="rotate(45, 800, 800)"></rect></g></svg>