<svg xmlns="http://www.w3.org/2000/svg" version="1.1" xmlns:xlink="http://www.w3.org/1999/xlink" xmlns:svgjs="http://svgjs.dev/svgjs" viewBox="0 0 800 800" opacity="0.35" width="800" height="800"><g stroke-width="6.25" stroke="hsla(37, 91%, 55%, 1.00)" fill="none"><rect width="40" height="15.526315789473685" x="-20" y="-7.7631578947368425" stroke="none" fill="hsl(316, 73%, 52%)" rx="7.7631578947368425" transform="rotate(45, 0, 0)"></rect><rect width="15.526315789473685" height="40" x="-7.7631578947368425" y="-20" stroke="none" fill="hsl(316, 73%, 52%)" rx="7.7631578947368425" transform="rotate(45, 0, 0)"></rect><rect width="40" height="15.526315789473685" x="60" y="-7.7631578947368425" stroke="none" fill="hsla(37, 91%, 55%, 1.00)" rx="7.7631578947368425" transform="rotate(45, 80, 0)"></rect><rect width="15.526315789473685" height="40" x="72.23684210526315" y="-20" stroke="none" fill="hsla(37, 91%, 55%, 1.00)" rx="7.7631578947368425" transform="rotate(45, 80, 0)"></rect><rect width="40" height="15.526315789473685" x="140" y="-7.7631578947368425" stroke="none" fill="hsl(316, 73%, 52%)" rx="7.7631578947368425" transform="rotate(45, 160, 0)"></rect><rect width="15.526315789473685" height="40" x="152.23684210526315" y="-20" stroke="none" fill="hsl(316, 73%, 52%)" rx="7.7631578947368425" transform="rotate(45, 160, 0)"></rect><rect width="40" height="15.526315789473685" x="220" y="-7.7631578947368425" stroke="none" fill="hsla(37, 91%, 55%, 1.00)" rx="7.7631578947368425" transform="rotate(45, 240, 0)"></rect><rect width="15.526315789473685" height="40" x="232.23684210526315" y="-20" stroke="none" fill="hsla(37, 91%, 55%, 1.00)" rx="7.7631578947368425" transform="rotate(45, 240, 0)"></rect><rect width="40" height="15.526315789473685" x="300" y="-7.7631578947368425" stroke="none" fill="hsl(316, 73%, 52%)" rx="7.7631578947368425" transform="rotate(45, 320, 0)"></rect><rect width="15.526315789473685" height="40" x="312.2368421052632" y="-20" stroke="none" fill="hsl(316, 73%, 52%)" rx="7.7631578947368425" transform="rotate(45, 320, 0)"></rect><rect width="40" height="15.526315789473685" x="380" y="-7.7631578947368425" stroke="none" fill="hsla(37, 91%, 55%, 1.00)" rx="7.7631578947368425" transform="rotate(45, 400, 0)"></rect><rect width="15.526315789473685" height="40" x="392.2368421052632" y="-20" stroke="none" fill="hsla(37, 91%, 55%, 1.00)" rx="7.7631578947368425" transform="rotate(45, 400, 0)"></rect><rect width="40" height="15.526315789473685" x="460" y="-7.7631578947368425" stroke="none" fill="hsl(316, 73%, 52%)" rx="7.7631578947368425" transform="rotate(45, 480, 0)"></rect><rect width="15.526315789473685" height="40" x="472.2368421052632" y="-20" stroke="none" fill="hsl(316, 73%, 52%)" rx="7.7631578947368425" transform="rotate(45, 480, 0)"></rect><rect width="40" height="15.526315789473685" x="540" y="-7.7631578947368425" stroke="none" fill="hsla(37, 91%, 55%, 1.00)" rx="7.7631578947368425" transform="rotate(45, 560, 0)"></rect><rect width="15.526315789473685" height="40" x="552.2368421052631" y="-20" stroke="none" fill="hsla(37, 91%, 55%, 1.00)" rx="7.7631578947368425" transform="rotate(45, 560, 0)"></rect><rect width="40" height="15.526315789473685" x="620" y="-7.7631578947368425" stroke="none" fill="hsl(316, 73%, 52%)" rx="7.7631578947368425" transform="rotate(45, 640, 0)"></rect><rect width="15.526315789473685" height="40" x="632.2368421052631" y="-20" stroke="none" fill="hsl(316, 73%, 52%)" rx="7.7631578947368425" transform="rotate(45, 640, 0)"></rect><rect width="40" height="15.526315789473685" x="700" y="-7.7631578947368425" stroke="none" fill="hsla(37, 91%, 55%, 1.00)" rx="7.7631578947368425" transform="rotate(45, 720, 0)"></rect><rect width="15.526315789473685" height="40" x="712.2368421052631" y="-20" stroke="none" fill="hsla(37, 91%, 55%, 1.00)" rx="7.7631578947368425" transform="rotate(45, 720, 0)"></rect><rect width="40" height="15.526315789473685" x="780" y="-7.7631578947368425" stroke="none" fill="hsl(316, 73%, 52%)" rx="7.7631578947368425" transform="rotate(45, 800, 0)"></rect><rect width="15.526315789473685" height="40" x="792.2368421052631" y="-20" stroke="none" fill="hsl(316, 73%, 52%)" rx="7.7631578947368425" transform="rotate(45, 800, 0)"></rect><rect width="40" height="15.526315789473685" x="-20" y="72.23684210526315" stroke="none" fill="hsla(37, 91%, 55%, 1.00)" rx="7.7631578947368425" transform="rotate(45, 0, 80)"></rect><rect width="15.526315789473685" height="40" x="-7.7631578947368425" y="60" stroke="none" fill="hsla(37, 91%, 55%, 1.00)" rx="7.7631578947368425" transform="rotate(45, 0, 80)"></rect><rect width="40" height="15.526315789473685" x="60" y="72.23684210526315" stroke="none" fill="hsl(316, 73%, 52%)" rx="7.7631578947368425" transform="rotate(45, 80, 80)"></rect><rect width="15.526315789473685" height="40" x="72.23684210526315" y="60" stroke="none" fill="hsl(316, 73%, 52%)" rx="7.7631578947368425" transform="rotate(45, 80, 80)"></rect><rect width="40" height="15.526315789473685" x="140" y="72.23684210526315" stroke="none" fill="hsla(37, 91%, 55%, 1.00)" rx="7.7631578947368425" transform="rotate(45, 160, 80)"></rect><rect width="15.526315789473685" height="40" x="152.23684210526315" y="60" stroke="none" fill="hsla(37, 91%, 55%, 1.00)" rx="7.7631578947368425" transform="rotate(45, 160, 80)"></rect><rect width="40" height="15.526315789473685" x="220" y="72.23684210526315" stroke="none" fill="hsl(316, 73%, 52%)" rx="7.7631578947368425" transform="rotate(45, 240, 80)"></rect><rect width="15.526315789473685" height="40" x="232.23684210526315" y="60" stroke="none" fill="hsl(316, 73%, 52%)" rx="7.7631578947368425" transform="rotate(45, 240, 80)"></rect><rect width="40" height="15.526315789473685" x="300" y="72.23684210526315" stroke="none" fill="hsla(37, 91%, 55%, 1.00)" rx="7.7631578947368425" transform="rotate(45, 320, 80)"></rect><rect width="15.526315789473685" height="40" x="312.2368421052632" y="60" stroke="none" fill="hsla(37, 91%, 55%, 1.00)" rx="7.7631578947368425" transform="rotate(45, 320, 80)"></rect><rect width="40" height="15.526315789473685" x="380" y="72.23684210526315" stroke="none" fill="hsl(316, 73%, 52%)" rx="7.7631578947368425" transform="rotate(45, 400, 80)"></rect><rect width="15.526315789473685" height="40" x="392.2368421052632" y="60" stroke="none" fill="hsl(316, 73%, 52%)" rx="7.7631578947368425" transform="rotate(45, 400, 80)"></rect><rect width="40" height="15.526315789473685" x="460" y="72.23684210526315" stroke="none" fill="hsla(37, 91%, 55%, 1.00)" rx="7.7631578947368425" transform="rotate(45, 480, 80)"></rect><rect width="15.526315789473685" height="40" x="472.2368421052632" y="60" stroke="none" fill="hsla(37, 91%, 55%, 1.00)" rx="7.7631578947368425" transform="rotate(45, 480, 80)"></rect><rect width="40" height="15.526315789473685" x="540" y="72.23684210526315" stroke="none" fill="hsl(316, 73%, 52%)" rx="7.7631578947368425" transform="rotate(45, 560, 80)"></rect><rect width="15.526315789473685" height="40" x="552.2368421052631" y="60" stroke="none" fill="hsl(316, 73%, 52%)" rx="7.7631578947368425" transform="rotate(45, 560, 80)"></rect><rect width="40" height="15.526315789473685" x="620" y="72.23684210526315" stroke="none" fill="hsla(37, 91%, 55%, 1.00)" rx="7.7631578947368425" transform="rotate(45, 640, 80)"></rect><rect width="15.526315789473685" height="40" x="632.2368421052631" y="60" stroke="none" fill="hsla(37, 91%, 55%, 1.00)" rx="7.7631578947368425" transform="rotate(45, 640, 80)"></rect><rect width="40" height="15.526315789473685" x="700" y="72.23684210526315" stroke="none" fill="hsl(316, 73%, 52%)" rx="7.7631578947368425" transform="rotate(45, 720, 80)"></rect><rect width="15.526315789473685" height="40" x="712.2368421052631" y="60" stroke="none" fill="hsl(316, 73%, 52%)" rx="7.7631578947368425" transform="rotate(45, 720, 80)"></rect><rect width="40" height="15.526315789473685" x="780" y="72.23684210526315" stroke="none" fill="hsla(37, 91%, 55%, 1.00)" rx="7.7631578947368425" transform="rotate(45, 800, 80)"></rect><rect width="15.526315789473685" height="40" x="792.2368421052631" y="60" stroke="none" fill="hsla(37, 91%, 55%, 1.00)" rx="7.7631578947368425" transform="rotate(45, 800, 80)"></rect><rect width="40" height="15.526315789473685" x="-20" y="152.23684210526315" stroke="none" fill="hsl(316, 73%, 52%)" rx="7.7631578947368425" transform="rotate(45, 0, 160)"></rect><rect width="15.526315789473685" height="40" x="-7.7631578947368425" y="140" stroke="none" fill="hsl(316, 73%, 52%)" rx="7.7631578947368425" transform="rotate(45, 0, 160)"></rect><rect width="40" height="15.526315789473685" x="60" y="152.23684210526315" stroke="none" fill="hsla(37, 91%, 55%, 1.00)" rx="7.7631578947368425" transform="rotate(45, 80, 160)"></rect><rect width="15.526315789473685" height="40" x="72.23684210526315" y="140" stroke="none" fill="hsla(37, 91%, 55%, 1.00)" rx="7.7631578947368425" transform="rotate(45, 80, 160)"></rect><rect width="40" height="15.526315789473685" x="140" y="152.23684210526315" stroke="none" fill="hsl(316, 73%, 52%)" rx="7.7631578947368425" transform="rotate(45, 160, 160)"></rect><rect width="15.526315789473685" height="40" x="152.23684210526315" y="140" stroke="none" fill="hsl(316, 73%, 52%)" rx="7.7631578947368425" transform="rotate(45, 160, 160)"></rect><rect width="40" height="15.526315789473685" x="220" y="152.23684210526315" stroke="none" fill="hsla(37, 91%, 55%, 1.00)" rx="7.7631578947368425" transform="rotate(45, 240, 160)"></rect><rect width="15.526315789473685" height="40" x="232.23684210526315" y="140" stroke="none" fill="hsla(37, 91%, 55%, 1.00)" rx="7.7631578947368425" transform="rotate(45, 240, 160)"></rect><rect width="40" height="15.526315789473685" x="300" y="152.23684210526315" stroke="none" fill="hsl(316, 73%, 52%)" rx="7.7631578947368425" transform="rotate(45, 320, 160)"></rect><rect width="15.526315789473685" height="40" x="312.2368421052632" y="140" stroke="none" fill="hsl(316, 73%, 52%)" rx="7.7631578947368425" transform="rotate(45, 320, 160)"></rect><rect width="40" height="15.526315789473685" x="380" y="152.23684210526315" stroke="none" fill="hsla(37, 91%, 55%, 1.00)" rx="7.7631578947368425" transform="rotate(45, 400, 160)"></rect><rect width="15.526315789473685" height="40" x="392.2368421052632" y="140" stroke="none" fill="hsla(37, 91%, 55%, 1.00)" rx="7.7631578947368425" transform="rotate(45, 400, 160)"></rect><rect width="40" height="15.526315789473685" x="460" y="152.23684210526315" stroke="none" fill="hsl(316, 73%, 52%)" rx="7.7631578947368425" transform="rotate(45, 480, 160)"></rect><rect width="15.526315789473685" height="40" x="472.2368421052632" y="140" stroke="none" fill="hsl(316, 73%, 52%)" rx="7.7631578947368425" transform="rotate(45, 480, 160)"></rect><rect width="40" height="15.526315789473685" x="540" y="152.23684210526315" stroke="none" fill="hsla(37, 91%, 55%, 1.00)" rx="7.7631578947368425" transform="rotate(45, 560, 160)"></rect><rect width="15.526315789473685" height="40" x="552.2368421052631" y="140" stroke="none" fill="hsla(37, 91%, 55%, 1.00)" rx="7.7631578947368425" transform="rotate(45, 560, 160)"></rect><rect width="40" height="15.526315789473685" x="620" y="152.23684210526315" stroke="none" fill="hsl(316, 73%, 52%)" rx="7.7631578947368425" transform="rotate(45, 640, 160)"></rect><rect width="15.526315789473685" height="40" x="632.2368421052631" y="140" stroke="none" fill="hsl(316, 73%, 52%)" rx="7.7631578947368425" transform="rotate(45, 640, 160)"></rect><rect width="40" height="15.526315789473685" x="700" y="152.23684210526315" stroke="none" fill="hsla(37, 91%, 55%, 1.00)" rx="7.7631578947368425" transform="rotate(45, 720, 160)"></rect><rect width="15.526315789473685" height="40" x="712.2368421052631" y="140" stroke="none" fill="hsla(37, 91%, 55%, 1.00)" rx="7.7631578947368425" transform="rotate(45, 720, 160)"></rect><rect width="40" height="15.526315789473685" x="780" y="152.23684210526315" stroke="none" fill="hsl(316, 73%, 52%)" rx="7.7631578947368425" transform="rotate(45, 800, 160)"></rect><rect width="15.526315789473685" height="40" x="792.2368421052631" y="140" stroke="none" fill="hsl(316, 73%, 52%)" rx="7.7631578947368425" transform="rotate(45, 800, 160)"></rect><rect width="40" height="15.526315789473685" x="-20" y="232.23684210526315" stroke="none" fill="hsla(37, 91%, 55%, 1.00)" rx="7.7631578947368425" transform="rotate(45, 0, 240)"></rect><rect width="15.526315789473685" height="40" x="-7.7631578947368425" y="220" stroke="none" fill="hsla(37, 91%, 55%, 1.00)" rx="7.7631578947368425" transform="rotate(45, 0, 240)"></rect><rect width="40" height="15.526315789473685" x="60" y="232.23684210526315" stroke="none" fill="hsl(316, 73%, 52%)" rx="7.7631578947368425" transform="rotate(45, 80, 240)"></rect><rect width="15.526315789473685" height="40" x="72.23684210526315" y="220" stroke="none" fill="hsl(316, 73%, 52%)" rx="7.7631578947368425" transform="rotate(45, 80, 240)"></rect><rect width="40" height="15.526315789473685" x="140" y="232.23684210526315" stroke="none" fill="hsla(37, 91%, 55%, 1.00)" rx="7.7631578947368425" transform="rotate(45, 160, 240)"></rect><rect width="15.526315789473685" height="40" x="152.23684210526315" y="220" stroke="none" fill="hsla(37, 91%, 55%, 1.00)" rx="7.7631578947368425" transform="rotate(45, 160, 240)"></rect><rect width="40" height="15.526315789473685" x="220" y="232.23684210526315" stroke="none" fill="hsl(316, 73%, 52%)" rx="7.7631578947368425" transform="rotate(45, 240, 240)"></rect><rect width="15.526315789473685" height="40" x="232.23684210526315" y="220" stroke="none" fill="hsl(316, 73%, 52%)" rx="7.7631578947368425" transform="rotate(45, 240, 240)"></rect><rect width="40" height="15.526315789473685" x="300" y="232.23684210526315" stroke="none" fill="hsla(37, 91%, 55%, 1.00)" rx="7.7631578947368425" transform="rotate(45, 320, 240)"></rect><rect width="15.526315789473685" height="40" x="312.2368421052632" y="220" stroke="none" fill="hsla(37, 91%, 55%, 1.00)" rx="7.7631578947368425" transform="rotate(45, 320, 240)"></rect><rect width="40" height="15.526315789473685" x="380" y="232.23684210526315" stroke="none" fill="hsl(316, 73%, 52%)" rx="7.7631578947368425" transform="rotate(45, 400, 240)"></rect><rect width="15.526315789473685" height="40" x="392.2368421052632" y="220" stroke="none" fill="hsl(316, 73%, 52%)" rx="7.7631578947368425" transform="rotate(45, 400, 240)"></rect><rect width="40" height="15.526315789473685" x="460" y="232.23684210526315" stroke="none" fill="hsla(37, 91%, 55%, 1.00)" rx="7.7631578947368425" transform="rotate(45, 480, 240)"></rect><rect width="15.526315789473685" height="40" x="472.2368421052632" y="220" stroke="none" fill="hsla(37, 91%, 55%, 1.00)" rx="7.7631578947368425" transform="rotate(45, 480, 240)"></rect><rect width="40" height="15.526315789473685" x="540" y="232.23684210526315" stroke="none" fill="hsl(316, 73%, 52%)" rx="7.7631578947368425" transform="rotate(45, 560, 240)"></rect><rect width="15.526315789473685" height="40" x="552.2368421052631" y="220" stroke="none" fill="hsl(316, 73%, 52%)" rx="7.7631578947368425" transform="rotate(45, 560, 240)"></rect><rect width="40" height="15.526315789473685" x="620" y="232.23684210526315" stroke="none" fill="hsla(37, 91%, 55%, 1.00)" rx="7.7631578947368425" transform="rotate(45, 640, 240)"></rect><rect width="15.526315789473685" height="40" x="632.2368421052631" y="220" stroke="none" fill="hsla(37, 91%, 55%, 1.00)" rx="7.7631578947368425" transform="rotate(45, 640, 240)"></rect><rect width="40" height="15.526315789473685" x="700" y="232.23684210526315" stroke="none" fill="hsl(316, 73%, 52%)" rx="7.7631578947368425" transform="rotate(45, 720, 240)"></rect><rect width="15.526315789473685" height="40" x="712.2368421052631" y="220" stroke="none" fill="hsl(316, 73%, 52%)" rx="7.7631578947368425" transform="rotate(45, 720, 240)"></rect><rect width="40" height="15.526315789473685" x="780" y="232.23684210526315" stroke="none" fill="hsla(37, 91%, 55%, 1.00)" rx="7.7631578947368425" transform="rotate(45, 800, 240)"></rect><rect width="15.526315789473685" height="40" x="792.2368421052631" y="220" stroke="none" fill="hsla(37, 91%, 55%, 1.00)" rx="7.7631578947368425" transform="rotate(45, 800, 240)"></rect><rect width="40" height="15.526315789473685" x="-20" y="312.2368421052632" stroke="none" fill="hsl(316, 73%, 52%)" rx="7.7631578947368425" transform="rotate(45, 0, 320)"></rect><rect width="15.526315789473685" height="40" x="-7.7631578947368425" y="300" stroke="none" fill="hsl(316, 73%, 52%)" rx="7.7631578947368425" transform="rotate(45, 0, 320)"></rect><rect width="40" height="15.526315789473685" x="60" y="312.2368421052632" stroke="none" fill="hsla(37, 91%, 55%, 1.00)" rx="7.7631578947368425" transform="rotate(45, 80, 320)"></rect><rect width="15.526315789473685" height="40" x="72.23684210526315" y="300" stroke="none" fill="hsla(37, 91%, 55%, 1.00)" rx="7.7631578947368425" transform="rotate(45, 80, 320)"></rect><rect width="40" height="15.526315789473685" x="140" y="312.2368421052632" stroke="none" fill="hsl(316, 73%, 52%)" rx="7.7631578947368425" transform="rotate(45, 160, 320)"></rect><rect width="15.526315789473685" height="40" x="152.23684210526315" y="300" stroke="none" fill="hsl(316, 73%, 52%)" rx="7.7631578947368425" transform="rotate(45, 160, 320)"></rect><rect width="40" height="15.526315789473685" x="220" y="312.2368421052632" stroke="none" fill="hsla(37, 91%, 55%, 1.00)" rx="7.7631578947368425" transform="rotate(45, 240, 320)"></rect><rect width="15.526315789473685" height="40" x="232.23684210526315" y="300" stroke="none" fill="hsla(37, 91%, 55%, 1.00)" rx="7.7631578947368425" transform="rotate(45, 240, 320)"></rect><rect width="40" height="15.526315789473685" x="300" y="312.2368421052632" stroke="none" fill="hsl(316, 73%, 52%)" rx="7.7631578947368425" transform="rotate(45, 320, 320)"></rect><rect width="15.526315789473685" height="40" x="312.2368421052632" y="300" stroke="none" fill="hsl(316, 73%, 52%)" rx="7.7631578947368425" transform="rotate(45, 320, 320)"></rect><rect width="40" height="15.526315789473685" x="380" y="312.2368421052632" stroke="none" fill="hsla(37, 91%, 55%, 1.00)" rx="7.7631578947368425" transform="rotate(45, 400, 320)"></rect><rect width="15.526315789473685" height="40" x="392.2368421052632" y="300" stroke="none" fill="hsla(37, 91%, 55%, 1.00)" rx="7.7631578947368425" transform="rotate(45, 400, 320)"></rect><rect width="40" height="15.526315789473685" x="460" y="312.2368421052632" stroke="none" fill="hsl(316, 73%, 52%)" rx="7.7631578947368425" transform="rotate(45, 480, 320)"></rect><rect width="15.526315789473685" height="40" x="472.2368421052632" y="300" stroke="none" fill="hsl(316, 73%, 52%)" rx="7.7631578947368425" transform="rotate(45, 480, 320)"></rect><rect width="40" height="15.526315789473685" x="540" y="312.2368421052632" stroke="none" fill="hsla(37, 91%, 55%, 1.00)" rx="7.7631578947368425" transform="rotate(45, 560, 320)"></rect><rect width="15.526315789473685" height="40" x="552.2368421052631" y="300" stroke="none" fill="hsla(37, 91%, 55%, 1.00)" rx="7.7631578947368425" transform="rotate(45, 560, 320)"></rect><rect width="40" height="15.526315789473685" x="620" y="312.2368421052632" stroke="none" fill="hsl(316, 73%, 52%)" rx="7.7631578947368425" transform="rotate(45, 640, 320)"></rect><rect width="15.526315789473685" height="40" x="632.2368421052631" y="300" stroke="none" fill="hsl(316, 73%, 52%)" rx="7.7631578947368425" transform="rotate(45, 640, 320)"></rect><rect width="40" height="15.526315789473685" x="700" y="312.2368421052632" stroke="none" fill="hsla(37, 91%, 55%, 1.00)" rx="7.7631578947368425" transform="rotate(45, 720, 320)"></rect><rect width="15.526315789473685" height="40" x="712.2368421052631" y="300" stroke="none" fill="hsla(37, 91%, 55%, 1.00)" rx="7.7631578947368425" transform="rotate(45, 720, 320)"></rect><rect width="40" height="15.526315789473685" x="780" y="312.2368421052632" stroke="none" fill="hsl(316, 73%, 52%)" rx="7.7631578947368425" transform="rotate(45, 800, 320)"></rect><rect width="15.526315789473685" height="40" x="792.2368421052631" y="300" stroke="none" fill="hsl(316, 73%, 52%)" rx="7.7631578947368425" transform="rotate(45, 800, 320)"></rect><rect width="40" height="15.526315789473685" x="-20" y="392.2368421052632" stroke="none" fill="hsla(37, 91%, 55%, 1.00)" rx="7.7631578947368425" transform="rotate(45, 0, 400)"></rect><rect width="15.526315789473685" height="40" x="-7.7631578947368425" y="380" stroke="none" fill="hsla(37, 91%, 55%, 1.00)" rx="7.7631578947368425" transform="rotate(45, 0, 400)"></rect><rect width="40" height="15.526315789473685" x="60" y="392.2368421052632" stroke="none" fill="hsl(316, 73%, 52%)" rx="7.7631578947368425" transform="rotate(45, 80, 400)"></rect><rect width="15.526315789473685" height="40" x="72.23684210526315" y="380" stroke="none" fill="hsl(316, 73%, 52%)" rx="7.7631578947368425" transform="rotate(45, 80, 400)"></rect><rect width="40" height="15.526315789473685" x="140" y="392.2368421052632" stroke="none" fill="hsla(37, 91%, 55%, 1.00)" rx="7.7631578947368425" transform="rotate(45, 160, 400)"></rect><rect width="15.526315789473685" height="40" x="152.23684210526315" y="380" stroke="none" fill="hsla(37, 91%, 55%, 1.00)" rx="7.7631578947368425" transform="rotate(45, 160, 400)"></rect><rect width="40" height="15.526315789473685" x="220" y="392.2368421052632" stroke="none" fill="hsl(316, 73%, 52%)" rx="7.7631578947368425" transform="rotate(45, 240, 400)"></rect><rect width="15.526315789473685" height="40" x="232.23684210526315" y="380" stroke="none" fill="hsl(316, 73%, 52%)" rx="7.7631578947368425" transform="rotate(45, 240, 400)"></rect><rect width="40" height="15.526315789473685" x="300" y="392.2368421052632" stroke="none" fill="hsla(37, 91%, 55%, 1.00)" rx="7.7631578947368425" transform="rotate(45, 320, 400)"></rect><rect width="15.526315789473685" height="40" x="312.2368421052632" y="380" stroke="none" fill="hsla(37, 91%, 55%, 1.00)" rx="7.7631578947368425" transform="rotate(45, 320, 400)"></rect><rect width="40" height="15.526315789473685" x="380" y="392.2368421052632" stroke="none" fill="hsl(316, 73%, 52%)" rx="7.7631578947368425" transform="rotate(45, 400, 400)"></rect><rect width="15.526315789473685" height="40" x="392.2368421052632" y="380" stroke="none" fill="hsl(316, 73%, 52%)" rx="7.7631578947368425" transform="rotate(45, 400, 400)"></rect><rect width="40" height="15.526315789473685" x="460" y="392.2368421052632" stroke="none" fill="hsla(37, 91%, 55%, 1.00)" rx="7.7631578947368425" transform="rotate(45, 480, 400)"></rect><rect width="15.526315789473685" height="40" x="472.2368421052632" y="380" stroke="none" fill="hsla(37, 91%, 55%, 1.00)" rx="7.7631578947368425" transform="rotate(45, 480, 400)"></rect><rect width="40" height="15.526315789473685" x="540" y="392.2368421052632" stroke="none" fill="hsl(316, 73%, 52%)" rx="7.7631578947368425" transform="rotate(45, 560, 400)"></rect><rect width="15.526315789473685" height="40" x="552.2368421052631" y="380" stroke="none" fill="hsl(316, 73%, 52%)" rx="7.7631578947368425" transform="rotate(45, 560, 400)"></rect><rect width="40" height="15.526315789473685" x="620" y="392.2368421052632" stroke="none" fill="hsla(37, 91%, 55%, 1.00)" rx="7.7631578947368425" transform="rotate(45, 640, 400)"></rect><rect width="15.526315789473685" height="40" x="632.2368421052631" y="380" stroke="none" fill="hsla(37, 91%, 55%, 1.00)" rx="7.7631578947368425" transform="rotate(45, 640, 400)"></rect><rect width="40" height="15.526315789473685" x="700" y="392.2368421052632" stroke="none" fill="hsl(316, 73%, 52%)" rx="7.7631578947368425" transform="rotate(45, 720, 400)"></rect><rect width="15.526315789473685" height="40" x="712.2368421052631" y="380" stroke="none" fill="hsl(316, 73%, 52%)" rx="7.7631578947368425" transform="rotate(45, 720, 400)"></rect><rect width="40" height="15.526315789473685" x="780" y="392.2368421052632" stroke="none" fill="hsla(37, 91%, 55%, 1.00)" rx="7.7631578947368425" transform="rotate(45, 800, 400)"></rect><rect width="15.526315789473685" height="40" x="792.2368421052631" y="380" stroke="none" fill="hsla(37, 91%, 55%, 1.00)" rx="7.7631578947368425" transform="rotate(45, 800, 400)"></rect><rect width="40" height="15.526315789473685" x="-20" y="472.2368421052632" stroke="none" fill="hsl(316, 73%, 52%)" rx="7.7631578947368425" transform="rotate(45, 0, 480)"></rect><rect width="15.526315789473685" height="40" x="-7.7631578947368425" y="460" stroke="none" fill="hsl(316, 73%, 52%)" rx="7.7631578947368425" transform="rotate(45, 0, 480)"></rect><rect width="40" height="15.526315789473685" x="60" y="472.2368421052632" stroke="none" fill="hsla(37, 91%, 55%, 1.00)" rx="7.7631578947368425" transform="rotate(45, 80, 480)"></rect><rect width="15.526315789473685" height="40" x="72.23684210526315" y="460" stroke="none" fill="hsla(37, 91%, 55%, 1.00)" rx="7.7631578947368425" transform="rotate(45, 80, 480)"></rect><rect width="40" height="15.526315789473685" x="140" y="472.2368421052632" stroke="none" fill="hsl(316, 73%, 52%)" rx="7.7631578947368425" transform="rotate(45, 160, 480)"></rect><rect width="15.526315789473685" height="40" x="152.23684210526315" y="460" stroke="none" fill="hsl(316, 73%, 52%)" rx="7.7631578947368425" transform="rotate(45, 160, 480)"></rect><rect width="40" height="15.526315789473685" x="220" y="472.2368421052632" stroke="none" fill="hsla(37, 91%, 55%, 1.00)" rx="7.7631578947368425" transform="rotate(45, 240, 480)"></rect><rect width="15.526315789473685" height="40" x="232.23684210526315" y="460" stroke="none" fill="hsla(37, 91%, 55%, 1.00)" rx="7.7631578947368425" transform="rotate(45, 240, 480)"></rect><rect width="40" height="15.526315789473685" x="300" y="472.2368421052632" stroke="none" fill="hsl(316, 73%, 52%)" rx="7.7631578947368425" transform="rotate(45, 320, 480)"></rect><rect width="15.526315789473685" height="40" x="312.2368421052632" y="460" stroke="none" fill="hsl(316, 73%, 52%)" rx="7.7631578947368425" transform="rotate(45, 320, 480)"></rect><rect width="40" height="15.526315789473685" x="380" y="472.2368421052632" stroke="none" fill="hsla(37, 91%, 55%, 1.00)" rx="7.7631578947368425" transform="rotate(45, 400, 480)"></rect><rect width="15.526315789473685" height="40" x="392.2368421052632" y="460" stroke="none" fill="hsla(37, 91%, 55%, 1.00)" rx="7.7631578947368425" transform="rotate(45, 400, 480)"></rect><rect width="40" height="15.526315789473685" x="460" y="472.2368421052632" stroke="none" fill="hsl(316, 73%, 52%)" rx="7.7631578947368425" transform="rotate(45, 480, 480)"></rect><rect width="15.526315789473685" height="40" x="472.2368421052632" y="460" stroke="none" fill="hsl(316, 73%, 52%)" rx="7.7631578947368425" transform="rotate(45, 480, 480)"></rect><rect width="40" height="15.526315789473685" x="540" y="472.2368421052632" stroke="none" fill="hsla(37, 91%, 55%, 1.00)" rx="7.7631578947368425" transform="rotate(45, 560, 480)"></rect><rect width="15.526315789473685" height="40" x="552.2368421052631" y="460" stroke="none" fill="hsla(37, 91%, 55%, 1.00)" rx="7.7631578947368425" transform="rotate(45, 560, 480)"></rect><rect width="40" height="15.526315789473685" x="620" y="472.2368421052632" stroke="none" fill="hsl(316, 73%, 52%)" rx="7.7631578947368425" transform="rotate(45, 640, 480)"></rect><rect width="15.526315789473685" height="40" x="632.2368421052631" y="460" stroke="none" fill="hsl(316, 73%, 52%)" rx="7.7631578947368425" transform="rotate(45, 640, 480)"></rect><rect width="40" height="15.526315789473685" x="700" y="472.2368421052632" stroke="none" fill="hsla(37, 91%, 55%, 1.00)" rx="7.7631578947368425" transform="rotate(45, 720, 480)"></rect><rect width="15.526315789473685" height="40" x="712.2368421052631" y="460" stroke="none" fill="hsla(37, 91%, 55%, 1.00)" rx="7.7631578947368425" transform="rotate(45, 720, 480)"></rect><rect width="40" height="15.526315789473685" x="780" y="472.2368421052632" stroke="none" fill="hsl(316, 73%, 52%)" rx="7.7631578947368425" transform="rotate(45, 800, 480)"></rect><rect width="15.526315789473685" height="40" x="792.2368421052631" y="460" stroke="none" fill="hsl(316, 73%, 52%)" rx="7.7631578947368425" transform="rotate(45, 800, 480)"></rect><rect width="40" height="15.526315789473685" x="-20" y="552.2368421052631" stroke="none" fill="hsla(37, 91%, 55%, 1.00)" rx="7.7631578947368425" transform="rotate(45, 0, 560)"></rect><rect width="15.526315789473685" height="40" x="-7.7631578947368425" y="540" stroke="none" fill="hsla(37, 91%, 55%, 1.00)" rx="7.7631578947368425" transform="rotate(45, 0, 560)"></rect><rect width="40" height="15.526315789473685" x="60" y="552.2368421052631" stroke="none" fill="hsl(316, 73%, 52%)" rx="7.7631578947368425" transform="rotate(45, 80, 560)"></rect><rect width="15.526315789473685" height="40" x="72.23684210526315" y="540" stroke="none" fill="hsl(316, 73%, 52%)" rx="7.7631578947368425" transform="rotate(45, 80, 560)"></rect><rect width="40" height="15.526315789473685" x="140" y="552.2368421052631" stroke="none" fill="hsla(37, 91%, 55%, 1.00)" rx="7.7631578947368425" transform="rotate(45, 160, 560)"></rect><rect width="15.526315789473685" height="40" x="152.23684210526315" y="540" stroke="none" fill="hsla(37, 91%, 55%, 1.00)" rx="7.7631578947368425" transform="rotate(45, 160, 560)"></rect><rect width="40" height="15.526315789473685" x="220" y="552.2368421052631" stroke="none" fill="hsl(316, 73%, 52%)" rx="7.7631578947368425" transform="rotate(45, 240, 560)"></rect><rect width="15.526315789473685" height="40" x="232.23684210526315" y="540" stroke="none" fill="hsl(316, 73%, 52%)" rx="7.7631578947368425" transform="rotate(45, 240, 560)"></rect><rect width="40" height="15.526315789473685" x="300" y="552.2368421052631" stroke="none" fill="hsla(37, 91%, 55%, 1.00)" rx="7.7631578947368425" transform="rotate(45, 320, 560)"></rect><rect width="15.526315789473685" height="40" x="312.2368421052632" y="540" stroke="none" fill="hsla(37, 91%, 55%, 1.00)" rx="7.7631578947368425" transform="rotate(45, 320, 560)"></rect><rect width="40" height="15.526315789473685" x="380" y="552.2368421052631" stroke="none" fill="hsl(316, 73%, 52%)" rx="7.7631578947368425" transform="rotate(45, 400, 560)"></rect><rect width="15.526315789473685" height="40" x="392.2368421052632" y="540" stroke="none" fill="hsl(316, 73%, 52%)" rx="7.7631578947368425" transform="rotate(45, 400, 560)"></rect><rect width="40" height="15.526315789473685" x="460" y="552.2368421052631" stroke="none" fill="hsla(37, 91%, 55%, 1.00)" rx="7.7631578947368425" transform="rotate(45, 480, 560)"></rect><rect width="15.526315789473685" height="40" x="472.2368421052632" y="540" stroke="none" fill="hsla(37, 91%, 55%, 1.00)" rx="7.7631578947368425" transform="rotate(45, 480, 560)"></rect><rect width="40" height="15.526315789473685" x="540" y="552.2368421052631" stroke="none" fill="hsl(316, 73%, 52%)" rx="7.7631578947368425" transform="rotate(45, 560, 560)"></rect><rect width="15.526315789473685" height="40" x="552.2368421052631" y="540" stroke="none" fill="hsl(316, 73%, 52%)" rx="7.7631578947368425" transform="rotate(45, 560, 560)"></rect><rect width="40" height="15.526315789473685" x="620" y="552.2368421052631" stroke="none" fill="hsla(37, 91%, 55%, 1.00)" rx="7.7631578947368425" transform="rotate(45, 640, 560)"></rect><rect width="15.526315789473685" height="40" x="632.2368421052631" y="540" stroke="none" fill="hsla(37, 91%, 55%, 1.00)" rx="7.7631578947368425" transform="rotate(45, 640, 560)"></rect><rect width="40" height="15.526315789473685" x="700" y="552.2368421052631" stroke="none" fill="hsl(316, 73%, 52%)" rx="7.7631578947368425" transform="rotate(45, 720, 560)"></rect><rect width="15.526315789473685" height="40" x="712.2368421052631" y="540" stroke="none" fill="hsl(316, 73%, 52%)" rx="7.7631578947368425" transform="rotate(45, 720, 560)"></rect><rect width="40" height="15.526315789473685" x="780" y="552.2368421052631" stroke="none" fill="hsla(37, 91%, 55%, 1.00)" rx="7.7631578947368425" transform="rotate(45, 800, 560)"></rect><rect width="15.526315789473685" height="40" x="792.2368421052631" y="540" stroke="none" fill="hsla(37, 91%, 55%, 1.00)" rx="7.7631578947368425" transform="rotate(45, 800, 560)"></rect><rect width="40" height="15.526315789473685" x="-20" y="632.2368421052631" stroke="none" fill="hsl(316, 73%, 52%)" rx="7.7631578947368425" transform="rotate(45, 0, 640)"></rect><rect width="15.526315789473685" height="40" x="-7.7631578947368425" y="620" stroke="none" fill="hsl(316, 73%, 52%)" rx="7.7631578947368425" transform="rotate(45, 0, 640)"></rect><rect width="40" height="15.526315789473685" x="60" y="632.2368421052631" stroke="none" fill="hsla(37, 91%, 55%, 1.00)" rx="7.7631578947368425" transform="rotate(45, 80, 640)"></rect><rect width="15.526315789473685" height="40" x="72.23684210526315" y="620" stroke="none" fill="hsla(37, 91%, 55%, 1.00)" rx="7.7631578947368425" transform="rotate(45, 80, 640)"></rect><rect width="40" height="15.526315789473685" x="140" y="632.2368421052631" stroke="none" fill="hsl(316, 73%, 52%)" rx="7.7631578947368425" transform="rotate(45, 160, 640)"></rect><rect width="15.526315789473685" height="40" x="152.23684210526315" y="620" stroke="none" fill="hsl(316, 73%, 52%)" rx="7.7631578947368425" transform="rotate(45, 160, 640)"></rect><rect width="40" height="15.526315789473685" x="220" y="632.2368421052631" stroke="none" fill="hsla(37, 91%, 55%, 1.00)" rx="7.7631578947368425" transform="rotate(45, 240, 640)"></rect><rect width="15.526315789473685" height="40" x="232.23684210526315" y="620" stroke="none" fill="hsla(37, 91%, 55%, 1.00)" rx="7.7631578947368425" transform="rotate(45, 240, 640)"></rect><rect width="40" height="15.526315789473685" x="300" y="632.2368421052631" stroke="none" fill="hsl(316, 73%, 52%)" rx="7.7631578947368425" transform="rotate(45, 320, 640)"></rect><rect width="15.526315789473685" height="40" x="312.2368421052632" y="620" stroke="none" fill="hsl(316, 73%, 52%)" rx="7.7631578947368425" transform="rotate(45, 320, 640)"></rect><rect width="40" height="15.526315789473685" x="380" y="632.2368421052631" stroke="none" fill="hsla(37, 91%, 55%, 1.00)" rx="7.7631578947368425" transform="rotate(45, 400, 640)"></rect><rect width="15.526315789473685" height="40" x="392.2368421052632" y="620" stroke="none" fill="hsla(37, 91%, 55%, 1.00)" rx="7.7631578947368425" transform="rotate(45, 400, 640)"></rect><rect width="40" height="15.526315789473685" x="460" y="632.2368421052631" stroke="none" fill="hsl(316, 73%, 52%)" rx="7.7631578947368425" transform="rotate(45, 480, 640)"></rect><rect width="15.526315789473685" height="40" x="472.2368421052632" y="620" stroke="none" fill="hsl(316, 73%, 52%)" rx="7.7631578947368425" transform="rotate(45, 480, 640)"></rect><rect width="40" height="15.526315789473685" x="540" y="632.2368421052631" stroke="none" fill="hsla(37, 91%, 55%, 1.00)" rx="7.7631578947368425" transform="rotate(45, 560, 640)"></rect><rect width="15.526315789473685" height="40" x="552.2368421052631" y="620" stroke="none" fill="hsla(37, 91%, 55%, 1.00)" rx="7.7631578947368425" transform="rotate(45, 560, 640)"></rect><rect width="40" height="15.526315789473685" x="620" y="632.2368421052631" stroke="none" fill="hsl(316, 73%, 52%)" rx="7.7631578947368425" transform="rotate(45, 640, 640)"></rect><rect width="15.526315789473685" height="40" x="632.2368421052631" y="620" stroke="none" fill="hsl(316, 73%, 52%)" rx="7.7631578947368425" transform="rotate(45, 640, 640)"></rect><rect width="40" height="15.526315789473685" x="700" y="632.2368421052631" stroke="none" fill="hsla(37, 91%, 55%, 1.00)" rx="7.7631578947368425" transform="rotate(45, 720, 640)"></rect><rect width="15.526315789473685" height="40" x="712.2368421052631" y="620" stroke="none" fill="hsla(37, 91%, 55%, 1.00)" rx="7.7631578947368425" transform="rotate(45, 720, 640)"></rect><rect width="40" height="15.526315789473685" x="780" y="632.2368421052631" stroke="none" fill="hsl(316, 73%, 52%)" rx="7.7631578947368425" transform="rotate(45, 800, 640)"></rect><rect width="15.526315789473685" height="40" x="792.2368421052631" y="620" stroke="none" fill="hsl(316, 73%, 52%)" rx="7.7631578947368425" transform="rotate(45, 800, 640)"></rect><rect width="40" height="15.526315789473685" x="-20" y="712.2368421052631" stroke="none" fill="hsla(37, 91%, 55%, 1.00)" rx="7.7631578947368425" transform="rotate(45, 0, 720)"></rect><rect width="15.526315789473685" height="40" x="-7.7631578947368425" y="700" stroke="none" fill="hsla(37, 91%, 55%, 1.00)" rx="7.7631578947368425" transform="rotate(45, 0, 720)"></rect><rect width="40" height="15.526315789473685" x="60" y="712.2368421052631" stroke="none" fill="hsl(316, 73%, 52%)" rx="7.7631578947368425" transform="rotate(45, 80, 720)"></rect><rect width="15.526315789473685" height="40" x="72.23684210526315" y="700" stroke="none" fill="hsl(316, 73%, 52%)" rx="7.7631578947368425" transform="rotate(45, 80, 720)"></rect><rect width="40" height="15.526315789473685" x="140" y="712.2368421052631" stroke="none" fill="hsla(37, 91%, 55%, 1.00)" rx="7.7631578947368425" transform="rotate(45, 160, 720)"></rect><rect width="15.526315789473685" height="40" x="152.23684210526315" y="700" stroke="none" fill="hsla(37, 91%, 55%, 1.00)" rx="7.7631578947368425" transform="rotate(45, 160, 720)"></rect><rect width="40" height="15.526315789473685" x="220" y="712.2368421052631" stroke="none" fill="hsl(316, 73%, 52%)" rx="7.7631578947368425" transform="rotate(45, 240, 720)"></rect><rect width="15.526315789473685" height="40" x="232.23684210526315" y="700" stroke="none" fill="hsl(316, 73%, 52%)" rx="7.7631578947368425" transform="rotate(45, 240, 720)"></rect><rect width="40" height="15.526315789473685" x="300" y="712.2368421052631" stroke="none" fill="hsla(37, 91%, 55%, 1.00)" rx="7.7631578947368425" transform="rotate(45, 320, 720)"></rect><rect width="15.526315789473685" height="40" x="312.2368421052632" y="700" stroke="none" fill="hsla(37, 91%, 55%, 1.00)" rx="7.7631578947368425" transform="rotate(45, 320, 720)"></rect><rect width="40" height="15.526315789473685" x="380" y="712.2368421052631" stroke="none" fill="hsl(316, 73%, 52%)" rx="7.7631578947368425" transform="rotate(45, 400, 720)"></rect><rect width="15.526315789473685" height="40" x="392.2368421052632" y="700" stroke="none" fill="hsl(316, 73%, 52%)" rx="7.7631578947368425" transform="rotate(45, 400, 720)"></rect><rect width="40" height="15.526315789473685" x="460" y="712.2368421052631" stroke="none" fill="hsla(37, 91%, 55%, 1.00)" rx="7.7631578947368425" transform="rotate(45, 480, 720)"></rect><rect width="15.526315789473685" height="40" x="472.2368421052632" y="700" stroke="none" fill="hsla(37, 91%, 55%, 1.00)" rx="7.7631578947368425" transform="rotate(45, 480, 720)"></rect><rect width="40" height="15.526315789473685" x="540" y="712.2368421052631" stroke="none" fill="hsl(316, 73%, 52%)" rx="7.7631578947368425" transform="rotate(45, 560, 720)"></rect><rect width="15.526315789473685" height="40" x="552.2368421052631" y="700" stroke="none" fill="hsl(316, 73%, 52%)" rx="7.7631578947368425" transform="rotate(45, 560, 720)"></rect><rect width="40" height="15.526315789473685" x="620" y="712.2368421052631" stroke="none" fill="hsla(37, 91%, 55%, 1.00)" rx="7.7631578947368425" transform="rotate(45, 640, 720)"></rect><rect width="15.526315789473685" height="40" x="632.2368421052631" y="700" stroke="none" fill="hsla(37, 91%, 55%, 1.00)" rx="7.7631578947368425" transform="rotate(45, 640, 720)"></rect><rect width="40" height="15.526315789473685" x="700" y="712.2368421052631" stroke="none" fill="hsl(316, 73%, 52%)" rx="7.7631578947368425" transform="rotate(45, 720, 720)"></rect><rect width="15.526315789473685" height="40" x="712.2368421052631" y="700" stroke="none" fill="hsl(316, 73%, 52%)" rx="7.7631578947368425" transform="rotate(45, 720, 720)"></rect><rect width="40" height="15.526315789473685" x="780" y="712.2368421052631" stroke="none" fill="hsla(37, 91%, 55%, 1.00)" rx="7.7631578947368425" transform="rotate(45, 800, 720)"></rect><rect width="15.526315789473685" height="40" x="792.2368421052631" y="700" stroke="none" fill="hsla(37, 91%, 55%, 1.00)" rx="7.7631578947368425" transform="rotate(45, 800, 720)"></rect><rect width="40" height="15.526315789473685" x="-20" y="792.2368421052631" stroke="none" fill="hsl(316, 73%, 52%)" rx="7.7631578947368425" transform="rotate(45, 0, 800)"></rect><rect width="15.526315789473685" height="40" x="-7.7631578947368425" y="780" stroke="none" fill="hsl(316, 73%, 52%)" rx="7.7631578947368425" transform="rotate(45, 0, 800)"></rect><rect width="40" height="15.526315789473685" x="60" y="792.2368421052631" stroke="none" fill="hsla(37, 91%, 55%, 1.00)" rx="7.7631578947368425" transform="rotate(45, 80, 800)"></rect><rect width="15.526315789473685" height="40" x="72.23684210526315" y="780" stroke="none" fill="hsla(37, 91%, 55%, 1.00)" rx="7.7631578947368425" transform="rotate(45, 80, 800)"></rect><rect width="40" height="15.526315789473685" x="140" y="792.2368421052631" stroke="none" fill="hsl(316, 73%, 52%)" rx="7.7631578947368425" transform="rotate(45, 160, 800)"></rect><rect width="15.526315789473685" height="40" x="152.23684210526315" y="780" stroke="none" fill="hsl(316, 73%, 52%)" rx="7.7631578947368425" transform="rotate(45, 160, 800)"></rect><rect width="40" height="15.526315789473685" x="220" y="792.2368421052631" stroke="none" fill="hsla(37, 91%, 55%, 1.00)" rx="7.7631578947368425" transform="rotate(45, 240, 800)"></rect><rect width="15.526315789473685" height="40" x="232.23684210526315" y="780" stroke="none" fill="hsla(37, 91%, 55%, 1.00)" rx="7.7631578947368425" transform="rotate(45, 240, 800)"></rect><rect width="40" height="15.526315789473685" x="300" y="792.2368421052631" stroke="none" fill="hsl(316, 73%, 52%)" rx="7.7631578947368425" transform="rotate(45, 320, 800)"></rect><rect width="15.526315789473685" height="40" x="312.2368421052632" y="780" stroke="none" fill="hsl(316, 73%, 52%)" rx="7.7631578947368425" transform="rotate(45, 320, 800)"></rect><rect width="40" height="15.526315789473685" x="380" y="792.2368421052631" stroke="none" fill="hsla(37, 91%, 55%, 1.00)" rx="7.7631578947368425" transform="rotate(45, 400, 800)"></rect><rect width="15.526315789473685" height="40" x="392.2368421052632" y="780" stroke="none" fill="hsla(37, 91%, 55%, 1.00)" rx="7.7631578947368425" transform="rotate(45, 400, 800)"></rect><rect width="40" height="15.526315789473685" x="460" y="792.2368421052631" stroke="none" fill="hsl(316, 73%, 52%)" rx="7.7631578947368425" transform="rotate(45, 480, 800)"></rect><rect width="15.526315789473685" height="40" x="472.2368421052632" y="780" stroke="none" fill="hsl(316, 73%, 52%)" rx="7.7631578947368425" transform="rotate(45, 480, 800)"></rect><rect width="40" height="15.526315789473685" x="540" y="792.2368421052631" stroke="none" fill="hsla(37, 91%, 55%, 1.00)" rx="7.7631578947368425" transform="rotate(45, 560, 800)"></rect><rect width="15.526315789473685" height="40" x="552.2368421052631" y="780" stroke="none" fill="hsla(37, 91%, 55%, 1.00)" rx="7.7631578947368425" transform="rotate(45, 560, 800)"></rect><rect width="40" height="15.526315789473685" x="620" y="792.2368421052631" stroke="none" fill="hsl(316, 73%, 52%)" rx="7.7631578947368425" transform="rotate(45, 640, 800)"></rect><rect width="15.526315789473685" height="40" x="632.2368421052631" y="780" stroke="none" fill="hsl(316, 73%, 52%)" rx="7.7631578947368425" transform="rotate(45, 640, 800)"></rect><rect width="40" height="15.526315789473685" x="700" y="792.2368421052631" stroke="none" fill="hsla(37, 91%, 55%, 1.00)" rx="7.7631578947368425" transform="rotate(45, 720, 800)"></rect><rect width="15.526315789473685" height="40" x="712.2368421052631" y="780" stroke="none" fill="hsla(37, 91%, 55%, 1.00)" rx="7.7631578947368425" transform="rotate(45, 720, 800)"></rect><rect width="40" height="15.526315789473685" x="780" y="792.2368421052631" stroke="none" fill="hsl(316, 73%, 52%)" rx="7.7631578947368425" transform="rotate(45, 800, 800)"></rect><rect width="15.526315789473685" height="40" x="792.2368421052631" y="780" stroke="none" fill="hsl(316, 73%, 52%)" rx="7.7631578947368425" transform="rotate(45, 800, 800)"></rect></g></svg>