<svg xmlns="http://www.w3.org/2000/svg" version="1.1" xmlns:xlink="http://www.w3.org/1999/xlink" xmlns:svgjs="http://svgjs.dev/svgjs" viewBox="0 0 800 800" opacity="0.35" width="800" height="800"><g stroke-width="0.75" stroke="hsla(37, 91%, 55%, 1.00)" fill="none"><rect width="40" height="1.631578947368421" x="-20" y="-0.8157894736842105" stroke="none" fill="hsl(316, 73%, 52%)" rx="0.8157894736842105" transform="rotate(45, 0, 0)"></rect><rect width="1.631578947368421" height="40" x="-0.8157894736842105" y="-20" stroke="none" fill="hsl(316, 73%, 52%)" rx="0.8157894736842105" transform="rotate(45, 0, 0)"></rect><rect width="40" height="1.631578947368421" x="60" y="-0.8157894736842105" stroke="none" fill="hsla(37, 91%, 55%, 1.00)" rx="0.8157894736842105" transform="rotate(45, 80, 0)"></rect><rect width="1.631578947368421" height="40" x="79.1842105263158" y="-20" stroke="none" fill="hsla(37, 91%, 55%, 1.00)" rx="0.8157894736842105" transform="rotate(45, 80, 0)"></rect><rect width="40" height="1.631578947368421" x="140" y="-0.8157894736842105" stroke="none" fill="hsl(316, 73%, 52%)" rx="0.8157894736842105" transform="rotate(45, 160, 0)"></rect><rect width="1.631578947368421" height="40" x="159.18421052631578" y="-20" stroke="none" fill="hsl(316, 73%, 52%)" rx="0.8157894736842105" transform="rotate(45, 160, 0)"></rect><rect width="40" height="1.631578947368421" x="220" y="-0.8157894736842105" stroke="none" fill="hsla(37, 91%, 55%, 1.00)" rx="0.8157894736842105" transform="rotate(45, 240, 0)"></rect><rect width="1.631578947368421" height="40" x="239.18421052631578" y="-20" stroke="none" fill="hsla(37, 91%, 55%, 1.00)" rx="0.8157894736842105" transform="rotate(45, 240, 0)"></rect><rect width="40" height="1.631578947368421" x="300" y="-0.8157894736842105" stroke="none" fill="hsl(316, 73%, 52%)" rx="0.8157894736842105" transform="rotate(45, 320, 0)"></rect><rect width="1.631578947368421" height="40" x="319.1842105263158" y="-20" stroke="none" fill="hsl(316, 73%, 52%)" rx="0.8157894736842105" transform="rotate(45, 320, 0)"></rect><rect width="40" height="1.631578947368421" x="380" y="-0.8157894736842105" stroke="none" fill="hsla(37, 91%, 55%, 1.00)" rx="0.8157894736842105" transform="rotate(45, 400, 0)"></rect><rect width="1.631578947368421" height="40" x="399.1842105263158" y="-20" stroke="none" fill="hsla(37, 91%, 55%, 1.00)" rx="0.8157894736842105" transform="rotate(45, 400, 0)"></rect><rect width="40" height="1.631578947368421" x="460" y="-0.8157894736842105" stroke="none" fill="hsl(316, 73%, 52%)" rx="0.8157894736842105" transform="rotate(45, 480, 0)"></rect><rect width="1.631578947368421" height="40" x="479.1842105263158" y="-20" stroke="none" fill="hsl(316, 73%, 52%)" rx="0.8157894736842105" transform="rotate(45, 480, 0)"></rect><rect width="40" height="1.631578947368421" x="540" y="-0.8157894736842105" stroke="none" fill="hsla(37, 91%, 55%, 1.00)" rx="0.8157894736842105" transform="rotate(45, 560, 0)"></rect><rect width="1.631578947368421" height="40" x="559.1842105263158" y="-20" stroke="none" fill="hsla(37, 91%, 55%, 1.00)" rx="0.8157894736842105" transform="rotate(45, 560, 0)"></rect><rect width="40" height="1.631578947368421" x="620" y="-0.8157894736842105" stroke="none" fill="hsl(316, 73%, 52%)" rx="0.8157894736842105" transform="rotate(45, 640, 0)"></rect><rect width="1.631578947368421" height="40" x="639.1842105263158" y="-20" stroke="none" fill="hsl(316, 73%, 52%)" rx="0.8157894736842105" transform="rotate(45, 640, 0)"></rect><rect width="40" height="1.631578947368421" x="700" y="-0.8157894736842105" stroke="none" fill="hsla(37, 91%, 55%, 1.00)" rx="0.8157894736842105" transform="rotate(45, 720, 0)"></rect><rect width="1.631578947368421" height="40" x="719.1842105263158" y="-20" stroke="none" fill="hsla(37, 91%, 55%, 1.00)" rx="0.8157894736842105" transform="rotate(45, 720, 0)"></rect><rect width="40" height="1.631578947368421" x="780" y="-0.8157894736842105" stroke="none" fill="hsl(316, 73%, 52%)" rx="0.8157894736842105" transform="rotate(45, 800, 0)"></rect><rect width="1.631578947368421" height="40" x="799.1842105263158" y="-20" stroke="none" fill="hsl(316, 73%, 52%)" rx="0.8157894736842105" transform="rotate(45, 800, 0)"></rect><rect width="40" height="1.631578947368421" x="-20" y="79.1842105263158" stroke="none" fill="hsla(37, 91%, 55%, 1.00)" rx="0.8157894736842105" transform="rotate(45, 0, 80)"></rect><rect width="1.631578947368421" height="40" x="-0.8157894736842105" y="60" stroke="none" fill="hsla(37, 91%, 55%, 1.00)" rx="0.8157894736842105" transform="rotate(45, 0, 80)"></rect><rect width="40" height="1.631578947368421" x="60" y="79.1842105263158" stroke="none" fill="hsl(316, 73%, 52%)" rx="0.8157894736842105" transform="rotate(45, 80, 80)"></rect><rect width="1.631578947368421" height="40" x="79.1842105263158" y="60" stroke="none" fill="hsl(316, 73%, 52%)" rx="0.8157894736842105" transform="rotate(45, 80, 80)"></rect><rect width="40" height="1.631578947368421" x="140" y="79.1842105263158" stroke="none" fill="hsla(37, 91%, 55%, 1.00)" rx="0.8157894736842105" transform="rotate(45, 160, 80)"></rect><rect width="1.631578947368421" height="40" x="159.18421052631578" y="60" stroke="none" fill="hsla(37, 91%, 55%, 1.00)" rx="0.8157894736842105" transform="rotate(45, 160, 80)"></rect><rect width="40" height="1.631578947368421" x="220" y="79.1842105263158" stroke="none" fill="hsl(316, 73%, 52%)" rx="0.8157894736842105" transform="rotate(45, 240, 80)"></rect><rect width="1.631578947368421" height="40" x="239.18421052631578" y="60" stroke="none" fill="hsl(316, 73%, 52%)" rx="0.8157894736842105" transform="rotate(45, 240, 80)"></rect><rect width="40" height="1.631578947368421" x="300" y="79.1842105263158" stroke="none" fill="hsla(37, 91%, 55%, 1.00)" rx="0.8157894736842105" transform="rotate(45, 320, 80)"></rect><rect width="1.631578947368421" height="40" x="319.1842105263158" y="60" stroke="none" fill="hsla(37, 91%, 55%, 1.00)" rx="0.8157894736842105" transform="rotate(45, 320, 80)"></rect><rect width="40" height="1.631578947368421" x="380" y="79.1842105263158" stroke="none" fill="hsl(316, 73%, 52%)" rx="0.8157894736842105" transform="rotate(45, 400, 80)"></rect><rect width="1.631578947368421" height="40" x="399.1842105263158" y="60" stroke="none" fill="hsl(316, 73%, 52%)" rx="0.8157894736842105" transform="rotate(45, 400, 80)"></rect><rect width="40" height="1.631578947368421" x="460" y="79.1842105263158" stroke="none" fill="hsla(37, 91%, 55%, 1.00)" rx="0.8157894736842105" transform="rotate(45, 480, 80)"></rect><rect width="1.631578947368421" height="40" x="479.1842105263158" y="60" stroke="none" fill="hsla(37, 91%, 55%, 1.00)" rx="0.8157894736842105" transform="rotate(45, 480, 80)"></rect><rect width="40" height="1.631578947368421" x="540" y="79.1842105263158" stroke="none" fill="hsl(316, 73%, 52%)" rx="0.8157894736842105" transform="rotate(45, 560, 80)"></rect><rect width="1.631578947368421" height="40" x="559.1842105263158" y="60" stroke="none" fill="hsl(316, 73%, 52%)" rx="0.8157894736842105" transform="rotate(45, 560, 80)"></rect><rect width="40" height="1.631578947368421" x="620" y="79.1842105263158" stroke="none" fill="hsla(37, 91%, 55%, 1.00)" rx="0.8157894736842105" transform="rotate(45, 640, 80)"></rect><rect width="1.631578947368421" height="40" x="639.1842105263158" y="60" stroke="none" fill="hsla(37, 91%, 55%, 1.00)" rx="0.8157894736842105" transform="rotate(45, 640, 80)"></rect><rect width="40" height="1.631578947368421" x="700" y="79.1842105263158" stroke="none" fill="hsl(316, 73%, 52%)" rx="0.8157894736842105" transform="rotate(45, 720, 80)"></rect><rect width="1.631578947368421" height="40" x="719.1842105263158" y="60" stroke="none" fill="hsl(316, 73%, 52%)" rx="0.8157894736842105" transform="rotate(45, 720, 80)"></rect><rect width="40" height="1.631578947368421" x="780" y="79.1842105263158" stroke="none" fill="hsla(37, 91%, 55%, 1.00)" rx="0.8157894736842105" transform="rotate(45, 800, 80)"></rect><rect width="1.631578947368421" height="40" x="799.1842105263158" y="60" stroke="none" fill="hsla(37, 91%, 55%, 1.00)" rx="0.8157894736842105" transform="rotate(45, 800, 80)"></rect><rect width="40" height="1.631578947368421" x="-20" y="159.18421052631578" stroke="none" fill="hsl(316, 73%, 52%)" rx="0.8157894736842105" transform="rotate(45, 0, 160)"></rect><rect width="1.631578947368421" height="40" x="-0.8157894736842105" y="140" stroke="none" fill="hsl(316, 73%, 52%)" rx="0.8157894736842105" transform="rotate(45, 0, 160)"></rect><rect width="40" height="1.631578947368421" x="60" y="159.18421052631578" stroke="none" fill="hsla(37, 91%, 55%, 1.00)" rx="0.8157894736842105" transform="rotate(45, 80, 160)"></rect><rect width="1.631578947368421" height="40" x="79.1842105263158" y="140" stroke="none" fill="hsla(37, 91%, 55%, 1.00)" rx="0.8157894736842105" transform="rotate(45, 80, 160)"></rect><rect width="40" height="1.631578947368421" x="140" y="159.18421052631578" stroke="none" fill="hsl(316, 73%, 52%)" rx="0.8157894736842105" transform="rotate(45, 160, 160)"></rect><rect width="1.631578947368421" height="40" x="159.18421052631578" y="140" stroke="none" fill="hsl(316, 73%, 52%)" rx="0.8157894736842105" transform="rotate(45, 160, 160)"></rect><rect width="40" height="1.631578947368421" x="220" y="159.18421052631578" stroke="none" fill="hsla(37, 91%, 55%, 1.00)" rx="0.8157894736842105" transform="rotate(45, 240, 160)"></rect><rect width="1.631578947368421" height="40" x="239.18421052631578" y="140" stroke="none" fill="hsla(37, 91%, 55%, 1.00)" rx="0.8157894736842105" transform="rotate(45, 240, 160)"></rect><rect width="40" height="1.631578947368421" x="300" y="159.18421052631578" stroke="none" fill="hsl(316, 73%, 52%)" rx="0.8157894736842105" transform="rotate(45, 320, 160)"></rect><rect width="1.631578947368421" height="40" x="319.1842105263158" y="140" stroke="none" fill="hsl(316, 73%, 52%)" rx="0.8157894736842105" transform="rotate(45, 320, 160)"></rect><rect width="40" height="1.631578947368421" x="380" y="159.18421052631578" stroke="none" fill="hsla(37, 91%, 55%, 1.00)" rx="0.8157894736842105" transform="rotate(45, 400, 160)"></rect><rect width="1.631578947368421" height="40" x="399.1842105263158" y="140" stroke="none" fill="hsla(37, 91%, 55%, 1.00)" rx="0.8157894736842105" transform="rotate(45, 400, 160)"></rect><rect width="40" height="1.631578947368421" x="460" y="159.18421052631578" stroke="none" fill="hsl(316, 73%, 52%)" rx="0.8157894736842105" transform="rotate(45, 480, 160)"></rect><rect width="1.631578947368421" height="40" x="479.1842105263158" y="140" stroke="none" fill="hsl(316, 73%, 52%)" rx="0.8157894736842105" transform="rotate(45, 480, 160)"></rect><rect width="40" height="1.631578947368421" x="540" y="159.18421052631578" stroke="none" fill="hsla(37, 91%, 55%, 1.00)" rx="0.8157894736842105" transform="rotate(45, 560, 160)"></rect><rect width="1.631578947368421" height="40" x="559.1842105263158" y="140" stroke="none" fill="hsla(37, 91%, 55%, 1.00)" rx="0.8157894736842105" transform="rotate(45, 560, 160)"></rect><rect width="40" height="1.631578947368421" x="620" y="159.18421052631578" stroke="none" fill="hsl(316, 73%, 52%)" rx="0.8157894736842105" transform="rotate(45, 640, 160)"></rect><rect width="1.631578947368421" height="40" x="639.1842105263158" y="140" stroke="none" fill="hsl(316, 73%, 52%)" rx="0.8157894736842105" transform="rotate(45, 640, 160)"></rect><rect width="40" height="1.631578947368421" x="700" y="159.18421052631578" stroke="none" fill="hsla(37, 91%, 55%, 1.00)" rx="0.8157894736842105" transform="rotate(45, 720, 160)"></rect><rect width="1.631578947368421" height="40" x="719.1842105263158" y="140" stroke="none" fill="hsla(37, 91%, 55%, 1.00)" rx="0.8157894736842105" transform="rotate(45, 720, 160)"></rect><rect width="40" height="1.631578947368421" x="780" y="159.18421052631578" stroke="none" fill="hsl(316, 73%, 52%)" rx="0.8157894736842105" transform="rotate(45, 800, 160)"></rect><rect width="1.631578947368421" height="40" x="799.1842105263158" y="140" stroke="none" fill="hsl(316, 73%, 52%)" rx="0.8157894736842105" transform="rotate(45, 800, 160)"></rect><rect width="40" height="1.631578947368421" x="-20" y="239.18421052631578" stroke="none" fill="hsla(37, 91%, 55%, 1.00)" rx="0.8157894736842105" transform="rotate(45, 0, 240)"></rect><rect width="1.631578947368421" height="40" x="-0.8157894736842105" y="220" stroke="none" fill="hsla(37, 91%, 55%, 1.00)" rx="0.8157894736842105" transform="rotate(45, 0, 240)"></rect><rect width="40" height="1.631578947368421" x="60" y="239.18421052631578" stroke="none" fill="hsl(316, 73%, 52%)" rx="0.8157894736842105" transform="rotate(45, 80, 240)"></rect><rect width="1.631578947368421" height="40" x="79.1842105263158" y="220" stroke="none" fill="hsl(316, 73%, 52%)" rx="0.8157894736842105" transform="rotate(45, 80, 240)"></rect><rect width="40" height="1.631578947368421" x="140" y="239.18421052631578" stroke="none" fill="hsla(37, 91%, 55%, 1.00)" rx="0.8157894736842105" transform="rotate(45, 160, 240)"></rect><rect width="1.631578947368421" height="40" x="159.18421052631578" y="220" stroke="none" fill="hsla(37, 91%, 55%, 1.00)" rx="0.8157894736842105" transform="rotate(45, 160, 240)"></rect><rect width="40" height="1.631578947368421" x="220" y="239.18421052631578" stroke="none" fill="hsl(316, 73%, 52%)" rx="0.8157894736842105" transform="rotate(45, 240, 240)"></rect><rect width="1.631578947368421" height="40" x="239.18421052631578" y="220" stroke="none" fill="hsl(316, 73%, 52%)" rx="0.8157894736842105" transform="rotate(45, 240, 240)"></rect><rect width="40" height="1.631578947368421" x="300" y="239.18421052631578" stroke="none" fill="hsla(37, 91%, 55%, 1.00)" rx="0.8157894736842105" transform="rotate(45, 320, 240)"></rect><rect width="1.631578947368421" height="40" x="319.1842105263158" y="220" stroke="none" fill="hsla(37, 91%, 55%, 1.00)" rx="0.8157894736842105" transform="rotate(45, 320, 240)"></rect><rect width="40" height="1.631578947368421" x="380" y="239.18421052631578" stroke="none" fill="hsl(316, 73%, 52%)" rx="0.8157894736842105" transform="rotate(45, 400, 240)"></rect><rect width="1.631578947368421" height="40" x="399.1842105263158" y="220" stroke="none" fill="hsl(316, 73%, 52%)" rx="0.8157894736842105" transform="rotate(45, 400, 240)"></rect><rect width="40" height="1.631578947368421" x="460" y="239.18421052631578" stroke="none" fill="hsla(37, 91%, 55%, 1.00)" rx="0.8157894736842105" transform="rotate(45, 480, 240)"></rect><rect width="1.631578947368421" height="40" x="479.1842105263158" y="220" stroke="none" fill="hsla(37, 91%, 55%, 1.00)" rx="0.8157894736842105" transform="rotate(45, 480, 240)"></rect><rect width="40" height="1.631578947368421" x="540" y="239.18421052631578" stroke="none" fill="hsl(316, 73%, 52%)" rx="0.8157894736842105" transform="rotate(45, 560, 240)"></rect><rect width="1.631578947368421" height="40" x="559.1842105263158" y="220" stroke="none" fill="hsl(316, 73%, 52%)" rx="0.8157894736842105" transform="rotate(45, 560, 240)"></rect><rect width="40" height="1.631578947368421" x="620" y="239.18421052631578" stroke="none" fill="hsla(37, 91%, 55%, 1.00)" rx="0.8157894736842105" transform="rotate(45, 640, 240)"></rect><rect width="1.631578947368421" height="40" x="639.1842105263158" y="220" stroke="none" fill="hsla(37, 91%, 55%, 1.00)" rx="0.8157894736842105" transform="rotate(45, 640, 240)"></rect><rect width="40" height="1.631578947368421" x="700" y="239.18421052631578" stroke="none" fill="hsl(316, 73%, 52%)" rx="0.8157894736842105" transform="rotate(45, 720, 240)"></rect><rect width="1.631578947368421" height="40" x="719.1842105263158" y="220" stroke="none" fill="hsl(316, 73%, 52%)" rx="0.8157894736842105" transform="rotate(45, 720, 240)"></rect><rect width="40" height="1.631578947368421" x="780" y="239.18421052631578" stroke="none" fill="hsla(37, 91%, 55%, 1.00)" rx="0.8157894736842105" transform="rotate(45, 800, 240)"></rect><rect width="1.631578947368421" height="40" x="799.1842105263158" y="220" stroke="none" fill="hsla(37, 91%, 55%, 1.00)" rx="0.8157894736842105" transform="rotate(45, 800, 240)"></rect><rect width="40" height="1.631578947368421" x="-20" y="319.1842105263158" stroke="none" fill="hsl(316, 73%, 52%)" rx="0.8157894736842105" transform="rotate(45, 0, 320)"></rect><rect width="1.631578947368421" height="40" x="-0.8157894736842105" y="300" stroke="none" fill="hsl(316, 73%, 52%)" rx="0.8157894736842105" transform="rotate(45, 0, 320)"></rect><rect width="40" height="1.631578947368421" x="60" y="319.1842105263158" stroke="none" fill="hsla(37, 91%, 55%, 1.00)" rx="0.8157894736842105" transform="rotate(45, 80, 320)"></rect><rect width="1.631578947368421" height="40" x="79.1842105263158" y="300" stroke="none" fill="hsla(37, 91%, 55%, 1.00)" rx="0.8157894736842105" transform="rotate(45, 80, 320)"></rect><rect width="40" height="1.631578947368421" x="140" y="319.1842105263158" stroke="none" fill="hsl(316, 73%, 52%)" rx="0.8157894736842105" transform="rotate(45, 160, 320)"></rect><rect width="1.631578947368421" height="40" x="159.18421052631578" y="300" stroke="none" fill="hsl(316, 73%, 52%)" rx="0.8157894736842105" transform="rotate(45, 160, 320)"></rect><rect width="40" height="1.631578947368421" x="220" y="319.1842105263158" stroke="none" fill="hsla(37, 91%, 55%, 1.00)" rx="0.8157894736842105" transform="rotate(45, 240, 320)"></rect><rect width="1.631578947368421" height="40" x="239.18421052631578" y="300" stroke="none" fill="hsla(37, 91%, 55%, 1.00)" rx="0.8157894736842105" transform="rotate(45, 240, 320)"></rect><rect width="40" height="1.631578947368421" x="300" y="319.1842105263158" stroke="none" fill="hsl(316, 73%, 52%)" rx="0.8157894736842105" transform="rotate(45, 320, 320)"></rect><rect width="1.631578947368421" height="40" x="319.1842105263158" y="300" stroke="none" fill="hsl(316, 73%, 52%)" rx="0.8157894736842105" transform="rotate(45, 320, 320)"></rect><rect width="40" height="1.631578947368421" x="380" y="319.1842105263158" stroke="none" fill="hsla(37, 91%, 55%, 1.00)" rx="0.8157894736842105" transform="rotate(45, 400, 320)"></rect><rect width="1.631578947368421" height="40" x="399.1842105263158" y="300" stroke="none" fill="hsla(37, 91%, 55%, 1.00)" rx="0.8157894736842105" transform="rotate(45, 400, 320)"></rect><rect width="40" height="1.631578947368421" x="460" y="319.1842105263158" stroke="none" fill="hsl(316, 73%, 52%)" rx="0.8157894736842105" transform="rotate(45, 480, 320)"></rect><rect width="1.631578947368421" height="40" x="479.1842105263158" y="300" stroke="none" fill="hsl(316, 73%, 52%)" rx="0.8157894736842105" transform="rotate(45, 480, 320)"></rect><rect width="40" height="1.631578947368421" x="540" y="319.1842105263158" stroke="none" fill="hsla(37, 91%, 55%, 1.00)" rx="0.8157894736842105" transform="rotate(45, 560, 320)"></rect><rect width="1.631578947368421" height="40" x="559.1842105263158" y="300" stroke="none" fill="hsla(37, 91%, 55%, 1.00)" rx="0.8157894736842105" transform="rotate(45, 560, 320)"></rect><rect width="40" height="1.631578947368421" x="620" y="319.1842105263158" stroke="none" fill="hsl(316, 73%, 52%)" rx="0.8157894736842105" transform="rotate(45, 640, 320)"></rect><rect width="1.631578947368421" height="40" x="639.1842105263158" y="300" stroke="none" fill="hsl(316, 73%, 52%)" rx="0.8157894736842105" transform="rotate(45, 640, 320)"></rect><rect width="40" height="1.631578947368421" x="700" y="319.1842105263158" stroke="none" fill="hsla(37, 91%, 55%, 1.00)" rx="0.8157894736842105" transform="rotate(45, 720, 320)"></rect><rect width="1.631578947368421" height="40" x="719.1842105263158" y="300" stroke="none" fill="hsla(37, 91%, 55%, 1.00)" rx="0.8157894736842105" transform="rotate(45, 720, 320)"></rect><rect width="40" height="1.631578947368421" x="780" y="319.1842105263158" stroke="none" fill="hsl(316, 73%, 52%)" rx="0.8157894736842105" transform="rotate(45, 800, 320)"></rect><rect width="1.631578947368421" height="40" x="799.1842105263158" y="300" stroke="none" fill="hsl(316, 73%, 52%)" rx="0.8157894736842105" transform="rotate(45, 800, 320)"></rect><rect width="40" height="1.631578947368421" x="-20" y="399.1842105263158" stroke="none" fill="hsla(37, 91%, 55%, 1.00)" rx="0.8157894736842105" transform="rotate(45, 0, 400)"></rect><rect width="1.631578947368421" height="40" x="-0.8157894736842105" y="380" stroke="none" fill="hsla(37, 91%, 55%, 1.00)" rx="0.8157894736842105" transform="rotate(45, 0, 400)"></rect><rect width="40" height="1.631578947368421" x="60" y="399.1842105263158" stroke="none" fill="hsl(316, 73%, 52%)" rx="0.8157894736842105" transform="rotate(45, 80, 400)"></rect><rect width="1.631578947368421" height="40" x="79.1842105263158" y="380" stroke="none" fill="hsl(316, 73%, 52%)" rx="0.8157894736842105" transform="rotate(45, 80, 400)"></rect><rect width="40" height="1.631578947368421" x="140" y="399.1842105263158" stroke="none" fill="hsla(37, 91%, 55%, 1.00)" rx="0.8157894736842105" transform="rotate(45, 160, 400)"></rect><rect width="1.631578947368421" height="40" x="159.18421052631578" y="380" stroke="none" fill="hsla(37, 91%, 55%, 1.00)" rx="0.8157894736842105" transform="rotate(45, 160, 400)"></rect><rect width="40" height="1.631578947368421" x="220" y="399.1842105263158" stroke="none" fill="hsl(316, 73%, 52%)" rx="0.8157894736842105" transform="rotate(45, 240, 400)"></rect><rect width="1.631578947368421" height="40" x="239.18421052631578" y="380" stroke="none" fill="hsl(316, 73%, 52%)" rx="0.8157894736842105" transform="rotate(45, 240, 400)"></rect><rect width="40" height="1.631578947368421" x="300" y="399.1842105263158" stroke="none" fill="hsla(37, 91%, 55%, 1.00)" rx="0.8157894736842105" transform="rotate(45, 320, 400)"></rect><rect width="1.631578947368421" height="40" x="319.1842105263158" y="380" stroke="none" fill="hsla(37, 91%, 55%, 1.00)" rx="0.8157894736842105" transform="rotate(45, 320, 400)"></rect><rect width="40" height="1.631578947368421" x="380" y="399.1842105263158" stroke="none" fill="hsl(316, 73%, 52%)" rx="0.8157894736842105" transform="rotate(45, 400, 400)"></rect><rect width="1.631578947368421" height="40" x="399.1842105263158" y="380" stroke="none" fill="hsl(316, 73%, 52%)" rx="0.8157894736842105" transform="rotate(45, 400, 400)"></rect><rect width="40" height="1.631578947368421" x="460" y="399.1842105263158" stroke="none" fill="hsla(37, 91%, 55%, 1.00)" rx="0.8157894736842105" transform="rotate(45, 480, 400)"></rect><rect width="1.631578947368421" height="40" x="479.1842105263158" y="380" stroke="none" fill="hsla(37, 91%, 55%, 1.00)" rx="0.8157894736842105" transform="rotate(45, 480, 400)"></rect><rect width="40" height="1.631578947368421" x="540" y="399.1842105263158" stroke="none" fill="hsl(316, 73%, 52%)" rx="0.8157894736842105" transform="rotate(45, 560, 400)"></rect><rect width="1.631578947368421" height="40" x="559.1842105263158" y="380" stroke="none" fill="hsl(316, 73%, 52%)" rx="0.8157894736842105" transform="rotate(45, 560, 400)"></rect><rect width="40" height="1.631578947368421" x="620" y="399.1842105263158" stroke="none" fill="hsla(37, 91%, 55%, 1.00)" rx="0.8157894736842105" transform="rotate(45, 640, 400)"></rect><rect width="1.631578947368421" height="40" x="639.1842105263158" y="380" stroke="none" fill="hsla(37, 91%, 55%, 1.00)" rx="0.8157894736842105" transform="rotate(45, 640, 400)"></rect><rect width="40" height="1.631578947368421" x="700" y="399.1842105263158" stroke="none" fill="hsl(316, 73%, 52%)" rx="0.8157894736842105" transform="rotate(45, 720, 400)"></rect><rect width="1.631578947368421" height="40" x="719.1842105263158" y="380" stroke="none" fill="hsl(316, 73%, 52%)" rx="0.8157894736842105" transform="rotate(45, 720, 400)"></rect><rect width="40" height="1.631578947368421" x="780" y="399.1842105263158" stroke="none" fill="hsla(37, 91%, 55%, 1.00)" rx="0.8157894736842105" transform="rotate(45, 800, 400)"></rect><rect width="1.631578947368421" height="40" x="799.1842105263158" y="380" stroke="none" fill="hsla(37, 91%, 55%, 1.00)" rx="0.8157894736842105" transform="rotate(45, 800, 400)"></rect><rect width="40" height="1.631578947368421" x="-20" y="479.1842105263158" stroke="none" fill="hsl(316, 73%, 52%)" rx="0.8157894736842105" transform="rotate(45, 0, 480)"></rect><rect width="1.631578947368421" height="40" x="-0.8157894736842105" y="460" stroke="none" fill="hsl(316, 73%, 52%)" rx="0.8157894736842105" transform="rotate(45, 0, 480)"></rect><rect width="40" height="1.631578947368421" x="60" y="479.1842105263158" stroke="none" fill="hsla(37, 91%, 55%, 1.00)" rx="0.8157894736842105" transform="rotate(45, 80, 480)"></rect><rect width="1.631578947368421" height="40" x="79.1842105263158" y="460" stroke="none" fill="hsla(37, 91%, 55%, 1.00)" rx="0.8157894736842105" transform="rotate(45, 80, 480)"></rect><rect width="40" height="1.631578947368421" x="140" y="479.1842105263158" stroke="none" fill="hsl(316, 73%, 52%)" rx="0.8157894736842105" transform="rotate(45, 160, 480)"></rect><rect width="1.631578947368421" height="40" x="159.18421052631578" y="460" stroke="none" fill="hsl(316, 73%, 52%)" rx="0.8157894736842105" transform="rotate(45, 160, 480)"></rect><rect width="40" height="1.631578947368421" x="220" y="479.1842105263158" stroke="none" fill="hsla(37, 91%, 55%, 1.00)" rx="0.8157894736842105" transform="rotate(45, 240, 480)"></rect><rect width="1.631578947368421" height="40" x="239.18421052631578" y="460" stroke="none" fill="hsla(37, 91%, 55%, 1.00)" rx="0.8157894736842105" transform="rotate(45, 240, 480)"></rect><rect width="40" height="1.631578947368421" x="300" y="479.1842105263158" stroke="none" fill="hsl(316, 73%, 52%)" rx="0.8157894736842105" transform="rotate(45, 320, 480)"></rect><rect width="1.631578947368421" height="40" x="319.1842105263158" y="460" stroke="none" fill="hsl(316, 73%, 52%)" rx="0.8157894736842105" transform="rotate(45, 320, 480)"></rect><rect width="40" height="1.631578947368421" x="380" y="479.1842105263158" stroke="none" fill="hsla(37, 91%, 55%, 1.00)" rx="0.8157894736842105" transform="rotate(45, 400, 480)"></rect><rect width="1.631578947368421" height="40" x="399.1842105263158" y="460" stroke="none" fill="hsla(37, 91%, 55%, 1.00)" rx="0.8157894736842105" transform="rotate(45, 400, 480)"></rect><rect width="40" height="1.631578947368421" x="460" y="479.1842105263158" stroke="none" fill="hsl(316, 73%, 52%)" rx="0.8157894736842105" transform="rotate(45, 480, 480)"></rect><rect width="1.631578947368421" height="40" x="479.1842105263158" y="460" stroke="none" fill="hsl(316, 73%, 52%)" rx="0.8157894736842105" transform="rotate(45, 480, 480)"></rect><rect width="40" height="1.631578947368421" x="540" y="479.1842105263158" stroke="none" fill="hsla(37, 91%, 55%, 1.00)" rx="0.8157894736842105" transform="rotate(45, 560, 480)"></rect><rect width="1.631578947368421" height="40" x="559.1842105263158" y="460" stroke="none" fill="hsla(37, 91%, 55%, 1.00)" rx="0.8157894736842105" transform="rotate(45, 560, 480)"></rect><rect width="40" height="1.631578947368421" x="620" y="479.1842105263158" stroke="none" fill="hsl(316, 73%, 52%)" rx="0.8157894736842105" transform="rotate(45, 640, 480)"></rect><rect width="1.631578947368421" height="40" x="639.1842105263158" y="460" stroke="none" fill="hsl(316, 73%, 52%)" rx="0.8157894736842105" transform="rotate(45, 640, 480)"></rect><rect width="40" height="1.631578947368421" x="700" y="479.1842105263158" stroke="none" fill="hsla(37, 91%, 55%, 1.00)" rx="0.8157894736842105" transform="rotate(45, 720, 480)"></rect><rect width="1.631578947368421" height="40" x="719.1842105263158" y="460" stroke="none" fill="hsla(37, 91%, 55%, 1.00)" rx="0.8157894736842105" transform="rotate(45, 720, 480)"></rect><rect width="40" height="1.631578947368421" x="780" y="479.1842105263158" stroke="none" fill="hsl(316, 73%, 52%)" rx="0.8157894736842105" transform="rotate(45, 800, 480)"></rect><rect width="1.631578947368421" height="40" x="799.1842105263158" y="460" stroke="none" fill="hsl(316, 73%, 52%)" rx="0.8157894736842105" transform="rotate(45, 800, 480)"></rect><rect width="40" height="1.631578947368421" x="-20" y="559.1842105263158" stroke="none" fill="hsla(37, 91%, 55%, 1.00)" rx="0.8157894736842105" transform="rotate(45, 0, 560)"></rect><rect width="1.631578947368421" height="40" x="-0.8157894736842105" y="540" stroke="none" fill="hsla(37, 91%, 55%, 1.00)" rx="0.8157894736842105" transform="rotate(45, 0, 560)"></rect><rect width="40" height="1.631578947368421" x="60" y="559.1842105263158" stroke="none" fill="hsl(316, 73%, 52%)" rx="0.8157894736842105" transform="rotate(45, 80, 560)"></rect><rect width="1.631578947368421" height="40" x="79.1842105263158" y="540" stroke="none" fill="hsl(316, 73%, 52%)" rx="0.8157894736842105" transform="rotate(45, 80, 560)"></rect><rect width="40" height="1.631578947368421" x="140" y="559.1842105263158" stroke="none" fill="hsla(37, 91%, 55%, 1.00)" rx="0.8157894736842105" transform="rotate(45, 160, 560)"></rect><rect width="1.631578947368421" height="40" x="159.18421052631578" y="540" stroke="none" fill="hsla(37, 91%, 55%, 1.00)" rx="0.8157894736842105" transform="rotate(45, 160, 560)"></rect><rect width="40" height="1.631578947368421" x="220" y="559.1842105263158" stroke="none" fill="hsl(316, 73%, 52%)" rx="0.8157894736842105" transform="rotate(45, 240, 560)"></rect><rect width="1.631578947368421" height="40" x="239.18421052631578" y="540" stroke="none" fill="hsl(316, 73%, 52%)" rx="0.8157894736842105" transform="rotate(45, 240, 560)"></rect><rect width="40" height="1.631578947368421" x="300" y="559.1842105263158" stroke="none" fill="hsla(37, 91%, 55%, 1.00)" rx="0.8157894736842105" transform="rotate(45, 320, 560)"></rect><rect width="1.631578947368421" height="40" x="319.1842105263158" y="540" stroke="none" fill="hsla(37, 91%, 55%, 1.00)" rx="0.8157894736842105" transform="rotate(45, 320, 560)"></rect><rect width="40" height="1.631578947368421" x="380" y="559.1842105263158" stroke="none" fill="hsl(316, 73%, 52%)" rx="0.8157894736842105" transform="rotate(45, 400, 560)"></rect><rect width="1.631578947368421" height="40" x="399.1842105263158" y="540" stroke="none" fill="hsl(316, 73%, 52%)" rx="0.8157894736842105" transform="rotate(45, 400, 560)"></rect><rect width="40" height="1.631578947368421" x="460" y="559.1842105263158" stroke="none" fill="hsla(37, 91%, 55%, 1.00)" rx="0.8157894736842105" transform="rotate(45, 480, 560)"></rect><rect width="1.631578947368421" height="40" x="479.1842105263158" y="540" stroke="none" fill="hsla(37, 91%, 55%, 1.00)" rx="0.8157894736842105" transform="rotate(45, 480, 560)"></rect><rect width="40" height="1.631578947368421" x="540" y="559.1842105263158" stroke="none" fill="hsl(316, 73%, 52%)" rx="0.8157894736842105" transform="rotate(45, 560, 560)"></rect><rect width="1.631578947368421" height="40" x="559.1842105263158" y="540" stroke="none" fill="hsl(316, 73%, 52%)" rx="0.8157894736842105" transform="rotate(45, 560, 560)"></rect><rect width="40" height="1.631578947368421" x="620" y="559.1842105263158" stroke="none" fill="hsla(37, 91%, 55%, 1.00)" rx="0.8157894736842105" transform="rotate(45, 640, 560)"></rect><rect width="1.631578947368421" height="40" x="639.1842105263158" y="540" stroke="none" fill="hsla(37, 91%, 55%, 1.00)" rx="0.8157894736842105" transform="rotate(45, 640, 560)"></rect><rect width="40" height="1.631578947368421" x="700" y="559.1842105263158" stroke="none" fill="hsl(316, 73%, 52%)" rx="0.8157894736842105" transform="rotate(45, 720, 560)"></rect><rect width="1.631578947368421" height="40" x="719.1842105263158" y="540" stroke="none" fill="hsl(316, 73%, 52%)" rx="0.8157894736842105" transform="rotate(45, 720, 560)"></rect><rect width="40" height="1.631578947368421" x="780" y="559.1842105263158" stroke="none" fill="hsla(37, 91%, 55%, 1.00)" rx="0.8157894736842105" transform="rotate(45, 800, 560)"></rect><rect width="1.631578947368421" height="40" x="799.1842105263158" y="540" stroke="none" fill="hsla(37, 91%, 55%, 1.00)" rx="0.8157894736842105" transform="rotate(45, 800, 560)"></rect><rect width="40" height="1.631578947368421" x="-20" y="639.1842105263158" stroke="none" fill="hsl(316, 73%, 52%)" rx="0.8157894736842105" transform="rotate(45, 0, 640)"></rect><rect width="1.631578947368421" height="40" x="-0.8157894736842105" y="620" stroke="none" fill="hsl(316, 73%, 52%)" rx="0.8157894736842105" transform="rotate(45, 0, 640)"></rect><rect width="40" height="1.631578947368421" x="60" y="639.1842105263158" stroke="none" fill="hsla(37, 91%, 55%, 1.00)" rx="0.8157894736842105" transform="rotate(45, 80, 640)"></rect><rect width="1.631578947368421" height="40" x="79.1842105263158" y="620" stroke="none" fill="hsla(37, 91%, 55%, 1.00)" rx="0.8157894736842105" transform="rotate(45, 80, 640)"></rect><rect width="40" height="1.631578947368421" x="140" y="639.1842105263158" stroke="none" fill="hsl(316, 73%, 52%)" rx="0.8157894736842105" transform="rotate(45, 160, 640)"></rect><rect width="1.631578947368421" height="40" x="159.18421052631578" y="620" stroke="none" fill="hsl(316, 73%, 52%)" rx="0.8157894736842105" transform="rotate(45, 160, 640)"></rect><rect width="40" height="1.631578947368421" x="220" y="639.1842105263158" stroke="none" fill="hsla(37, 91%, 55%, 1.00)" rx="0.8157894736842105" transform="rotate(45, 240, 640)"></rect><rect width="1.631578947368421" height="40" x="239.18421052631578" y="620" stroke="none" fill="hsla(37, 91%, 55%, 1.00)" rx="0.8157894736842105" transform="rotate(45, 240, 640)"></rect><rect width="40" height="1.631578947368421" x="300" y="639.1842105263158" stroke="none" fill="hsl(316, 73%, 52%)" rx="0.8157894736842105" transform="rotate(45, 320, 640)"></rect><rect width="1.631578947368421" height="40" x="319.1842105263158" y="620" stroke="none" fill="hsl(316, 73%, 52%)" rx="0.8157894736842105" transform="rotate(45, 320, 640)"></rect><rect width="40" height="1.631578947368421" x="380" y="639.1842105263158" stroke="none" fill="hsla(37, 91%, 55%, 1.00)" rx="0.8157894736842105" transform="rotate(45, 400, 640)"></rect><rect width="1.631578947368421" height="40" x="399.1842105263158" y="620" stroke="none" fill="hsla(37, 91%, 55%, 1.00)" rx="0.8157894736842105" transform="rotate(45, 400, 640)"></rect><rect width="40" height="1.631578947368421" x="460" y="639.1842105263158" stroke="none" fill="hsl(316, 73%, 52%)" rx="0.8157894736842105" transform="rotate(45, 480, 640)"></rect><rect width="1.631578947368421" height="40" x="479.1842105263158" y="620" stroke="none" fill="hsl(316, 73%, 52%)" rx="0.8157894736842105" transform="rotate(45, 480, 640)"></rect><rect width="40" height="1.631578947368421" x="540" y="639.1842105263158" stroke="none" fill="hsla(37, 91%, 55%, 1.00)" rx="0.8157894736842105" transform="rotate(45, 560, 640)"></rect><rect width="1.631578947368421" height="40" x="559.1842105263158" y="620" stroke="none" fill="hsla(37, 91%, 55%, 1.00)" rx="0.8157894736842105" transform="rotate(45, 560, 640)"></rect><rect width="40" height="1.631578947368421" x="620" y="639.1842105263158" stroke="none" fill="hsl(316, 73%, 52%)" rx="0.8157894736842105" transform="rotate(45, 640, 640)"></rect><rect width="1.631578947368421" height="40" x="639.1842105263158" y="620" stroke="none" fill="hsl(316, 73%, 52%)" rx="0.8157894736842105" transform="rotate(45, 640, 640)"></rect><rect width="40" height="1.631578947368421" x="700" y="639.1842105263158" stroke="none" fill="hsla(37, 91%, 55%, 1.00)" rx="0.8157894736842105" transform="rotate(45, 720, 640)"></rect><rect width="1.631578947368421" height="40" x="719.1842105263158" y="620" stroke="none" fill="hsla(37, 91%, 55%, 1.00)" rx="0.8157894736842105" transform="rotate(45, 720, 640)"></rect><rect width="40" height="1.631578947368421" x="780" y="639.1842105263158" stroke="none" fill="hsl(316, 73%, 52%)" rx="0.8157894736842105" transform="rotate(45, 800, 640)"></rect><rect width="1.631578947368421" height="40" x="799.1842105263158" y="620" stroke="none" fill="hsl(316, 73%, 52%)" rx="0.8157894736842105" transform="rotate(45, 800, 640)"></rect><rect width="40" height="1.631578947368421" x="-20" y="719.1842105263158" stroke="none" fill="hsla(37, 91%, 55%, 1.00)" rx="0.8157894736842105" transform="rotate(45, 0, 720)"></rect><rect width="1.631578947368421" height="40" x="-0.8157894736842105" y="700" stroke="none" fill="hsla(37, 91%, 55%, 1.00)" rx="0.8157894736842105" transform="rotate(45, 0, 720)"></rect><rect width="40" height="1.631578947368421" x="60" y="719.1842105263158" stroke="none" fill="hsl(316, 73%, 52%)" rx="0.8157894736842105" transform="rotate(45, 80, 720)"></rect><rect width="1.631578947368421" height="40" x="79.1842105263158" y="700" stroke="none" fill="hsl(316, 73%, 52%)" rx="0.8157894736842105" transform="rotate(45, 80, 720)"></rect><rect width="40" height="1.631578947368421" x="140" y="719.1842105263158" stroke="none" fill="hsla(37, 91%, 55%, 1.00)" rx="0.8157894736842105" transform="rotate(45, 160, 720)"></rect><rect width="1.631578947368421" height="40" x="159.18421052631578" y="700" stroke="none" fill="hsla(37, 91%, 55%, 1.00)" rx="0.8157894736842105" transform="rotate(45, 160, 720)"></rect><rect width="40" height="1.631578947368421" x="220" y="719.1842105263158" stroke="none" fill="hsl(316, 73%, 52%)" rx="0.8157894736842105" transform="rotate(45, 240, 720)"></rect><rect width="1.631578947368421" height="40" x="239.18421052631578" y="700" stroke="none" fill="hsl(316, 73%, 52%)" rx="0.8157894736842105" transform="rotate(45, 240, 720)"></rect><rect width="40" height="1.631578947368421" x="300" y="719.1842105263158" stroke="none" fill="hsla(37, 91%, 55%, 1.00)" rx="0.8157894736842105" transform="rotate(45, 320, 720)"></rect><rect width="1.631578947368421" height="40" x="319.1842105263158" y="700" stroke="none" fill="hsla(37, 91%, 55%, 1.00)" rx="0.8157894736842105" transform="rotate(45, 320, 720)"></rect><rect width="40" height="1.631578947368421" x="380" y="719.1842105263158" stroke="none" fill="hsl(316, 73%, 52%)" rx="0.8157894736842105" transform="rotate(45, 400, 720)"></rect><rect width="1.631578947368421" height="40" x="399.1842105263158" y="700" stroke="none" fill="hsl(316, 73%, 52%)" rx="0.8157894736842105" transform="rotate(45, 400, 720)"></rect><rect width="40" height="1.631578947368421" x="460" y="719.1842105263158" stroke="none" fill="hsla(37, 91%, 55%, 1.00)" rx="0.8157894736842105" transform="rotate(45, 480, 720)"></rect><rect width="1.631578947368421" height="40" x="479.1842105263158" y="700" stroke="none" fill="hsla(37, 91%, 55%, 1.00)" rx="0.8157894736842105" transform="rotate(45, 480, 720)"></rect><rect width="40" height="1.631578947368421" x="540" y="719.1842105263158" stroke="none" fill="hsl(316, 73%, 52%)" rx="0.8157894736842105" transform="rotate(45, 560, 720)"></rect><rect width="1.631578947368421" height="40" x="559.1842105263158" y="700" stroke="none" fill="hsl(316, 73%, 52%)" rx="0.8157894736842105" transform="rotate(45, 560, 720)"></rect><rect width="40" height="1.631578947368421" x="620" y="719.1842105263158" stroke="none" fill="hsla(37, 91%, 55%, 1.00)" rx="0.8157894736842105" transform="rotate(45, 640, 720)"></rect><rect width="1.631578947368421" height="40" x="639.1842105263158" y="700" stroke="none" fill="hsla(37, 91%, 55%, 1.00)" rx="0.8157894736842105" transform="rotate(45, 640, 720)"></rect><rect width="40" height="1.631578947368421" x="700" y="719.1842105263158" stroke="none" fill="hsl(316, 73%, 52%)" rx="0.8157894736842105" transform="rotate(45, 720, 720)"></rect><rect width="1.631578947368421" height="40" x="719.1842105263158" y="700" stroke="none" fill="hsl(316, 73%, 52%)" rx="0.8157894736842105" transform="rotate(45, 720, 720)"></rect><rect width="40" height="1.631578947368421" x="780" y="719.1842105263158" stroke="none" fill="hsla(37, 91%, 55%, 1.00)" rx="0.8157894736842105" transform="rotate(45, 800, 720)"></rect><rect width="1.631578947368421" height="40" x="799.1842105263158" y="700" stroke="none" fill="hsla(37, 91%, 55%, 1.00)" rx="0.8157894736842105" transform="rotate(45, 800, 720)"></rect><rect width="40" height="1.631578947368421" x="-20" y="799.1842105263158" stroke="none" fill="hsl(316, 73%, 52%)" rx="0.8157894736842105" transform="rotate(45, 0, 800)"></rect><rect width="1.631578947368421" height="40" x="-0.8157894736842105" y="780" stroke="none" fill="hsl(316, 73%, 52%)" rx="0.8157894736842105" transform="rotate(45, 0, 800)"></rect><rect width="40" height="1.631578947368421" x="60" y="799.1842105263158" stroke="none" fill="hsla(37, 91%, 55%, 1.00)" rx="0.8157894736842105" transform="rotate(45, 80, 800)"></rect><rect width="1.631578947368421" height="40" x="79.1842105263158" y="780" stroke="none" fill="hsla(37, 91%, 55%, 1.00)" rx="0.8157894736842105" transform="rotate(45, 80, 800)"></rect><rect width="40" height="1.631578947368421" x="140" y="799.1842105263158" stroke="none" fill="hsl(316, 73%, 52%)" rx="0.8157894736842105" transform="rotate(45, 160, 800)"></rect><rect width="1.631578947368421" height="40" x="159.18421052631578" y="780" stroke="none" fill="hsl(316, 73%, 52%)" rx="0.8157894736842105" transform="rotate(45, 160, 800)"></rect><rect width="40" height="1.631578947368421" x="220" y="799.1842105263158" stroke="none" fill="hsla(37, 91%, 55%, 1.00)" rx="0.8157894736842105" transform="rotate(45, 240, 800)"></rect><rect width="1.631578947368421" height="40" x="239.18421052631578" y="780" stroke="none" fill="hsla(37, 91%, 55%, 1.00)" rx="0.8157894736842105" transform="rotate(45, 240, 800)"></rect><rect width="40" height="1.631578947368421" x="300" y="799.1842105263158" stroke="none" fill="hsl(316, 73%, 52%)" rx="0.8157894736842105" transform="rotate(45, 320, 800)"></rect><rect width="1.631578947368421" height="40" x="319.1842105263158" y="780" stroke="none" fill="hsl(316, 73%, 52%)" rx="0.8157894736842105" transform="rotate(45, 320, 800)"></rect><rect width="40" height="1.631578947368421" x="380" y="799.1842105263158" stroke="none" fill="hsla(37, 91%, 55%, 1.00)" rx="0.8157894736842105" transform="rotate(45, 400, 800)"></rect><rect width="1.631578947368421" height="40" x="399.1842105263158" y="780" stroke="none" fill="hsla(37, 91%, 55%, 1.00)" rx="0.8157894736842105" transform="rotate(45, 400, 800)"></rect><rect width="40" height="1.631578947368421" x="460" y="799.1842105263158" stroke="none" fill="hsl(316, 73%, 52%)" rx="0.8157894736842105" transform="rotate(45, 480, 800)"></rect><rect width="1.631578947368421" height="40" x="479.1842105263158" y="780" stroke="none" fill="hsl(316, 73%, 52%)" rx="0.8157894736842105" transform="rotate(45, 480, 800)"></rect><rect width="40" height="1.631578947368421" x="540" y="799.1842105263158" stroke="none" fill="hsla(37, 91%, 55%, 1.00)" rx="0.8157894736842105" transform="rotate(45, 560, 800)"></rect><rect width="1.631578947368421" height="40" x="559.1842105263158" y="780" stroke="none" fill="hsla(37, 91%, 55%, 1.00)" rx="0.8157894736842105" transform="rotate(45, 560, 800)"></rect><rect width="40" height="1.631578947368421" x="620" y="799.1842105263158" stroke="none" fill="hsl(316, 73%, 52%)" rx="0.8157894736842105" transform="rotate(45, 640, 800)"></rect><rect width="1.631578947368421" height="40" x="639.1842105263158" y="780" stroke="none" fill="hsl(316, 73%, 52%)" rx="0.8157894736842105" transform="rotate(45, 640, 800)"></rect><rect width="40" height="1.631578947368421" x="700" y="799.1842105263158" stroke="none" fill="hsla(37, 91%, 55%, 1.00)" rx="0.8157894736842105" transform="rotate(45, 720, 800)"></rect><rect width="1.631578947368421" height="40" x="719.1842105263158" y="780" stroke="none" fill="hsla(37, 91%, 55%, 1.00)" rx="0.8157894736842105" transform="rotate(45, 720, 800)"></rect><rect width="40" height="1.631578947368421" x="780" y="799.1842105263158" stroke="none" fill="hsl(316, 73%, 52%)" rx="0.8157894736842105" transform="rotate(45, 800, 800)"></rect><rect width="1.631578947368421" height="40" x="799.1842105263158" y="780" stroke="none" fill="hsl(316, 73%, 52%)" rx="0.8157894736842105" transform="rotate(45, 800, 800)"></rect></g></svg>