<svg xmlns="http://www.w3.org/2000/svg" version="1.1" xmlns:xlink="http://www.w3.org/1999/xlink" xmlns:svgjs="http://svgjs.dev/svgjs" viewBox="0 0 1422 800"><defs><filter id="uuunion-blur" x="-100%" y="-100%" width="400%" height="400%" color-interpolation-filters="sRGB">
        <feGaussianBlur in="SourceGraphic" stdDeviation="7.5 0" result="blur"></feGaussianBlur>
        <feDropShadow stdDeviation="12.307692307692308" in="blur" dx="10" dy="10" flood-color="hsl(316, 73%, 52%)" flood-opacity="0.25" x="0%" y="0%" width="100%" height="100%"></feDropShadow>
      </filter><filter id="uuunion-blur2" x="-100%" y="-100%" width="400%" height="400%" color-interpolation-filters="sRGB">
        <feGaussianBlur in="SourceGraphic" stdDeviation="7.5 0" result="blur"></feGaussianBlur>
        <feDropShadow stdDeviation="12.307692307692308" in="blur" dx="-10" dy="-10" flood-color="hsl(316, 73%, 52%)" flood-opacity="0.25" x="0%" y="0%" width="100%" height="100%"></feDropShadow>
      </filter><linearGradient gradientTransform="rotate(0, 0.5, 0.5)" x1="50%" y1="0%" x2="50%" y2="100%" id="uuunion-grad"><stop stop-color="hsl(37, 99%, 67%)" offset="10%"></stop><stop stop-color="hsl(316, 73%, 52%)" offset="90%"></stop></linearGradient><linearGradient gradientTransform="rotate(135, 0.5, 0.5)" x1="50%" y1="0%" x2="50%" y2="100%" id="uuunion-grad2"><stop stop-color="hsl(37, 99%, 67%)" offset="25%"></stop><stop stop-color="hsl(316, 73%, 52%)" offset="100%"></stop></linearGradient><linearGradient gradientTransform="rotate(333, 0.5, 0.5)" x1="50%" y1="0%" x2="50%" y2="100%" id="uuunion-grad3"><stop stop-color="hsl(37, 99%, 67%)" offset="0%"></stop><stop stop-color="hsl(316, 73%, 52%)" offset="75%"></stop></linearGradient></defs><path d="M-136.39 -88.54Q-123.24 -87.67 -110.1 -86.23 -96.95 -84.33 -83.81 -82.11 -70.66 -79.74 -57.52 -77.38 -44.37 -75.22 -31.23 -73.41 -18.08 -72.08 -4.94 -71.34 8.2 -71.23 21.34 -71.77 34.49 -72.91 47.63 -74.57 60.78 -76.64 73.92 -78.94 87.07 -81.33 100.21 -83.62 113.36 -85.64 126.5 -87.25 139.65 -88.32 152.79 -88.78 165.94 -88.59 179.08 -87.78 192.23 -86.38 205.37 -84.52 218.52 -82.33 231.66 -79.96 244.81 -77.6 257.95 -75.41 271.1 -73.56 284.24 -72.19 297.38 -71.38 310.53 -71.21 323.67 -71.69 336.82 -72.78 349.96 -74.4 363.11 -76.43 376.25 -78.72 389.4 -81.11 402.54 -83.41 415.69 -85.47 428.83 -87.12 441.98 -88.24 455.12 -88.76 468.27 -88.64 481.41 -87.88 494.56 -86.54 507.7 -84.72 520.85 -82.55 533.99 -80.19 547.14 -77.82 560.28 -75.61 573.43 -73.72 586.57 -72.29 599.72 -71.43 612.86 -71.2 626.01 -71.62 639.15 -72.65 652.3 -74.22 665.44 -76.22 678.59 -78.5 691.73 -80.88 704.88 -83.2 718.02 -85.29 731.17 -86.98 744.31 -88.16 757.46 -88.74 770.6 -88.68 783.75 -87.98 796.89 -86.69 810.04 -84.91 823.18 -82.76 836.33 -80.42 849.47 -78.04 862.62 -75.8 875.76 -73.88 888.91 -72.4 902.05 -71.49 915.2 -71.2 928.34 -71.55 941.49 -72.53 954.63 -74.06 967.78 -76.02 980.92 -78.27 994.07 -80.66 1007.22 -82.99 1020.36 -85.1 1033.51 -86.84 1046.65 -88.08 1059.8 -88.71 1072.94 -88.71 1086.09 -88.07 1099.23 -86.83 1112.38 -85.09 1125.52 -82.98 1138.67 -80.64 1151.81 -78.26 1164.96 -76 1178.1 -74.04 1191.25 -72.52 1204.39 -71.55 1217.54 -71.2 1230.68 -71.49 1243.83 -72.41 1256.97 -73.89 1270.12 -75.82 1283.26 -78.05 1296.41 -80.43 1309.55 -82.78 1322.7 -84.92 1335.84 -86.7 1348.99 -87.98 1362.13 -88.68 1375.28 -88.74 1388.42 -88.16 1401.57 -86.97 1414.71 -85.27 1427.86 -83.19 1441 -80.87 1454.15 -78.48 1467.29 -76.21 1480.44 -74.21 1493.58 -72.64 1506.73 -71.61 1519.87 -71.2 1533.95 -64.27 1530.33 -41.91 1533.55 -26.71 1543.81 -11.51 1558.75 3.67 1574.94 18.87 1588.66 34.07 1596.77 49.26 1597.39 64.46 1590.4 79.66 1577.38 94.85 1561.34 110.05 1545.96 125.25 1534.76 140.44 1530.32 155.64 1533.66 170.84 1544.01 186.03 1558.99 201.23 1575.17 216.43 1588.83 231.63 1596.83 246.82 1597.34 262.02 1590.24 277.22 1577.16 292.41 1561.1 307.61 1545.75 322.81 1534.64 338 1530.31 353.2 1533.76 368.4 1544.2 383.59 1559.23 398.79 1575.4 413.99 1589 429.18 1596.9 444.38 1597.29 459.58 1590.09 474.77 1576.94 489.97 1560.86 505.17 1545.55 520.36 1534.52 535.56 1530.31 550.76 1533.87 565.95 1544.4 581.15 1559.47 596.35 1575.63 611.54 1589.16 626.74 1596.96 641.94 1597.24 657.13 1589.93 672.33 1576.71 687.53 1560.62 702.72 1545.35 717.92 1534.41 733.12 1530.3 748.31 1533.98 763.51 1544.59 778.71 1559.71 793.9 1575.85 809.1 1589.32 824.3 1597.02 839.49 1597.18 854.69 1589.77 869.89 1576.49 885.09 1560.38 900.28 1547.09 902.56 1533.8 903.18 1520.51 902.09 1507.21 899.38 1493.92 895.24 1480.63 889.98 1467.34 883.99 1454.05 877.7 1440.75 871.58 1427.46 866.08 1414.17 861.6 1400.88 858.48 1387.59 856.94 1374.29 857.09 1361 858.93 1347.71 862.32 1334.42 867.01 1321.13 872.66 1307.84 878.84 1294.54 885.11 1281.25 891.01 1267.96 896.09 1254.67 899.99 1241.38 902.41 1228.08 903.19 1214.79 902.27 1201.5 899.7 1188.21 895.68 1174.92 890.51 1161.63 884.57 1148.33 878.29 1135.04 872.14 1121.75 866.56 1108.46 861.97 1095.17 858.71 1081.87 857.01 1068.58 857.01 1055.29 858.69 1042 861.94 1028.71 866.53 1015.42 872.1 1002.12 878.25 988.83 884.53 975.54 890.48 962.25 895.65 948.96 899.68 935.66 902.25 922.37 903.19 909.08 902.43 895.79 900.01 882.5 896.12 869.21 891.04 855.91 885.15 842.62 878.89 829.33 872.7 816.04 867.05 802.75 862.35 789.45 858.95 776.16 857.1 762.87 856.93 749.58 858.46 736.29 861.58 723 866.04 709.7 871.54 696.41 877.66 683.12 883.94 669.83 889.94 656.54 895.21 643.24 899.36 629.95 902.08 616.66 903.18 603.37 902.57 590.08 900.3 576.79 896.54 563.49 891.56 550.2 885.73 536.91 879.48 523.62 873.27 510.33 867.55 497.03 862.74 483.74 859.21 470.45 857.21 457.16 856.88 443.87 858.25 430.58 861.22 417.28 865.57 403.99 870.99 390.7 877.06 377.41 883.35 364.12 889.4 350.83 894.75 337.53 899.02 324.24 901.89 310.95 903.15 297.66 902.7 284.37 900.58 271.07 896.95 257.78 892.08 244.49 886.31 231.2 880.08 217.91 873.84 204.62 868.06 191.32 863.15 178.03 859.48 164.74 857.32 151.45 856.83 138.16 858.05 124.87 860.88 111.57 865.11 98.28 870.44 84.99 876.47 71.7 882.76 58.41 888.85 45.12 894.29 31.82 898.67 18.53 901.68 5.24 903.1 -8.04 902.82 -21.33 900.85 -34.63 897.36 -47.92 892.58 -61.21 886.88 -74.5 880.67 -87.79 874.42 -101.08 868.57 -114.38 863.57 -127.67 859.77 -140.96 857.46 -146.14 842.68 -150.41 827.9 -152.79 813.11 -152.74 798.33 -150.26 783.55 -145.93 768.77 -140.74 753.99 -135.88 739.21 -132.47 724.43 -131.29 709.64 -132.61 694.86 -136.13 680.08 -141.04 665.3 -146.21 650.52 -150.46 635.74 -152.81 620.96 -152.72 606.17 -150.21 591.39 -145.86 576.61 -140.67 561.83 -135.82 547.05 -132.44 532.27 -131.29 517.49 -132.65 502.7 -136.19 487.92 -141.11 473.14 -146.28 458.36 -150.51 443.58 -152.82 428.8 -152.7 414.02 -150.16 399.23 -145.79 384.45 -140.59 369.67 -135.76 354.89 -132.4 340.11 -131.29 325.33 -132.68 310.55 -136.26 295.76 -141.19 280.98 -146.35 266.2 -150.56 251.42 -152.84 236.64 -152.68 221.86 -150.1 207.08 -145.71 192.29 -140.51 177.51 -135.7 162.73 -132.37 147.95 -131.3 133.17 -132.72 118.39 -136.32 103.61 -141.27 88.82 -146.42 74.04 -150.61 59.26 -152.86 44.48 -152.66 29.7 -150.05 14.92 -145.64 0.14 -140.44 -14.64 -135.63 -29.42 -132.33 -44.2 -131.3 -58.98 -132.76 -73.76 -136.39 -88.54" fill="url(#uuunion-grad)"></path><path d="M-136.4 -88.54Q-132.77 -73.76 -131.31 -58.98 -132.34 -44.2 -135.64 -29.42 -140.45 -14.64 -145.65 0.13 -150.06 14.92 -152.67 29.7 -152.87 44.48 -150.62 59.26 -146.43 74.04 -141.28 88.82 -136.33 103.6 -132.73 118.39 -131.31 133.17 -132.38 147.95 -135.7 162.73 -140.52 177.51 -145.72 192.29 -150.11 207.07 -152.69 221.86 -152.85 236.64 -150.57 251.42 -146.36 266.2 -141.2 280.98 -136.27 295.76 -132.69 310.54 -131.3 325.33 -132.41 340.11 -135.77 354.89 -138.72 377.53 -127.87 386.81 -118.9 388.66 -109.94 390.89 -100.97 393.41 -92.01 396.15 -83.04 399.01 -74.08 401.91 -65.12 404.74 -56.15 407.42 -47.19 409.85 -38.22 411.97 -29.26 413.68 -20.29 414.95 -3.35 415.92 -0.36 415.98 11.48 412.26 23.29 407.75 35.05 402.55 46.75 396.74 58.39 390.48 69.97 383.93 81.47 377.26 92.9 370.66 104.25 364.3 115.53 358.34 126.74 352.93 137.88 348.18 148.95 344.17 159.97 340.94 170.92 338.48 181.83 336.77 192.7 335.72 203.53 335.23 214.34 335.15 225.14 335.34 235.93 335.61 246.72 335.8 257.52 335.73 268.34 335.26 279.19 334.25 290.08 332.6 301 330.23 311.97 327.11 323 323.25 334.09 318.69 345.23 313.5 356.43 307.8 367.7 301.72 379.03 295.41 390.42 289.03 401.87 282.76 413.37 276.75 424.91 271.15 436.5 266.07 448.12 261.62 459.77 257.86 471.43 254.82 483.1 252.49 494.77 250.82 506.43 249.73 518.06 249.12 529.65 248.86 541.2 248.79 552.7 248.77 564.12 248.62 575.48 248.21 586.74 247.39 597.92 246.06 609 244.11 619.98 241.51 630.85 238.21 641.61 234.25 652.25 229.66 662.79 224.53 673.22 218.96 683.54 213.08 693.76 207.02 703.88 200.95 713.92 195.01 723.88 189.35 733.77 184.08 743.61 179.32 753.41 175.15 763.18 171.62 772.94 168.73 782.7 166.48 792.49 164.82 802.31 163.66 812.18 162.91 822.12 162.44 832.15 162.1 842.28 161.77 852.53 161.29 862.91 160.54 873.43 159.39 884.11 157.75 894.96 155.54 905.98 152.73 917.17 149.3 928.56 145.26 940.13 140.69 951.9 135.64 963.84 130.23 975.98 124.56 988.29 118.78 1000.76 113.02 1013.4 107.42 1026.18 102.09 1039.09 97.15 1052.12 92.68 1065.24 88.76 1078.44 85.42 1091.69 82.66 1104.97 80.46 1118.27 78.77 1131.55 77.51 1144.79 76.59 1157.97 75.88 1171.06 75.27 1184.04 74.62 1196.89 73.81 1209.57 72.73 1222.08 71.26 1234.39 69.34 1246.49 66.9 1258.35 63.91 1269.97 60.37 1281.34 56.31 1292.44 51.77 1303.26 46.84 1313.82 41.61 1324.1 36.19 1334.11 30.69 1343.85 25.25 1353.34 19.97 1362.58 14.97 1371.59 10.33 1380.39 6.14 1389 2.44 1405.67 -3.16 1422 -7.34 1405.86 -24.65 1394.73 -41.95 1392.06 -59.26 1398.68 -76.57 1412.53 -93.87 1429.33 -111.18 1443.84 -128.49 1451.58 -145.8 1438.95 -146.95 1426.32 -147.66 1413.69 -147.89 1401.06 -147.63 1388.43 -146.89 1375.8 -145.71 1363.17 -144.18 1350.54 -142.38 1337.91 -140.43 1325.28 -138.46 1312.66 -136.58 1300.03 -134.92 1287.4 -133.57 1274.77 -132.63 1262.14 -132.15 1249.51 -132.16 1236.88 -132.67 1224.25 -133.64 1211.62 -135 1198.99 -136.68 1186.36 -138.57 1173.73 -140.54 1161.1 -142.49 1148.47 -144.27 1135.84 -145.79 1123.21 -146.94 1110.58 -147.66 1097.95 -147.89 1085.32 -147.63 1072.69 -146.89 1060.07 -145.72 1047.44 -144.19 1034.81 -142.39 1022.18 -140.44 1009.55 -138.47 996.92 -136.59 984.29 -134.92 971.66 -133.58 959.03 -132.63 946.4 -132.15 933.77 -132.16 921.14 -132.67 908.51 -133.63 895.88 -134.99 883.25 -136.67 870.62 -138.56 857.99 -140.53 845.36 -142.48 832.73 -144.26 820.1 -145.78 807.48 -146.94 794.85 -147.66 782.22 -147.89 769.59 -147.64 756.96 -146.9 744.33 -145.73 731.7 -144.19 719.07 -142.4 706.44 -140.45 693.81 -138.48 681.18 -136.6 668.55 -134.93 655.92 -133.58 643.29 -132.64 630.66 -132.15 618.03 -132.16 605.4 -132.66 592.77 -133.62 580.14 -134.99 567.51 -136.66 554.89 -138.55 542.26 -140.52 529.63 -142.47 517 -144.26 504.37 -145.78 491.74 -146.93 479.11 -147.65 466.48 -147.89 453.85 -147.64 441.22 -146.9 428.59 -145.73 415.96 -144.2 403.33 -142.41 390.7 -140.46 378.07 -138.49 365.44 -136.61 352.81 -134.94 340.18 -133.59 327.55 -132.64 314.92 -132.15 302.3 -132.16 289.67 -132.66 277.04 -133.62 264.41 -134.98 251.78 -136.65 239.15 -138.54 226.52 -140.51 213.89 -142.46 201.26 -144.25 188.63 -145.77 176 -146.93 163.37 -147.65 150.74 -147.89 138.11 -147.64 125.48 -146.91 112.85 -145.74 100.22 -144.21 87.59 -142.42 74.96 -140.47 62.33 -138.5 49.71 -136.62 37.08 -134.95 24.45 -133.59 11.82 -132.64 -0.8 -132.16 -13.43 -132.16 -26.06 -132.66 -38.69 -133.61 -51.32 -134.97 -63.95 -136.64 -76.58 -138.53 -89.21 -140.5 -101.84 -142.45 -114.47 -144.24 -127.1 -145.76 -139.73 -146.92 -156.03 -140.38 -152.47 -118.29 -144.3 -103.43 -136.4 -88.54" fill="url(#uuunion-grad2)" filter="url(#uuunion-blur)"></path><path d="M1398.41 309.13Q1407.11 311.12 1415.82 313.4 1424.52 315.9 1433.23 318.53 1441.93 321.21 1450.64 323.85 1459.34 326.36 1468.05 328.67 1476.75 330.69 1485.46 332.36 1502.87 334.2 1520.28 334.64 1528.98 334.02 1537.69 332.94 1530.5 350.67 1533.76 368.4 1546.47 386.13 1564.68 403.85 1582.74 421.58 1595.04 439.31 1597.77 457.04 1590.09 474.77 1574.37 492.5 1555.49 510.23 1539.31 527.96 1530.86 545.69 1532.75 563.42 1544.4 581.15 1562.19 598.88 1580.6 616.61 1593.93 634.34 1598.02 652.07 1591.62 669.8 1576.71 687.53 1557.92 705.26 1541.07 722.99 1531.4 740.72 1531.9 758.45 1542.43 776.18 1559.71 793.9 1578.38 811.63 1592.65 829.36 1598.09 847.09 1593.01 864.82 1578.99 882.55 1560.38 900.28 1548.19 902.43 1536 903.19 1523.8 902.52 1511.61 900.45 1499.42 897.11 1487.23 892.71 1475.04 887.52 1462.84 881.87 1450.65 876.1 1438.46 870.57 1426.27 865.63 1414.08 861.57 1401.88 858.66 1389.69 857.07 1377.5 856.9 1365.31 858.16 1353.12 860.77 1340.92 864.58 1328.73 869.34 1316.54 874.75 1304.35 880.5 1292.16 886.21 1279.96 891.54 1267.77 896.15 1255.58 899.76 1243.39 902.15 1231.2 903.16 1219 902.74 1206.81 900.91 1194.62 897.79 1182.43 893.56 1170.24 888.49 1158.04 882.89 1145.85 877.12 1133.66 871.52 1121.47 866.45 1109.28 862.22 1097.08 859.09 1084.89 857.25 1072.7 856.82 1060.51 857.83 1048.32 860.22 1036.12 863.82 1023.93 868.43 1011.74 873.76 999.55 879.47 987.36 885.21 975.16 890.64 962.97 895.4 950.78 899.21 938.59 901.82 926.4 903.09 914.2 902.92 902.01 901.34 889.82 898.43 877.63 894.38 865.44 889.44 853.24 883.91 841.05 878.14 828.86 872.49 816.67 867.3 804.48 862.9 792.28 859.55 780.09 857.48 767.9 856.8 755.71 857.55 743.52 859.7 731.32 863.1 719.13 867.55 706.94 872.77 694.75 878.44 682.56 884.21 670.36 889.71 658.17 894.61 645.98 898.61 633.79 901.45 621.6 902.97 609.4 903.06 597.21 901.72 585.02 899.03 572.83 895.17 560.64 890.37 548.44 884.92 536.25 879.17 524.06 873.47 511.87 868.17 499.68 863.61 487.48 860.06 475.29 857.75 463.1 856.81 450.91 857.31 438.72 859.22 426.52 862.41 414.33 866.7 402.14 871.8 389.95 877.42 377.76 883.19 365.56 888.77 353.37 893.8 341.18 897.98 328.99 901.04 316.8 902.8 304.6 903.15 292.41 902.06 280.22 899.6 268.03 895.93 255.84 891.28 243.64 885.92 231.45 880.2 219.26 874.46 207.07 869.07 194.88 864.35 182.68 860.61 170.49 858.06 158.3 856.87 146.11 857.12 133.92 858.78 121.72 861.76 109.53 865.87 97.34 870.85 85.15 876.4 72.96 882.17 60.76 887.81 48.57 892.96 36.38 897.31 24.19 900.59 4.75 897.81 -4.64 882.89 -6.42 872.74 -7.64 862.59 -8.17 852.44 -7.96 842.29 -6 827.07 -4.46 822 9.39 814.94 23.26 806.53 37.07 796.91 50.77 786.31 64.31 775.01 77.65 763.36 90.77 751.69 103.66 740.37 116.32 729.71 128.78 720 141.05 711.45 153.17 704.19 165.19 698.28 177.15 693.69 189.09 690.3 201.06 687.91 213.09 686.26 225.23 685.05 237.48 683.96 249.87 682.64 262.38 680.78 275.03 678.11 287.78 674.4 300.6 669.49 313.47 663.31 326.35 655.88 339.19 647.26 351.95 637.64 364.6 627.24 377.11 616.32 389.45 605.21 401.61 594.21 413.59 583.63 425.4 573.75 437.07 564.78 448.62 556.91 460.1 550.22 471.56 544.72 483.06 540.36 494.66 537.01 506.42 534.47 518.39 532.48 530.62 530.77 543.15 529.05 555.99 527.02 569.17 524.41 582.68 520.99 596.49 516.6 610.55 511.11 624.83 504.5 639.24 496.8 653.72 488.1 668.16 478.6 682.48 468.49 696.59 458.04 710.41 447.52 723.85 437.2 736.86 427.36 749.38 418.2 761.39 409.92 772.89 402.64 783.88 396.4 794.42 391.2 804.57 386.96 813.83 387.81 823.07 389.08 832.28 390.67 841.46 392.48 850.63 394.37 859.76 396.24 868.88 397.95 877.97 399.39 887.04 400.46 896.1 401.06 905.13 401.13 914.14 400.61 923.14 399.48 932.13 397.73 941.1 395.38 950.06 392.49 959.01 389.11 967.94 385.33 976.87 381.25 985.8 376.97 994.72 372.63 1003.64 368.34 1012.55 364.22 1021.47 360.38 1030.39 356.93 1039.32 353.94 1048.25 351.49 1057.19 349.62 1066.13 348.35 1075.09 347.68 1084.07 347.6 1093.06 348.04 1102.06 348.95 1111.09 350.24 1120.13 351.81 1129.2 353.54 1138.3 355.32 1147.42 357.04 1156.56 358.56 1165.74 359.8 1174.95 360.64 1184.19 361.02 1193.47 360.86 1202.78 360.12 1212.13 358.79 1221.52 356.88 1230.95 354.4 1240.42 351.4 1249.94 347.97 1259.5 344.18 1269.1 340.14 1278.75 335.94 1288.45 331.72 1298.19 327.59 1307.99 323.65 1317.83 320.02 1327.72 316.79 1337.67 314.03 1347.66 311.8 1357.71 310.14 1367.81 309.06 1377.96 308.55 1388.16 308.59 1398.41 309.13" fill="url(#uuunion-grad3)" filter="url(#uuunion-blur2)"></path></svg>